M48
METRIC,LZ,000.000
;FILE_FORMAT=3:3
;TYPE=PLATED
;Layer: PTH_Through
;EasyEDA v6.5.57, 2026-07-28 14:03:07
;bed29976969240aea55511dc6b9926ae,c5fbdd24a08247c7b54e1019145e24f9,10
;Gerber Generator version 0.2
;Holesize 1 = 0.200 mm
T01C0.200
;Holesize 2 = 0.301 mm
T02C0.301
;Holesize 3 = 0.305 mm
T03C0.305
;Holesize 4 = 0.310 mm
T04C0.310
;Holesize 5 = 0.701 mm
T05C0.701
;Holesize 6 = 0.850 mm
T06C0.850
;Holesize 7 = 1.101 mm
T07C1.101
;Holesize 8 = 1.200 mm
T08C1.200
;Holesize 9 = 1.400 mm
T09C1.400
%
G05
G90
T01
X055894Y039121
X056275Y043587
X030233Y030717
X022245Y044666
X065532Y044308
X033434Y038075
X029759Y038642
X020920Y017858
X021886Y022010
X023504Y030398
X020613Y033036
X068309Y047258
X065956Y040914
X063902Y026368
X063227Y032233
X061378Y039389
X056260Y050647
X065627Y033773
X073095Y041654
X075546Y048013
X061595Y032131
X058378Y029632
X057432Y034331
X029263Y039711
X058240Y035162
X028405Y039541
X047990Y028837
X057333Y037925
X059291Y038189
X049907Y027418
X047984Y029837
X057980Y038576
X059282Y039066
X048563Y027479
X031903Y036893
X032187Y033687
X032306Y033138
X031917Y032687
X032231Y029237
X021825Y038211
X022396Y041681
X026788Y044974
X022774Y037733
X023463Y038165
X018374Y037850
X025336Y039538
X025953Y039541
X026896Y039538
X029780Y035187
X029509Y034687
X025948Y028169
X024492Y030348
X025396Y027804
X024896Y027494
X075911Y048526
X063595Y029024
X020520Y036648
X049784Y053751
X020518Y037379
X050434Y053863
X028896Y040613
X059182Y034544
X062357Y031496
X028321Y037592
X029591Y042164
X058547Y032893
T02
X065532Y041861
X052254Y031481
T03
X052967Y010914
X053967Y010914
X052967Y009914
X053967Y009914
T04
X015405Y041237
X028067Y042799
T05
X061329Y055048
X066179Y055048
X067379Y057928G85X067379Y057528
X060129Y057928G85X060129Y057528
X047359Y055175
X052209Y055175
X053409Y058055G85X053409Y057655
X046159Y058055G85X046159Y057655
T06
X042799Y051943
X042799Y049403
X042799Y046863
X042799Y044323
X042799Y041783
X042799Y039243
X042799Y036703
X042799Y034163
X042799Y031623
X042799Y029083
X013970Y058039
X016510Y058039
X019050Y058039
X021590Y058039
X024130Y058039
X026670Y058039
X029210Y058039
X031750Y058039
X034290Y058039
X036830Y058039
X009525Y054356
X009525Y051816
X009525Y049276
X009525Y046736
X009525Y044196
X009525Y041656
X009525Y039116
X009525Y036576
X009525Y034036
X009525Y031496
X009652Y027686
X009652Y025146
X009652Y022606
X009652Y020066
X009652Y017526
X009652Y014986
X009652Y012446
X009652Y009906
X009652Y007366
X009652Y004826
T07
X037719Y023114
X035179Y023114
X032639Y023114
T08
X026543Y023114
X029083Y023114
T09
X022138Y005461
X027138Y005461
M30
