G04 Layer: TopPasteMaskLayer*
G04 EasyEDA v6.5.57, 2026-07-28 14:03:07*
G04 bed29976969240aea55511dc6b9926ae,c5fbdd24a08247c7b54e1019145e24f9,10*
G04 Gerber Generator version 0.2*
G04 Scale: 100 percent, Rotated: No, Reflected: No *
G04 Dimensions in millimeters *
G04 leading zeros omitted , absolute positions ,4 integer and 5 decimal *
%FSLAX45Y45*%
%MOMM*%

%AMMACRO1*21,1,$1,$2,0,0,$3*%
%ADD10R,4.5000X1.6500*%
%ADD11R,0.5000X0.5400*%
%ADD12R,0.5400X0.5000*%
%ADD13R,3.5805X1.6000*%
%ADD14MACRO1,10.3688X8.1525X90.0000*%
%ADD15R,3.5000X5.4000*%
%ADD16R,1.0000X1.6000*%
%ADD17R,1.8600X1.2300*%
%ADD18O,0.602005X1.940992*%
%ADD19O,0.0107X1.940992*%
%ADD20R,3.0980X2.4100*%
%ADD21R,2.3000X1.5500*%
%ADD22O,0.489991X1.07*%
%ADD23O,0.629996X2.250008*%
%ADD24MACRO1,1.2X1.4X90.0000*%
%ADD25R,1.4000X1.2000*%
%ADD26MACRO1,1.2X1.4X-90.0000*%
%ADD27R,0.2800X0.6750*%
%ADD28R,0.6750X0.2800*%
%ADD29R,1.8000X0.7000*%
%ADD30R,0.4500X0.2500*%
%ADD31R,0.2500X0.4500*%
%ADD32R,0.6000X0.4000*%
%ADD33O,0.299999X1.499997*%
%ADD34O,1.499997X0.299999*%

%LPD*%
G36*
X5092293Y424586D02*
G01*
X5087315Y419608D01*
X5087315Y291592D01*
X5092293Y286613D01*
X5207304Y286613D01*
X5212283Y291592D01*
X5211826Y333603D01*
X5167782Y333603D01*
X5167782Y378612D01*
X5212791Y378612D01*
X5212283Y419608D01*
X5207304Y424586D01*
G37*
G36*
X5308295Y424586D02*
G01*
X5303316Y419608D01*
X5303774Y377596D01*
X5347817Y377596D01*
X5347817Y332587D01*
X5302808Y332587D01*
X5303316Y291592D01*
X5308295Y286613D01*
X5423306Y286613D01*
X5428284Y291592D01*
X5428284Y419608D01*
X5423306Y424586D01*
G37*
G36*
X6504787Y2403602D02*
G01*
X6494780Y2393594D01*
X6494780Y2235403D01*
X6504787Y2225395D01*
X6553149Y2225395D01*
X6563156Y2215388D01*
X6563156Y2051812D01*
X6553149Y2041804D01*
X6504787Y2041804D01*
X6494780Y2031796D01*
X6494780Y1873605D01*
X6504787Y1863598D01*
X6685788Y1863598D01*
X6695795Y1873605D01*
X6695795Y2393594D01*
X6685788Y2403602D01*
G37*
G36*
X5988812Y2403602D02*
G01*
X5978804Y2393594D01*
X5978804Y1873605D01*
X5988812Y1863598D01*
X6169812Y1863598D01*
X6179820Y1873605D01*
X6179820Y2031796D01*
X6169812Y2041804D01*
X6121450Y2041804D01*
X6111443Y2051812D01*
X6111443Y2215388D01*
X6121450Y2225395D01*
X6169812Y2225395D01*
X6179820Y2235403D01*
X6179820Y2393594D01*
X6169812Y2403602D01*
G37*
G36*
X7457287Y2403602D02*
G01*
X7447280Y2393594D01*
X7447280Y2235403D01*
X7457287Y2225395D01*
X7505649Y2225395D01*
X7515656Y2215388D01*
X7515656Y2051812D01*
X7505649Y2041804D01*
X7457287Y2041804D01*
X7447280Y2031796D01*
X7447280Y1873605D01*
X7457287Y1863598D01*
X7638288Y1863598D01*
X7648295Y1873605D01*
X7648295Y2393594D01*
X7638288Y2403602D01*
G37*
G36*
X6941312Y2403602D02*
G01*
X6931304Y2393594D01*
X6931304Y1873605D01*
X6941312Y1863598D01*
X7122312Y1863598D01*
X7132320Y1873605D01*
X7132320Y2031796D01*
X7122312Y2041804D01*
X7073950Y2041804D01*
X7063943Y2051812D01*
X7063943Y2215388D01*
X7073950Y2225395D01*
X7122312Y2225395D01*
X7132320Y2235403D01*
X7132320Y2393594D01*
X7122312Y2403602D01*
G37*
G36*
X8638387Y2429002D02*
G01*
X8628380Y2418994D01*
X8628380Y2260803D01*
X8638387Y2250795D01*
X8686749Y2250795D01*
X8696756Y2240788D01*
X8696756Y2077212D01*
X8686749Y2067204D01*
X8638387Y2067204D01*
X8628380Y2057196D01*
X8628380Y1899005D01*
X8638387Y1888998D01*
X8819388Y1888998D01*
X8829395Y1899005D01*
X8829395Y2418994D01*
X8819388Y2429002D01*
G37*
G36*
X8122412Y2429002D02*
G01*
X8112404Y2418994D01*
X8112404Y1899005D01*
X8122412Y1888998D01*
X8303412Y1888998D01*
X8313420Y1899005D01*
X8313420Y2057196D01*
X8303412Y2067204D01*
X8255050Y2067204D01*
X8245043Y2077212D01*
X8245043Y2240788D01*
X8255050Y2250795D01*
X8303412Y2250795D01*
X8313420Y2260803D01*
X8313420Y2418994D01*
X8303412Y2429002D01*
G37*
G36*
X5704687Y477977D02*
G01*
X5700674Y473964D01*
X5700674Y423875D01*
X5704687Y419912D01*
X5750712Y419912D01*
X5754725Y423875D01*
X5754725Y473964D01*
X5750712Y477977D01*
G37*
G36*
X5704687Y392887D02*
G01*
X5700674Y388924D01*
X5700674Y338836D01*
X5704687Y334822D01*
X5750712Y334822D01*
X5754725Y338836D01*
X5754725Y388924D01*
X5750712Y392887D01*
G37*
G36*
X4932426Y4167225D02*
G01*
X4928412Y4163212D01*
X4928412Y4117187D01*
X4932426Y4113174D01*
X4982464Y4113174D01*
X4986477Y4117187D01*
X4986477Y4163212D01*
X4982464Y4167225D01*
G37*
G36*
X4847336Y4167225D02*
G01*
X4843322Y4163212D01*
X4843322Y4117187D01*
X4847336Y4113174D01*
X4897374Y4113174D01*
X4901387Y4117187D01*
X4901387Y4163212D01*
X4897374Y4167225D01*
G37*
G36*
X6304026Y2668625D02*
G01*
X6300012Y2664612D01*
X6300012Y2618587D01*
X6304026Y2614574D01*
X6354064Y2614574D01*
X6358077Y2618587D01*
X6358077Y2664612D01*
X6354064Y2668625D01*
G37*
G36*
X6218936Y2668625D02*
G01*
X6214922Y2664612D01*
X6214922Y2618587D01*
X6218936Y2614574D01*
X6268974Y2614574D01*
X6272987Y2618587D01*
X6272987Y2664612D01*
X6268974Y2668625D01*
G37*
G36*
X6390487Y4935677D02*
G01*
X6386474Y4931664D01*
X6386474Y4881575D01*
X6390487Y4877612D01*
X6436512Y4877612D01*
X6440525Y4881575D01*
X6440525Y4931664D01*
X6436512Y4935677D01*
G37*
G36*
X6390487Y4850587D02*
G01*
X6386474Y4846624D01*
X6386474Y4796536D01*
X6390487Y4792522D01*
X6436512Y4792522D01*
X6440525Y4796536D01*
X6440525Y4846624D01*
X6436512Y4850587D01*
G37*
G36*
X6263487Y4935677D02*
G01*
X6259474Y4931664D01*
X6259474Y4881575D01*
X6263487Y4877612D01*
X6309512Y4877612D01*
X6313525Y4881575D01*
X6313525Y4931664D01*
X6309512Y4935677D01*
G37*
G36*
X6263487Y4850587D02*
G01*
X6259474Y4846624D01*
X6259474Y4796536D01*
X6263487Y4792522D01*
X6309512Y4792522D01*
X6313525Y4796536D01*
X6313525Y4846624D01*
X6309512Y4850587D01*
G37*
G36*
X5665622Y1950008D02*
G01*
X5660593Y1944979D01*
X5660593Y1922221D01*
X5697575Y1922221D01*
X5697575Y1889201D01*
X5660593Y1889201D01*
X5660593Y1865020D01*
X5665622Y1859991D01*
X5745581Y1859991D01*
X5750610Y1865020D01*
X5750610Y1944979D01*
X5745581Y1950008D01*
G37*
G36*
X5506618Y1950008D02*
G01*
X5501589Y1944979D01*
X5501589Y1865020D01*
X5506618Y1859991D01*
X5586577Y1859991D01*
X5591606Y1865020D01*
X5591606Y1887778D01*
X5554624Y1887778D01*
X5554624Y1920798D01*
X5591606Y1920798D01*
X5591606Y1944979D01*
X5586577Y1950008D01*
G37*
G36*
X5144922Y1759508D02*
G01*
X5139893Y1754479D01*
X5139893Y1731721D01*
X5176875Y1731721D01*
X5176875Y1698701D01*
X5139893Y1698701D01*
X5139893Y1674520D01*
X5144922Y1669491D01*
X5224881Y1669491D01*
X5229910Y1674520D01*
X5229910Y1754479D01*
X5224881Y1759508D01*
G37*
G36*
X4985918Y1759508D02*
G01*
X4980889Y1754479D01*
X4980889Y1674520D01*
X4985918Y1669491D01*
X5065877Y1669491D01*
X5070906Y1674520D01*
X5070906Y1697278D01*
X5033924Y1697278D01*
X5033924Y1730298D01*
X5070906Y1730298D01*
X5070906Y1754479D01*
X5065877Y1759508D01*
G37*
G36*
X6881520Y4328210D02*
G01*
X6876491Y4323181D01*
X6876491Y4243222D01*
X6881520Y4238193D01*
X6904278Y4238193D01*
X6904278Y4275226D01*
X6937298Y4275226D01*
X6937298Y4238193D01*
X6961479Y4238193D01*
X6966508Y4243222D01*
X6966508Y4323181D01*
X6961479Y4328210D01*
G37*
G36*
X6881520Y4169206D02*
G01*
X6876491Y4164177D01*
X6876491Y4084218D01*
X6881520Y4079189D01*
X6961479Y4079189D01*
X6966508Y4084218D01*
X6966508Y4164177D01*
X6961479Y4169206D01*
X6938721Y4169206D01*
X6938721Y4132173D01*
X6905701Y4132173D01*
X6905701Y4169206D01*
G37*
G36*
X7151522Y5074208D02*
G01*
X7146493Y5069179D01*
X7146493Y5046421D01*
X7183475Y5046421D01*
X7183475Y5013401D01*
X7146493Y5013401D01*
X7146493Y4989220D01*
X7151522Y4984191D01*
X7231481Y4984191D01*
X7236510Y4989220D01*
X7236510Y5069179D01*
X7231481Y5074208D01*
G37*
G36*
X6992518Y5074208D02*
G01*
X6987489Y5069179D01*
X6987489Y4989220D01*
X6992518Y4984191D01*
X7072477Y4984191D01*
X7077506Y4989220D01*
X7077506Y5011978D01*
X7040524Y5011978D01*
X7040524Y5044998D01*
X7077506Y5044998D01*
X7077506Y5069179D01*
X7072477Y5074208D01*
G37*
G36*
X6202680Y3817569D02*
G01*
X6202680Y3497579D01*
X6522720Y3497579D01*
X6522720Y3817569D01*
G37*
G36*
X6676440Y3947617D02*
G01*
X6676440Y3927601D01*
X6763969Y3927601D01*
X6763969Y3947617D01*
G37*
G36*
X6676440Y3907586D02*
G01*
X6676440Y3887571D01*
X6763969Y3887571D01*
X6763969Y3907586D01*
G37*
G36*
X6676440Y3867556D02*
G01*
X6676440Y3847541D01*
X6763969Y3847541D01*
X6763969Y3867556D01*
G37*
G36*
X6676440Y3827627D02*
G01*
X6676440Y3807612D01*
X6763969Y3807612D01*
X6763969Y3827627D01*
G37*
G36*
X6676440Y3787597D02*
G01*
X6676440Y3767582D01*
X6763969Y3767582D01*
X6763969Y3787597D01*
G37*
G36*
X6676440Y3747617D02*
G01*
X6676440Y3727602D01*
X6763969Y3727602D01*
X6763969Y3747617D01*
G37*
G36*
X6676440Y3707587D02*
G01*
X6676440Y3687572D01*
X6763969Y3687572D01*
X6763969Y3707587D01*
G37*
G36*
X6676440Y3667556D02*
G01*
X6676440Y3647541D01*
X6763969Y3647541D01*
X6763969Y3667556D01*
G37*
G36*
X6676440Y3627628D02*
G01*
X6676440Y3607612D01*
X6763969Y3607612D01*
X6763969Y3627628D01*
G37*
G36*
X6676440Y3587597D02*
G01*
X6676440Y3567582D01*
X6763969Y3567582D01*
X6763969Y3587597D01*
G37*
G36*
X6676440Y3547618D02*
G01*
X6676440Y3527602D01*
X6763969Y3527602D01*
X6763969Y3547618D01*
G37*
G36*
X6676440Y3507587D02*
G01*
X6676440Y3487572D01*
X6763969Y3487572D01*
X6763969Y3507587D01*
G37*
G36*
X6676440Y3467557D02*
G01*
X6676440Y3447542D01*
X6763969Y3447542D01*
X6763969Y3467557D01*
G37*
G36*
X6676440Y3427628D02*
G01*
X6676440Y3407613D01*
X6763969Y3407613D01*
X6763969Y3427628D01*
G37*
G36*
X6676440Y3387598D02*
G01*
X6676440Y3367582D01*
X6763969Y3367582D01*
X6763969Y3387598D01*
G37*
G36*
X6072733Y4058818D02*
G01*
X6072733Y3971340D01*
X6092698Y3971340D01*
X6092698Y4058818D01*
G37*
G36*
X6632702Y4058818D02*
G01*
X6632702Y3971340D01*
X6652717Y3971340D01*
X6652717Y4058818D01*
G37*
G36*
X6352692Y4058818D02*
G01*
X6352692Y3971340D01*
X6372707Y3971340D01*
X6372707Y4058818D01*
G37*
G36*
X6312712Y4058818D02*
G01*
X6312712Y3971340D01*
X6332677Y3971340D01*
X6332677Y4058818D01*
G37*
G36*
X6592722Y4058818D02*
G01*
X6592722Y3971340D01*
X6612686Y3971340D01*
X6612686Y4058818D01*
G37*
G36*
X6272733Y4058818D02*
G01*
X6272733Y3971340D01*
X6292697Y3971340D01*
X6292697Y4058818D01*
G37*
G36*
X6552692Y4058818D02*
G01*
X6552692Y3971340D01*
X6572707Y3971340D01*
X6572707Y4058818D01*
G37*
G36*
X6392722Y4058818D02*
G01*
X6392722Y3971340D01*
X6412687Y3971340D01*
X6412687Y4058818D01*
G37*
G36*
X6232702Y4058818D02*
G01*
X6232702Y3971340D01*
X6252718Y3971340D01*
X6252718Y4058818D01*
G37*
G36*
X6112713Y4058818D02*
G01*
X6112713Y3971340D01*
X6132677Y3971340D01*
X6132677Y4058818D01*
G37*
G36*
X6512712Y4058818D02*
G01*
X6512712Y3971340D01*
X6532676Y3971340D01*
X6532676Y4058818D01*
G37*
G36*
X6192723Y4058818D02*
G01*
X6192723Y3971340D01*
X6212687Y3971340D01*
X6212687Y4058818D01*
G37*
G36*
X6472732Y4058818D02*
G01*
X6472732Y3971340D01*
X6492697Y3971340D01*
X6492697Y4058818D01*
G37*
G36*
X6152692Y4058818D02*
G01*
X6152692Y3971340D01*
X6172708Y3971340D01*
X6172708Y4058818D01*
G37*
G36*
X6432702Y4058818D02*
G01*
X6432702Y3971340D01*
X6452717Y3971340D01*
X6452717Y4058818D01*
G37*
G36*
X5961430Y3947617D02*
G01*
X5961430Y3927601D01*
X6048959Y3927601D01*
X6048959Y3947617D01*
G37*
G36*
X5961430Y3907586D02*
G01*
X5961430Y3887571D01*
X6048959Y3887571D01*
X6048959Y3907586D01*
G37*
G36*
X5961430Y3867607D02*
G01*
X5961430Y3847592D01*
X6048959Y3847592D01*
X6048959Y3867607D01*
G37*
G36*
X5961430Y3827576D02*
G01*
X5961430Y3807561D01*
X6048959Y3807561D01*
X6048959Y3827576D01*
G37*
G36*
X5961430Y3787597D02*
G01*
X5961430Y3767582D01*
X6048959Y3767582D01*
X6048959Y3787597D01*
G37*
G36*
X5961430Y3747617D02*
G01*
X5961430Y3727602D01*
X6048959Y3727602D01*
X6048959Y3747617D01*
G37*
G36*
X5961430Y3707587D02*
G01*
X5961430Y3687572D01*
X6048959Y3687572D01*
X6048959Y3707587D01*
G37*
G36*
X5961430Y3667607D02*
G01*
X5961430Y3647592D01*
X6048959Y3647592D01*
X6048959Y3667607D01*
G37*
G36*
X5961430Y3627628D02*
G01*
X5961430Y3607612D01*
X6048959Y3607612D01*
X6048959Y3627628D01*
G37*
G36*
X5961430Y3587597D02*
G01*
X5961430Y3567582D01*
X6048959Y3567582D01*
X6048959Y3587597D01*
G37*
G36*
X5961430Y3547618D02*
G01*
X5961430Y3527602D01*
X6048959Y3527602D01*
X6048959Y3547618D01*
G37*
G36*
X5961430Y3507587D02*
G01*
X5961430Y3487572D01*
X6048959Y3487572D01*
X6048959Y3507587D01*
G37*
G36*
X5961430Y3467608D02*
G01*
X5961430Y3447592D01*
X6048959Y3447592D01*
X6048959Y3467608D01*
G37*
G36*
X5961430Y3427577D02*
G01*
X5961430Y3407562D01*
X6048959Y3407562D01*
X6048959Y3427577D01*
G37*
G36*
X5961430Y3387598D02*
G01*
X5961430Y3367582D01*
X6048959Y3367582D01*
X6048959Y3387598D01*
G37*
G36*
X6632702Y3343859D02*
G01*
X6632702Y3256381D01*
X6652717Y3256381D01*
X6652717Y3343859D01*
G37*
G36*
X6072733Y3343859D02*
G01*
X6072733Y3256381D01*
X6092698Y3256381D01*
X6092698Y3343859D01*
G37*
G36*
X6352692Y3343859D02*
G01*
X6352692Y3256381D01*
X6372707Y3256381D01*
X6372707Y3343859D01*
G37*
G36*
X6392722Y3343859D02*
G01*
X6392722Y3256381D01*
X6412687Y3256381D01*
X6412687Y3343859D01*
G37*
G36*
X6112713Y3343859D02*
G01*
X6112713Y3256381D01*
X6132677Y3256381D01*
X6132677Y3343859D01*
G37*
G36*
X6432702Y3343859D02*
G01*
X6432702Y3256381D01*
X6452717Y3256381D01*
X6452717Y3343859D01*
G37*
G36*
X6152692Y3343859D02*
G01*
X6152692Y3256381D01*
X6172708Y3256381D01*
X6172708Y3343859D01*
G37*
G36*
X6312712Y3343859D02*
G01*
X6312712Y3256381D01*
X6332677Y3256381D01*
X6332677Y3343859D01*
G37*
G36*
X6472732Y3343859D02*
G01*
X6472732Y3256381D01*
X6492697Y3256381D01*
X6492697Y3343859D01*
G37*
G36*
X6592722Y3343859D02*
G01*
X6592722Y3256381D01*
X6612686Y3256381D01*
X6612686Y3343859D01*
G37*
G36*
X6192723Y3343859D02*
G01*
X6192723Y3256381D01*
X6212687Y3256381D01*
X6212687Y3343859D01*
G37*
G36*
X6512712Y3343859D02*
G01*
X6512712Y3256381D01*
X6532676Y3256381D01*
X6532676Y3343859D01*
G37*
G36*
X6232702Y3343859D02*
G01*
X6232702Y3256381D01*
X6252718Y3256381D01*
X6252718Y3343859D01*
G37*
G36*
X6552692Y3343859D02*
G01*
X6552692Y3256381D01*
X6572707Y3256381D01*
X6572707Y3343859D01*
G37*
G36*
X6272733Y3343859D02*
G01*
X6272733Y3256381D01*
X6292697Y3256381D01*
X6292697Y3343859D01*
G37*
G36*
X6357874Y5568086D02*
G01*
X6357874Y5443067D01*
X6392926Y5443067D01*
X6392926Y5568086D01*
G37*
G36*
X6292900Y5568086D02*
G01*
X6292900Y5443067D01*
X6327902Y5443067D01*
X6327902Y5568086D01*
G37*
G36*
X6227927Y5568086D02*
G01*
X6227927Y5443067D01*
X6262878Y5443067D01*
X6262878Y5568086D01*
G37*
G36*
X6422898Y5568086D02*
G01*
X6422898Y5443067D01*
X6457899Y5443067D01*
X6457899Y5568086D01*
G37*
G36*
X6487922Y5568086D02*
G01*
X6487922Y5443067D01*
X6522872Y5443067D01*
X6522872Y5568086D01*
G37*
G36*
X4960874Y5580786D02*
G01*
X4960874Y5455767D01*
X4995926Y5455767D01*
X4995926Y5580786D01*
G37*
G36*
X4895900Y5580786D02*
G01*
X4895900Y5455767D01*
X4930902Y5455767D01*
X4930902Y5580786D01*
G37*
G36*
X4830927Y5580786D02*
G01*
X4830927Y5455767D01*
X4865878Y5455767D01*
X4865878Y5580786D01*
G37*
G36*
X5025898Y5580786D02*
G01*
X5025898Y5455767D01*
X5060899Y5455767D01*
X5060899Y5580786D01*
G37*
G36*
X5090922Y5580786D02*
G01*
X5090922Y5455767D01*
X5125872Y5455767D01*
X5125872Y5580786D01*
G37*
D10*
G01*
X3512413Y609600D03*
G01*
X4412386Y609600D03*
D11*
G01*
X5630011Y1714500D03*
G01*
X5545988Y1714500D03*
D12*
G01*
X6540500Y4822088D03*
G01*
X6540500Y4906111D03*
G01*
X6731000Y4288688D03*
G01*
X6731000Y4372711D03*
G01*
X6553200Y4288688D03*
G01*
X6553200Y4372711D03*
G01*
X6654800Y3090011D03*
G01*
X6654800Y3005988D03*
D11*
G01*
X6976211Y3924300D03*
G01*
X6892188Y3924300D03*
G01*
X6252311Y3390900D03*
G01*
X6168288Y3390900D03*
G01*
X5647588Y3543300D03*
G01*
X5731611Y3543300D03*
G01*
X5647588Y3924300D03*
G01*
X5731611Y3924300D03*
D12*
G01*
X6311900Y4301388D03*
G01*
X6311900Y4385411D03*
G01*
X6184900Y4301388D03*
G01*
X6184900Y4385411D03*
D11*
G01*
X6976211Y3797300D03*
G01*
X6892188Y3797300D03*
G01*
X5731611Y3733800D03*
G01*
X5647588Y3733800D03*
D12*
G01*
X6362700Y3090011D03*
G01*
X6362700Y3005988D03*
D11*
G01*
X6976211Y3657600D03*
G01*
X6892188Y3657600D03*
G01*
X4817211Y5080000D03*
G01*
X4733188Y5080000D03*
G01*
X7027011Y2755900D03*
G01*
X6942988Y2755900D03*
G01*
X8030311Y2933700D03*
G01*
X7946288Y2933700D03*
G01*
X5045811Y3213100D03*
G01*
X4961788Y3213100D03*
G01*
X5190388Y3213100D03*
G01*
X5274411Y3213100D03*
G01*
X4931511Y2438400D03*
G01*
X4847488Y2438400D03*
G01*
X3166211Y4076700D03*
G01*
X3082188Y4076700D03*
G01*
X3483711Y3213100D03*
G01*
X3399688Y3213100D03*
D12*
G01*
X2146300Y2650388D03*
G01*
X2146300Y2734411D03*
D11*
G01*
X1583588Y3111500D03*
G01*
X1667611Y3111500D03*
D12*
G01*
X2755900Y2637688D03*
G01*
X2755900Y2721711D03*
G01*
X2019300Y4194911D03*
G01*
X2019300Y4110888D03*
D11*
G01*
X2277211Y4406900D03*
G01*
X2193188Y4406900D03*
G01*
X3496411Y3810000D03*
G01*
X3412388Y3810000D03*
G01*
X2607411Y2603500D03*
G01*
X2523388Y2603500D03*
G01*
X2086711Y1727200D03*
G01*
X2002688Y1727200D03*
G01*
X2353411Y2654300D03*
G01*
X2269388Y2654300D03*
G01*
X8360511Y5041900D03*
G01*
X8276488Y5041900D03*
D13*
G01*
X9043619Y609600D03*
G01*
X9043619Y1117600D03*
D14*
G01*
X7999774Y863600D03*
D15*
G01*
X6132106Y889000D03*
G01*
X7152093Y889000D03*
D16*
G01*
X6707200Y4826000D03*
G01*
X6907199Y4826000D03*
D17*
G01*
X4965700Y3388309D03*
G01*
X4965700Y3825290D03*
D18*
G01*
X5156200Y769340D03*
G01*
X5283200Y769340D03*
G01*
X5410200Y769340D03*
G01*
X5537200Y769340D03*
G01*
X5156200Y1313459D03*
G01*
X5283200Y1313459D03*
G01*
X5410200Y1313459D03*
G01*
X5537200Y1313459D03*
D20*
G01*
X5346700Y1041400D03*
D21*
G01*
X5524507Y2298687D03*
D22*
G01*
X5429511Y2458707D03*
G01*
X5524507Y2458707D03*
G01*
X5619503Y2458707D03*
G01*
X5619503Y2138692D03*
G01*
X5524507Y2138692D03*
G01*
X5429511Y2138692D03*
D23*
G01*
X5181600Y4358690D03*
G01*
X5308600Y4358690D03*
G01*
X5435600Y4358690D03*
G01*
X5562600Y4358690D03*
G01*
X5181600Y5064709D03*
G01*
X5308600Y5064709D03*
G01*
X5435600Y5064709D03*
G01*
X5562600Y5064709D03*
D24*
G01*
X7459200Y2759811D03*
G01*
X7679199Y2759811D03*
D25*
G01*
X7679207Y2929801D03*
D26*
G01*
X7459200Y2929813D03*
D24*
G01*
X2087100Y2201011D03*
G01*
X2307099Y2201011D03*
D25*
G01*
X2307107Y2371001D03*
D26*
G01*
X2087100Y2371013D03*
D27*
G01*
X4890693Y2807500D03*
G01*
X4940706Y2807500D03*
G01*
X4990693Y2807500D03*
G01*
X5040706Y2807500D03*
D28*
G01*
X5066944Y2883700D03*
G01*
X5066944Y2933687D03*
G01*
X5066944Y2983699D03*
D27*
G01*
X5040706Y3059899D03*
G01*
X4990693Y3059899D03*
G01*
X4940706Y3059899D03*
G01*
X4890693Y3059899D03*
D28*
G01*
X4864455Y2983699D03*
G01*
X4864455Y2933687D03*
G01*
X4864455Y2883700D03*
D29*
G01*
X7432090Y4275404D03*
G01*
X7432090Y4165396D03*
G01*
X7432090Y4055389D03*
G01*
X7432090Y3945407D03*
G01*
X7432090Y3835400D03*
G01*
X7432090Y3725392D03*
G01*
X7432090Y3615410D03*
G01*
X7432090Y3505403D03*
G01*
X7432090Y3395395D03*
G01*
X8392109Y3395395D03*
G01*
X8392109Y3505403D03*
G01*
X8392109Y3615410D03*
G01*
X8392109Y3725392D03*
G01*
X8392109Y3835400D03*
G01*
X8392109Y3945407D03*
G01*
X8392109Y4055389D03*
G01*
X8392109Y4165396D03*
G01*
X8392109Y4275404D03*
D30*
G01*
X7646098Y4852581D03*
G01*
X7646098Y4902593D03*
G01*
X7646098Y4952580D03*
G01*
X7646098Y5002593D03*
D31*
G01*
X7697381Y5053901D03*
G01*
X7747393Y5053901D03*
G01*
X7797380Y5053901D03*
G01*
X7847393Y5053901D03*
D30*
G01*
X7898701Y5002618D03*
G01*
X7898701Y4952606D03*
G01*
X7898701Y4902619D03*
G01*
X7898701Y4852606D03*
D31*
G01*
X7847418Y4801298D03*
G01*
X7797406Y4801298D03*
G01*
X7747419Y4801298D03*
G01*
X7697406Y4801298D03*
D32*
G01*
X5629808Y2963189D03*
G01*
X5629808Y3028213D03*
G01*
X5629808Y3093186D03*
G01*
X5629808Y3158210D03*
G01*
X5774791Y2963189D03*
G01*
X5774791Y3028213D03*
G01*
X5774791Y3093186D03*
G01*
X5774791Y3158210D03*
D33*
G01*
X2139594Y2923679D03*
G01*
X2189606Y2923679D03*
G01*
X2239594Y2923679D03*
G01*
X2289606Y2923679D03*
G01*
X2339593Y2923679D03*
G01*
X2389606Y2923679D03*
G01*
X2439593Y2923679D03*
G01*
X2489606Y2923679D03*
G01*
X2539593Y2923679D03*
G01*
X2589606Y2923679D03*
G01*
X2639593Y2923679D03*
G01*
X2689606Y2923679D03*
G01*
X2739593Y2923679D03*
G01*
X2789605Y2923679D03*
G01*
X2839593Y2923679D03*
G01*
X2889605Y2923679D03*
D34*
G01*
X3084601Y3118675D03*
G01*
X3084601Y3168688D03*
G01*
X3084601Y3218675D03*
G01*
X3084601Y3268687D03*
G01*
X3084601Y3318675D03*
G01*
X3084601Y3368687D03*
G01*
X3084601Y3418674D03*
G01*
X3084601Y3468687D03*
G01*
X3084601Y3518674D03*
G01*
X3084601Y3568687D03*
G01*
X3084601Y3618674D03*
G01*
X3084601Y3668687D03*
G01*
X3084601Y3718674D03*
G01*
X3084601Y3768686D03*
G01*
X3084601Y3818674D03*
G01*
X3084601Y3868686D03*
D33*
G01*
X2889605Y4061320D03*
G01*
X2839593Y4061320D03*
G01*
X2789605Y4061320D03*
G01*
X2739593Y4061320D03*
G01*
X2689606Y4061320D03*
G01*
X2639593Y4061320D03*
G01*
X2589606Y4061320D03*
G01*
X2539593Y4061320D03*
G01*
X2489606Y4061320D03*
G01*
X2439593Y4061320D03*
G01*
X2389606Y4061320D03*
G01*
X2339593Y4061320D03*
G01*
X2289606Y4061320D03*
G01*
X2239594Y4061320D03*
G01*
X2189606Y4061320D03*
G01*
X2139594Y4061320D03*
D34*
G01*
X1944598Y3868686D03*
G01*
X1944598Y3818674D03*
G01*
X1944598Y3768686D03*
G01*
X1944598Y3718674D03*
G01*
X1944598Y3668687D03*
G01*
X1944598Y3618674D03*
G01*
X1944598Y3568687D03*
G01*
X1944598Y3518674D03*
G01*
X1944598Y3468687D03*
G01*
X1944598Y3418674D03*
G01*
X1944598Y3368687D03*
G01*
X1944598Y3318675D03*
G01*
X1944598Y3268687D03*
G01*
X1944598Y3218675D03*
G01*
X1944598Y3168688D03*
G01*
X1944598Y3118675D03*
M02*
