G04 Layer: BottomLayer*
G04 EasyEDA v6.5.57, 2026-07-28 14:03:07*
G04 bed29976969240aea55511dc6b9926ae,c5fbdd24a08247c7b54e1019145e24f9,10*
G04 Gerber Generator version 0.2*
G04 Scale: 100 percent, Rotated: No, Reflected: No *
G04 Dimensions in millimeters *
G04 leading zeros omitted , absolute positions ,4 integer and 5 decimal *
%FSLAX45Y45*%
%MOMM*%

%ADD10C,0.0900*%
%ADD11C,0.2500*%
%ADD12C,1.6000*%
%ADD13R,1.5748X1.6000*%
%ADD14R,2.0000X2.0000*%
%ADD15C,2.0000*%
%ADD16C,0.0156*%
%ADD17C,2.2000*%
%ADD18R,1.4500X1.4500*%
%ADD19C,1.4500*%
%ADD20C,1.3000*%
%ADD21O,1.299997X1.799996*%
%ADD22C,0.6096*%
%ADD23C,0.4500*%
%ADD24C,0.5000*%
%ADD25C,0.6200*%
%ADD26C,0.4500*%

%LPD*%
G36*
X736092Y125882D02*
G01*
X732180Y126695D01*
X728878Y128879D01*
X726694Y132181D01*
X725932Y136042D01*
X725932Y6063894D01*
X726694Y6067806D01*
X728878Y6071108D01*
X732180Y6073292D01*
X736092Y6074054D01*
X9663938Y6074054D01*
X9667798Y6073292D01*
X9671100Y6071108D01*
X9673285Y6067806D01*
X9674098Y6063894D01*
X9674098Y136042D01*
X9673285Y132181D01*
X9671100Y128879D01*
X9667798Y126695D01*
X9663938Y125882D01*
G37*

%LPC*%
G36*
X965200Y384200D02*
G01*
X978611Y385114D01*
X991768Y387858D01*
X1004417Y392379D01*
X1016304Y398526D01*
X1027277Y406298D01*
X1037082Y415442D01*
X1045565Y425856D01*
X1052576Y437337D01*
X1057910Y449630D01*
X1061516Y462584D01*
X1063345Y475894D01*
X1063345Y489305D01*
X1061516Y502615D01*
X1057910Y515569D01*
X1052576Y527862D01*
X1045565Y539343D01*
X1037082Y549757D01*
X1027277Y558901D01*
X1016304Y566674D01*
X1004417Y572820D01*
X991768Y577342D01*
X978611Y580085D01*
X965200Y580999D01*
X951788Y580085D01*
X938631Y577342D01*
X926134Y572871D01*
X922375Y572312D01*
X918667Y573125D01*
X915517Y575259D01*
X902055Y588721D01*
X899871Y592023D01*
X899109Y595934D01*
X899109Y643585D01*
X899921Y647649D01*
X902309Y651002D01*
X905865Y653186D01*
X909929Y653745D01*
X913942Y652627D01*
X925982Y646379D01*
X938631Y641858D01*
X951788Y639114D01*
X965200Y638200D01*
X978611Y639114D01*
X991768Y641858D01*
X1004417Y646379D01*
X1016304Y652526D01*
X1027277Y660298D01*
X1037082Y669442D01*
X1045565Y679856D01*
X1052576Y691337D01*
X1057910Y703630D01*
X1061516Y716584D01*
X1063345Y729894D01*
X1063345Y743305D01*
X1061516Y756615D01*
X1057910Y769569D01*
X1055573Y774903D01*
X1054760Y778814D01*
X1055471Y782777D01*
X1057706Y786130D01*
X2034590Y1763014D01*
X2037791Y1765147D01*
X2041499Y1765960D01*
X2045258Y1765350D01*
X2048560Y1763420D01*
X2056231Y1753260D01*
X2062835Y1747215D01*
X2070455Y1742541D01*
X2078736Y1739290D01*
X2087524Y1737664D01*
X2096465Y1737664D01*
X2105253Y1739290D01*
X2113534Y1742541D01*
X2121154Y1747215D01*
X2127758Y1753260D01*
X2133142Y1760372D01*
X2137105Y1768348D01*
X2139543Y1776933D01*
X2140356Y1785823D01*
X2139543Y1794713D01*
X2137105Y1803298D01*
X2133142Y1811274D01*
X2127758Y1818386D01*
X2121154Y1824431D01*
X2116531Y1827275D01*
X2113838Y1829714D01*
X2112162Y1832965D01*
X2111756Y1836572D01*
X2112619Y1840077D01*
X2114702Y1843074D01*
X2511044Y2239467D01*
X2514346Y2241651D01*
X2518257Y2242413D01*
X2522118Y2241651D01*
X2525420Y2239467D01*
X2527604Y2236165D01*
X2528366Y2232253D01*
X2528366Y2211984D01*
X2529128Y2205634D01*
X2531008Y2200198D01*
X2534107Y2195271D01*
X2538171Y2191207D01*
X2543098Y2188108D01*
X2548534Y2186228D01*
X2554884Y2185466D01*
X2714853Y2185466D01*
X2718765Y2184704D01*
X2722067Y2182520D01*
X2724251Y2179218D01*
X2725013Y2175306D01*
X2724251Y2171446D01*
X2722067Y2168144D01*
X2192578Y1638655D01*
X2189327Y1634845D01*
X2186076Y1629257D01*
X2184095Y1623212D01*
X2183384Y1616354D01*
X2183384Y686358D01*
X2182368Y681939D01*
X2179624Y678434D01*
X2174849Y676300D01*
X2159965Y670864D01*
X2145842Y663803D01*
X2132634Y655116D01*
X2120544Y644956D01*
X2109724Y633425D01*
X2100275Y620776D01*
X2092350Y607110D01*
X2086102Y592582D01*
X2081580Y577443D01*
X2078837Y561898D01*
X2077923Y546100D01*
X2078837Y530301D01*
X2081580Y514756D01*
X2086102Y499618D01*
X2092350Y485089D01*
X2100275Y471424D01*
X2109724Y458774D01*
X2120544Y447243D01*
X2132634Y437083D01*
X2145842Y428396D01*
X2159965Y421335D01*
X2174849Y415899D01*
X2190191Y412292D01*
X2205888Y410464D01*
X2221687Y410464D01*
X2237384Y412292D01*
X2252776Y415899D01*
X2267610Y421335D01*
X2281732Y428396D01*
X2294940Y437083D01*
X2307031Y447243D01*
X2317902Y458774D01*
X2327351Y471424D01*
X2335225Y485089D01*
X2341473Y499618D01*
X2346045Y514756D01*
X2348788Y530301D01*
X2349703Y546100D01*
X2348788Y561898D01*
X2346045Y577443D01*
X2341473Y592582D01*
X2335225Y607110D01*
X2327351Y620776D01*
X2317902Y633425D01*
X2307031Y644956D01*
X2294940Y655116D01*
X2281732Y663803D01*
X2267610Y670864D01*
X2252776Y676300D01*
X2248001Y678434D01*
X2245207Y681990D01*
X2244191Y686358D01*
X2244191Y1600098D01*
X2244953Y1603959D01*
X2247188Y1607261D01*
X2837992Y2198065D01*
X2841345Y2200300D01*
X2845358Y2201011D01*
X2849321Y2200148D01*
X2863646Y2193696D01*
X2878175Y2189175D01*
X2893110Y2186432D01*
X2908300Y2185517D01*
X2923489Y2186432D01*
X2938424Y2189175D01*
X2952953Y2193696D01*
X2966821Y2199944D01*
X2979826Y2207818D01*
X2991764Y2217166D01*
X3002534Y2227935D01*
X3011881Y2239873D01*
X3019755Y2252878D01*
X3026003Y2266746D01*
X3030524Y2281275D01*
X3033268Y2296210D01*
X3034182Y2311400D01*
X3033268Y2326589D01*
X3030524Y2341524D01*
X3026003Y2356053D01*
X3019755Y2369921D01*
X3011881Y2382926D01*
X3002534Y2394864D01*
X2991764Y2405634D01*
X2979826Y2414981D01*
X2966821Y2422855D01*
X2952953Y2429103D01*
X2938424Y2433624D01*
X2923489Y2436368D01*
X2908300Y2437282D01*
X2893110Y2436368D01*
X2878175Y2433624D01*
X2863646Y2429103D01*
X2849778Y2422855D01*
X2836773Y2414981D01*
X2824835Y2405634D01*
X2814066Y2394864D01*
X2804718Y2382926D01*
X2799080Y2373579D01*
X2796032Y2370429D01*
X2792018Y2368804D01*
X2787650Y2369058D01*
X2783789Y2371090D01*
X2781147Y2374595D01*
X2780233Y2378862D01*
X2780233Y2410815D01*
X2779471Y2417165D01*
X2777591Y2422601D01*
X2774492Y2427528D01*
X2770428Y2431592D01*
X2765501Y2434691D01*
X2760065Y2436571D01*
X2753715Y2437282D01*
X2580182Y2437282D01*
X2576271Y2438095D01*
X2572969Y2440279D01*
X2570784Y2443581D01*
X2570022Y2447442D01*
X2570022Y2738526D01*
X2570886Y2742590D01*
X2573324Y2745994D01*
X2575356Y2747873D01*
X2580741Y2754985D01*
X2584754Y2763113D01*
X2586990Y2766060D01*
X2590190Y2768041D01*
X2593848Y2768701D01*
X2599232Y2768701D01*
X2608021Y2770378D01*
X2616352Y2773578D01*
X2623921Y2778302D01*
X2630525Y2784297D01*
X2635910Y2791409D01*
X2639872Y2799435D01*
X2642311Y2808020D01*
X2643174Y2816860D01*
X2642311Y2825750D01*
X2639872Y2834335D01*
X2635910Y2842361D01*
X2630525Y2849473D01*
X2623921Y2855468D01*
X2616352Y2860192D01*
X2608021Y2863392D01*
X2599232Y2865069D01*
X2590342Y2865069D01*
X2581554Y2863392D01*
X2573223Y2860192D01*
X2565654Y2855468D01*
X2559558Y2849930D01*
X2556408Y2848000D01*
X2552700Y2847289D01*
X2505303Y2847289D01*
X2500325Y2846882D01*
X2494026Y2845206D01*
X2488387Y2842361D01*
X2483053Y2837992D01*
X989533Y1344472D01*
X986790Y1342542D01*
X983589Y1341577D01*
X965200Y1342999D01*
X951788Y1342085D01*
X938631Y1339342D01*
X925982Y1334820D01*
X913942Y1328572D01*
X909929Y1327454D01*
X905865Y1328013D01*
X902309Y1330198D01*
X899921Y1333550D01*
X899109Y1337614D01*
X899109Y1405585D01*
X899921Y1409649D01*
X902309Y1413002D01*
X905865Y1415186D01*
X909929Y1415745D01*
X913942Y1414627D01*
X925982Y1408379D01*
X938631Y1403858D01*
X951788Y1401114D01*
X965200Y1400200D01*
X978611Y1401114D01*
X991768Y1403858D01*
X1004417Y1408379D01*
X1016304Y1414526D01*
X1027277Y1422298D01*
X1037082Y1431442D01*
X1045565Y1441856D01*
X1052576Y1453337D01*
X1057910Y1465630D01*
X1061516Y1478584D01*
X1063345Y1491894D01*
X1063345Y1505305D01*
X1061516Y1518615D01*
X1057910Y1531569D01*
X1055573Y1536903D01*
X1054760Y1540814D01*
X1055471Y1544777D01*
X1057706Y1548130D01*
X2928924Y3419297D01*
X2931566Y3421227D01*
X2934716Y3422192D01*
X2937967Y3422142D01*
X2946450Y3420516D01*
X2955340Y3420516D01*
X2964129Y3422192D01*
X2972460Y3425393D01*
X2980029Y3430117D01*
X2986633Y3436112D01*
X2992018Y3443224D01*
X2995980Y3451250D01*
X2998419Y3459835D01*
X2999638Y3472383D01*
X3001314Y3475685D01*
X3004058Y3478174D01*
X3007156Y3480104D01*
X3013760Y3486099D01*
X3019145Y3493211D01*
X3023108Y3501237D01*
X3025546Y3509822D01*
X3026410Y3518662D01*
X3025546Y3527551D01*
X3023108Y3536137D01*
X3019145Y3544163D01*
X3013760Y3551275D01*
X3007156Y3557270D01*
X2999587Y3561994D01*
X2991256Y3565194D01*
X2982468Y3566871D01*
X2973578Y3566871D01*
X2964789Y3565194D01*
X2956458Y3561994D01*
X2948889Y3557270D01*
X2942793Y3551732D01*
X2939643Y3549802D01*
X2935935Y3549091D01*
X2731668Y3549091D01*
X2726690Y3548684D01*
X2720390Y3547008D01*
X2714752Y3544163D01*
X2709418Y3539794D01*
X1014882Y1845259D01*
X1011732Y1843125D01*
X1008024Y1842312D01*
X1004265Y1842871D01*
X991768Y1847342D01*
X978611Y1850085D01*
X965200Y1850999D01*
X951788Y1850085D01*
X938631Y1847342D01*
X925982Y1842820D01*
X914095Y1836674D01*
X903122Y1828901D01*
X893318Y1819757D01*
X884834Y1809343D01*
X877824Y1797862D01*
X872490Y1785569D01*
X868883Y1772615D01*
X867054Y1759305D01*
X867054Y1745894D01*
X868883Y1732584D01*
X872490Y1719630D01*
X877824Y1707337D01*
X884834Y1695856D01*
X893318Y1685442D01*
X903122Y1676298D01*
X914095Y1668525D01*
X925982Y1662379D01*
X938936Y1657756D01*
X942390Y1655673D01*
X944778Y1652371D01*
X945692Y1648409D01*
X944930Y1644396D01*
X942695Y1640992D01*
X847445Y1545742D01*
X844194Y1541932D01*
X840943Y1536344D01*
X839012Y1530299D01*
X838250Y1523441D01*
X838250Y1087526D01*
X838657Y1082497D01*
X840333Y1076248D01*
X843229Y1070610D01*
X847547Y1065225D01*
X872693Y1040130D01*
X874928Y1036777D01*
X875639Y1032814D01*
X874826Y1028903D01*
X872490Y1023569D01*
X868883Y1010615D01*
X867054Y997305D01*
X867054Y983894D01*
X868883Y970584D01*
X872490Y957630D01*
X877824Y945337D01*
X884834Y933856D01*
X893318Y923442D01*
X903122Y914298D01*
X914095Y906526D01*
X925982Y900379D01*
X938377Y895959D01*
X941832Y893876D01*
X944219Y890574D01*
X945134Y886612D01*
X944371Y882599D01*
X942136Y879195D01*
X847445Y784504D01*
X844194Y780694D01*
X840943Y775106D01*
X839012Y769061D01*
X838250Y762203D01*
X838250Y579526D01*
X838657Y574497D01*
X840333Y568248D01*
X843229Y562610D01*
X847547Y557225D01*
X872693Y532130D01*
X874928Y528777D01*
X875639Y524814D01*
X874826Y520903D01*
X872490Y515569D01*
X868883Y502615D01*
X867054Y489305D01*
X867054Y475894D01*
X868883Y462584D01*
X872490Y449630D01*
X877824Y437337D01*
X884834Y425856D01*
X893318Y415442D01*
X903122Y406298D01*
X914095Y398526D01*
X925982Y392379D01*
X938631Y387858D01*
X951788Y385114D01*
G37*
G36*
X2705912Y410464D02*
G01*
X2721711Y410464D01*
X2737408Y412292D01*
X2752750Y415899D01*
X2767634Y421335D01*
X2781757Y428396D01*
X2794965Y437083D01*
X2807055Y447243D01*
X2817876Y458774D01*
X2827324Y471424D01*
X2835249Y485089D01*
X2841498Y499618D01*
X2846019Y514756D01*
X2848762Y530301D01*
X2849676Y546100D01*
X2848762Y561898D01*
X2846019Y577443D01*
X2841498Y592582D01*
X2835249Y607110D01*
X2827324Y620776D01*
X2817876Y633425D01*
X2807055Y644956D01*
X2794965Y655116D01*
X2781757Y663803D01*
X2767634Y670864D01*
X2752750Y676300D01*
X2737408Y679907D01*
X2721711Y681736D01*
X2705912Y681736D01*
X2690215Y679907D01*
X2674823Y676300D01*
X2659989Y670864D01*
X2645867Y663803D01*
X2632659Y655116D01*
X2620568Y644956D01*
X2609697Y633425D01*
X2600248Y620776D01*
X2592374Y607110D01*
X2586126Y592582D01*
X2581554Y577443D01*
X2578811Y561898D01*
X2577896Y546100D01*
X2578811Y530301D01*
X2581554Y514756D01*
X2586126Y499618D01*
X2592374Y485089D01*
X2600248Y471424D01*
X2609697Y458774D01*
X2620568Y447243D01*
X2632659Y437083D01*
X2645867Y428396D01*
X2659989Y421335D01*
X2674823Y415899D01*
X2690215Y412292D01*
G37*
G36*
X5296712Y935024D02*
G01*
X5306517Y935888D01*
X5315966Y938428D01*
X5324906Y942594D01*
X5332933Y948232D01*
X5339537Y954836D01*
X5342839Y957021D01*
X5346700Y957783D01*
X5350611Y957021D01*
X5353913Y954836D01*
X5360466Y948232D01*
X5368544Y942594D01*
X5377434Y938428D01*
X5386933Y935888D01*
X5396738Y935024D01*
X5406491Y935888D01*
X5415991Y938428D01*
X5424881Y942594D01*
X5432958Y948232D01*
X5439867Y955141D01*
X5445506Y963218D01*
X5449671Y972108D01*
X5452211Y981608D01*
X5453075Y991362D01*
X5452211Y1001166D01*
X5449671Y1010666D01*
X5445506Y1019556D01*
X5439867Y1027633D01*
X5433263Y1034186D01*
X5431078Y1037488D01*
X5430316Y1041400D01*
X5431078Y1045260D01*
X5433263Y1048562D01*
X5439867Y1055166D01*
X5445506Y1063193D01*
X5449671Y1072134D01*
X5452211Y1081582D01*
X5453075Y1091387D01*
X5452211Y1101191D01*
X5449671Y1110640D01*
X5445506Y1119581D01*
X5439867Y1127607D01*
X5432958Y1134567D01*
X5424881Y1140206D01*
X5415991Y1144320D01*
X5406491Y1146860D01*
X5396738Y1147724D01*
X5386933Y1146860D01*
X5377434Y1144320D01*
X5368544Y1140206D01*
X5360466Y1134567D01*
X5353913Y1127963D01*
X5350611Y1125778D01*
X5346700Y1124966D01*
X5342839Y1125778D01*
X5339537Y1127963D01*
X5332933Y1134567D01*
X5324906Y1140206D01*
X5315966Y1144320D01*
X5306517Y1146860D01*
X5296712Y1147724D01*
X5286908Y1146860D01*
X5277459Y1144320D01*
X5268518Y1140206D01*
X5260492Y1134567D01*
X5253532Y1127607D01*
X5247894Y1119581D01*
X5243779Y1110640D01*
X5241239Y1101191D01*
X5240375Y1091387D01*
X5241239Y1081582D01*
X5243779Y1072134D01*
X5247894Y1063193D01*
X5253532Y1055166D01*
X5260136Y1048562D01*
X5262321Y1045260D01*
X5263134Y1041400D01*
X5262321Y1037488D01*
X5260136Y1034186D01*
X5253532Y1027633D01*
X5247894Y1019556D01*
X5243779Y1010666D01*
X5241239Y1001166D01*
X5240375Y991362D01*
X5241239Y981608D01*
X5243779Y972108D01*
X5247894Y963218D01*
X5253532Y955141D01*
X5260492Y948232D01*
X5268518Y942594D01*
X5277459Y938428D01*
X5286908Y935888D01*
G37*
G36*
X965200Y1908200D02*
G01*
X978611Y1909114D01*
X991768Y1911857D01*
X1004417Y1916379D01*
X1016304Y1922525D01*
X1027277Y1930298D01*
X1037082Y1939442D01*
X1045565Y1949856D01*
X1052576Y1961337D01*
X1057910Y1973630D01*
X1061516Y1986584D01*
X1063345Y1999894D01*
X1063345Y2013305D01*
X1061516Y2026615D01*
X1057910Y2039569D01*
X1055573Y2044903D01*
X1054760Y2048814D01*
X1055471Y2052777D01*
X1057706Y2056130D01*
X2710840Y3709212D01*
X2714091Y3713073D01*
X2717342Y3718661D01*
X2719273Y3724706D01*
X2720035Y3731514D01*
X2720035Y3911904D01*
X2720898Y3915968D01*
X2723337Y3919372D01*
X2725369Y3921251D01*
X2730754Y3928364D01*
X2734716Y3936339D01*
X2737154Y3944924D01*
X2737967Y3953814D01*
X2737154Y3962704D01*
X2734716Y3971290D01*
X2730754Y3979265D01*
X2725369Y3986377D01*
X2718765Y3992422D01*
X2711145Y3997096D01*
X2702864Y4000347D01*
X2694076Y4001973D01*
X2685135Y4001973D01*
X2676347Y4000347D01*
X2668066Y3997096D01*
X2660446Y3992422D01*
X2653842Y3986377D01*
X2650693Y3982212D01*
X2647950Y3979672D01*
X2644444Y3978351D01*
X2640736Y3978351D01*
X2637231Y3979672D01*
X2634488Y3982212D01*
X2631084Y3986682D01*
X2624480Y3992727D01*
X2616860Y3997401D01*
X2608580Y4000652D01*
X2599791Y4002278D01*
X2590850Y4002278D01*
X2582062Y4000652D01*
X2573782Y3997401D01*
X2569514Y3994810D01*
X2566060Y3993438D01*
X2562301Y3993438D01*
X2558846Y3994810D01*
X2555189Y3997045D01*
X2546858Y4000296D01*
X2538069Y4001922D01*
X2529179Y4001922D01*
X2520391Y4000296D01*
X2512060Y3997045D01*
X2504490Y3992372D01*
X2497886Y3986326D01*
X2492502Y3979214D01*
X2488539Y3971239D01*
X2486101Y3962654D01*
X2484831Y3948176D01*
X2482443Y3944467D01*
X2391511Y3853535D01*
X2388311Y3851401D01*
X2384552Y3850589D01*
X2380792Y3851198D01*
X2377490Y3853230D01*
X2375408Y3855110D01*
X2367788Y3859834D01*
X2359507Y3863035D01*
X2350719Y3864711D01*
X2341778Y3864711D01*
X2332990Y3863035D01*
X2324709Y3859834D01*
X2317089Y3855110D01*
X2310485Y3849115D01*
X2305151Y3842004D01*
X2301138Y3833977D01*
X2299309Y3827576D01*
X2297633Y3824224D01*
X2294890Y3821684D01*
X2291435Y3820363D01*
X2287676Y3820363D01*
X2281885Y3821429D01*
X2272944Y3821429D01*
X2264156Y3819804D01*
X2255875Y3816553D01*
X2244394Y3809390D01*
X2240483Y3808780D01*
X2236673Y3809695D01*
X2233472Y3811981D01*
X2231390Y3815334D01*
X2230780Y3819245D01*
X2230882Y3822496D01*
X2231694Y3826205D01*
X2233828Y3829354D01*
X2434234Y4029760D01*
X2437485Y4033570D01*
X2440736Y4039158D01*
X2442667Y4045204D01*
X2443429Y4052062D01*
X2443429Y5703417D01*
X2444140Y5707278D01*
X2446324Y5710529D01*
X2449525Y5712764D01*
X2458262Y5716524D01*
X2469743Y5723534D01*
X2480157Y5732018D01*
X2489301Y5741822D01*
X2497074Y5752795D01*
X2503220Y5764682D01*
X2507742Y5777331D01*
X2510485Y5790488D01*
X2511399Y5803900D01*
X2510485Y5817311D01*
X2507742Y5830468D01*
X2503220Y5843117D01*
X2496972Y5855157D01*
X2495854Y5859119D01*
X2496464Y5863234D01*
X2498598Y5866739D01*
X2501950Y5869127D01*
X2506014Y5869990D01*
X2573985Y5869990D01*
X2578049Y5869127D01*
X2581402Y5866739D01*
X2583535Y5863234D01*
X2584145Y5859119D01*
X2583027Y5855157D01*
X2576779Y5843117D01*
X2572258Y5830468D01*
X2569514Y5817311D01*
X2568600Y5803900D01*
X2569514Y5790488D01*
X2572258Y5777331D01*
X2576779Y5764682D01*
X2582926Y5752795D01*
X2590698Y5741822D01*
X2599842Y5732018D01*
X2610256Y5723534D01*
X2621737Y5716524D01*
X2634030Y5711190D01*
X2646984Y5707583D01*
X2660294Y5705754D01*
X2673705Y5705754D01*
X2687015Y5707583D01*
X2699969Y5711190D01*
X2712262Y5716524D01*
X2723743Y5723534D01*
X2734157Y5732018D01*
X2743301Y5741822D01*
X2751074Y5752795D01*
X2757220Y5764682D01*
X2761742Y5777331D01*
X2764485Y5790488D01*
X2765399Y5803900D01*
X2764485Y5817311D01*
X2761742Y5830468D01*
X2757220Y5843117D01*
X2750972Y5855157D01*
X2749854Y5859119D01*
X2750464Y5863234D01*
X2752598Y5866739D01*
X2755950Y5869127D01*
X2760014Y5869990D01*
X2807716Y5869990D01*
X2811576Y5869228D01*
X2814878Y5866993D01*
X2828340Y5853582D01*
X2830474Y5850432D01*
X2831287Y5846724D01*
X2830728Y5842965D01*
X2826258Y5830468D01*
X2823514Y5817311D01*
X2822600Y5803900D01*
X2823514Y5790488D01*
X2826258Y5777331D01*
X2830779Y5764682D01*
X2836926Y5752795D01*
X2844698Y5741822D01*
X2853842Y5732018D01*
X2864256Y5723534D01*
X2875737Y5716524D01*
X2888030Y5711190D01*
X2900984Y5707583D01*
X2914294Y5705754D01*
X2927705Y5705754D01*
X2941015Y5707583D01*
X2953969Y5711190D01*
X2966262Y5716524D01*
X2977743Y5723534D01*
X2988157Y5732018D01*
X2997301Y5741822D01*
X3005074Y5752795D01*
X3011220Y5764682D01*
X3015742Y5777331D01*
X3018485Y5790488D01*
X3019399Y5803900D01*
X3018485Y5817311D01*
X3015742Y5830468D01*
X3011220Y5843117D01*
X3005074Y5855004D01*
X2997301Y5865977D01*
X2988157Y5875782D01*
X2977743Y5884265D01*
X2966262Y5891276D01*
X2953969Y5896610D01*
X2941015Y5900216D01*
X2927705Y5902045D01*
X2914294Y5902045D01*
X2900984Y5900216D01*
X2888030Y5896610D01*
X2882696Y5894273D01*
X2878785Y5893460D01*
X2874822Y5894171D01*
X2871470Y5896406D01*
X2846273Y5921603D01*
X2842463Y5924905D01*
X2836875Y5928106D01*
X2830830Y5930087D01*
X2823972Y5930798D01*
X2387498Y5930798D01*
X2382469Y5930392D01*
X2376220Y5928715D01*
X2370582Y5925870D01*
X2365197Y5921502D01*
X2270455Y5826760D01*
X2267051Y5824524D01*
X2263089Y5823762D01*
X2259076Y5824677D01*
X2255824Y5827064D01*
X2253691Y5830519D01*
X2249220Y5843117D01*
X2243074Y5855004D01*
X2235301Y5865977D01*
X2226157Y5875782D01*
X2215743Y5884265D01*
X2204262Y5891276D01*
X2191969Y5896610D01*
X2179015Y5900216D01*
X2165705Y5902045D01*
X2152294Y5902045D01*
X2138984Y5900216D01*
X2126030Y5896610D01*
X2113737Y5891276D01*
X2102256Y5884265D01*
X2091842Y5875782D01*
X2082698Y5865977D01*
X2074925Y5855004D01*
X2068779Y5843117D01*
X2064257Y5830468D01*
X2061514Y5817311D01*
X2060600Y5803900D01*
X2061514Y5790488D01*
X2064257Y5777331D01*
X2068779Y5764682D01*
X2074925Y5752795D01*
X2082698Y5741822D01*
X2091842Y5732018D01*
X2102256Y5723534D01*
X2113737Y5716524D01*
X2126030Y5711190D01*
X2138984Y5707583D01*
X2152294Y5705754D01*
X2165705Y5705754D01*
X2179015Y5707583D01*
X2191969Y5711190D01*
X2204262Y5716524D01*
X2215743Y5723534D01*
X2226157Y5732018D01*
X2235301Y5741822D01*
X2236419Y5743397D01*
X2239568Y5746242D01*
X2243582Y5747613D01*
X2247798Y5747207D01*
X2251506Y5745073D01*
X2253996Y5741670D01*
X2254859Y5737504D01*
X2254859Y5521553D01*
X2254097Y5517642D01*
X2251913Y5514390D01*
X2248611Y5512155D01*
X2244699Y5511393D01*
X2240838Y5512155D01*
X2237536Y5514390D01*
X1997659Y5754217D01*
X1995525Y5757367D01*
X1994712Y5761075D01*
X1995271Y5764834D01*
X1999742Y5777331D01*
X2002485Y5790488D01*
X2003399Y5803900D01*
X2002485Y5817311D01*
X1999742Y5830468D01*
X1995220Y5843117D01*
X1989074Y5855004D01*
X1981301Y5865977D01*
X1972157Y5875782D01*
X1961743Y5884265D01*
X1950262Y5891276D01*
X1937969Y5896610D01*
X1925015Y5900216D01*
X1911705Y5902045D01*
X1898294Y5902045D01*
X1884984Y5900216D01*
X1872030Y5896610D01*
X1859737Y5891276D01*
X1848256Y5884265D01*
X1837842Y5875782D01*
X1828698Y5865977D01*
X1820925Y5855004D01*
X1814779Y5843117D01*
X1810257Y5830468D01*
X1807514Y5817311D01*
X1806600Y5803900D01*
X1807514Y5790488D01*
X1810257Y5777331D01*
X1814779Y5764682D01*
X1820925Y5752795D01*
X1828698Y5741822D01*
X1837842Y5732018D01*
X1848256Y5723534D01*
X1859737Y5716524D01*
X1872030Y5711190D01*
X1884984Y5707583D01*
X1898294Y5705754D01*
X1911705Y5705754D01*
X1925015Y5707583D01*
X1937969Y5711190D01*
X1943303Y5713526D01*
X1947214Y5714339D01*
X1951177Y5713628D01*
X1954530Y5711393D01*
X2191156Y5474766D01*
X2193340Y5471464D01*
X2194102Y5467553D01*
X2194102Y4508500D01*
X2193239Y4504385D01*
X2190800Y4500981D01*
X2188768Y4499152D01*
X2183434Y4492040D01*
X2179421Y4484014D01*
X2176983Y4475429D01*
X2176170Y4466539D01*
X2176983Y4457700D01*
X2179421Y4449114D01*
X2183434Y4441088D01*
X2188768Y4433976D01*
X2195372Y4427982D01*
X2202992Y4423257D01*
X2211273Y4420057D01*
X2220061Y4418380D01*
X2229002Y4418380D01*
X2237790Y4420057D01*
X2241042Y4421327D01*
X2244902Y4421987D01*
X2248763Y4421174D01*
X2251964Y4418939D01*
X2254148Y4415688D01*
X2254859Y4411827D01*
X2254859Y4230624D01*
X2254097Y4226712D01*
X2251913Y4223410D01*
X2247747Y4219244D01*
X2244445Y4217060D01*
X2240534Y4216298D01*
X2235149Y4216298D01*
X2226360Y4214622D01*
X2218029Y4211421D01*
X2210460Y4206697D01*
X2203856Y4200702D01*
X2198471Y4193590D01*
X2194509Y4185564D01*
X2192070Y4176979D01*
X2191207Y4168089D01*
X2192070Y4159250D01*
X2194509Y4150664D01*
X2198471Y4142638D01*
X2203856Y4135526D01*
X2210460Y4129532D01*
X2218029Y4124807D01*
X2226360Y4121607D01*
X2235149Y4119930D01*
X2244039Y4119930D01*
X2252827Y4121607D01*
X2261158Y4124807D01*
X2268728Y4129532D01*
X2275332Y4135526D01*
X2280716Y4142638D01*
X2284679Y4150664D01*
X2287117Y4159250D01*
X2288489Y4172661D01*
X2290876Y4176420D01*
X2306523Y4192015D01*
X2309774Y4195876D01*
X2313025Y4201464D01*
X2314956Y4207510D01*
X2315718Y4214317D01*
X2315718Y5739536D01*
X2316581Y5743702D01*
X2319070Y5747105D01*
X2322779Y5749188D01*
X2326995Y5749594D01*
X2331059Y5748274D01*
X2334158Y5745378D01*
X2336698Y5741822D01*
X2345842Y5732018D01*
X2356256Y5723534D01*
X2367737Y5716524D01*
X2376474Y5712764D01*
X2379675Y5710529D01*
X2381859Y5707278D01*
X2382570Y5703417D01*
X2382570Y4068318D01*
X2381808Y4064457D01*
X2379624Y4061155D01*
X2190699Y3872229D01*
X2187397Y3869994D01*
X2183485Y3869232D01*
X2178100Y3869232D01*
X2169312Y3867607D01*
X2160981Y3864356D01*
X2153412Y3859682D01*
X2145944Y3852773D01*
X2142642Y3850741D01*
X2138832Y3850081D01*
X2135073Y3850894D01*
X2131872Y3853078D01*
X1153718Y4831232D01*
X1151483Y4834534D01*
X1150721Y4838446D01*
X1150721Y5181396D01*
X1150315Y5186375D01*
X1148638Y5192674D01*
X1145794Y5198313D01*
X1141425Y5203647D01*
X1024483Y5320588D01*
X1022350Y5323738D01*
X1021537Y5327396D01*
X1022096Y5331155D01*
X1023975Y5334406D01*
X1026921Y5336743D01*
X1036218Y5339791D01*
X1041095Y5342890D01*
X1045210Y5347004D01*
X1048308Y5351881D01*
X1050188Y5357368D01*
X1050899Y5363667D01*
X1050899Y5507532D01*
X1050188Y5513832D01*
X1048308Y5519318D01*
X1045210Y5524195D01*
X1041095Y5528310D01*
X1036218Y5531408D01*
X1030732Y5533288D01*
X1024432Y5533999D01*
X880567Y5533999D01*
X874268Y5533288D01*
X868781Y5531408D01*
X863904Y5528310D01*
X859790Y5524195D01*
X856691Y5519318D01*
X854811Y5513832D01*
X854100Y5507532D01*
X854100Y5363667D01*
X854811Y5357368D01*
X856691Y5351881D01*
X859790Y5347004D01*
X863904Y5342890D01*
X868781Y5339791D01*
X874268Y5337911D01*
X880567Y5337200D01*
X918870Y5337200D01*
X923239Y5336184D01*
X926744Y5333441D01*
X931367Y5327700D01*
X961898Y5297220D01*
X964133Y5293817D01*
X964844Y5289804D01*
X963980Y5285790D01*
X961542Y5282488D01*
X958037Y5280406D01*
X939088Y5279085D01*
X925931Y5276342D01*
X913282Y5271820D01*
X901395Y5265674D01*
X890422Y5257901D01*
X880618Y5248757D01*
X872134Y5238343D01*
X865124Y5226862D01*
X859790Y5214569D01*
X856183Y5201615D01*
X854354Y5188305D01*
X854354Y5174894D01*
X856183Y5161584D01*
X859790Y5148630D01*
X865124Y5136337D01*
X872134Y5124856D01*
X880618Y5114442D01*
X890422Y5105298D01*
X901395Y5097526D01*
X913282Y5091379D01*
X925931Y5086858D01*
X939088Y5084114D01*
X952500Y5083200D01*
X965911Y5084114D01*
X979068Y5086858D01*
X991717Y5091379D01*
X1003604Y5097526D01*
X1014577Y5105298D01*
X1024382Y5114442D01*
X1032865Y5124856D01*
X1039876Y5136337D01*
X1045210Y5148630D01*
X1048816Y5161584D01*
X1050645Y5174894D01*
X1050645Y5183886D01*
X1051407Y5187797D01*
X1053642Y5191099D01*
X1056944Y5193284D01*
X1060805Y5194046D01*
X1064717Y5193284D01*
X1068019Y5191099D01*
X1086916Y5172151D01*
X1089152Y5168849D01*
X1089914Y5164988D01*
X1089914Y4857699D01*
X1089152Y4853838D01*
X1086916Y4850536D01*
X1083665Y4848352D01*
X1079754Y4847539D01*
X1075842Y4848352D01*
X1072591Y4850536D01*
X1045006Y4878070D01*
X1042771Y4881422D01*
X1042060Y4885385D01*
X1042873Y4889296D01*
X1045210Y4894630D01*
X1048816Y4907584D01*
X1050645Y4920894D01*
X1050645Y4934305D01*
X1048816Y4947615D01*
X1045210Y4960569D01*
X1039876Y4972862D01*
X1032865Y4984343D01*
X1024382Y4994757D01*
X1014577Y5003901D01*
X1003604Y5011674D01*
X991717Y5017820D01*
X979068Y5022342D01*
X965911Y5025085D01*
X952500Y5025999D01*
X939088Y5025085D01*
X925931Y5022342D01*
X913282Y5017820D01*
X901395Y5011674D01*
X890422Y5003901D01*
X880618Y4994757D01*
X872134Y4984343D01*
X865124Y4972862D01*
X859790Y4960569D01*
X856183Y4947615D01*
X854354Y4934305D01*
X854354Y4920894D01*
X856183Y4907584D01*
X859790Y4894630D01*
X865124Y4882337D01*
X872134Y4870856D01*
X880618Y4860442D01*
X890422Y4851298D01*
X901395Y4843526D01*
X913282Y4837379D01*
X925931Y4832858D01*
X939088Y4830114D01*
X952500Y4829200D01*
X965911Y4830114D01*
X979068Y4832858D01*
X991565Y4837328D01*
X995324Y4837887D01*
X999032Y4837074D01*
X1002182Y4834940D01*
X2037689Y3799382D01*
X2039924Y3796029D01*
X2040686Y3792118D01*
X2039874Y3788206D01*
X2037588Y3784904D01*
X2034184Y3782720D01*
X2030272Y3781196D01*
X2022703Y3776522D01*
X2016099Y3770477D01*
X2010714Y3763365D01*
X2006752Y3755390D01*
X2004314Y3746804D01*
X2003450Y3737914D01*
X2004314Y3729024D01*
X2006752Y3720439D01*
X2010714Y3712464D01*
X2014575Y3707333D01*
X2016404Y3703370D01*
X2016404Y3699052D01*
X2014575Y3695090D01*
X2010918Y3690264D01*
X2006955Y3682237D01*
X2004517Y3673652D01*
X2003653Y3664762D01*
X2004517Y3655923D01*
X2006955Y3647338D01*
X2010918Y3639312D01*
X2016302Y3632200D01*
X2022906Y3626205D01*
X2030475Y3621481D01*
X2038807Y3618280D01*
X2047595Y3616604D01*
X2056485Y3616604D01*
X2065274Y3618280D01*
X2073605Y3621481D01*
X2081174Y3626205D01*
X2087778Y3632200D01*
X2093163Y3639312D01*
X2097125Y3647338D01*
X2099564Y3655923D01*
X2100427Y3664762D01*
X2099564Y3673652D01*
X2097125Y3682237D01*
X2093163Y3690264D01*
X2089302Y3695344D01*
X2087473Y3699306D01*
X2087473Y3703675D01*
X2089302Y3707587D01*
X2092960Y3712464D01*
X2097176Y3720947D01*
X2099513Y3723995D01*
X2102815Y3725976D01*
X2106574Y3726586D01*
X2110333Y3725773D01*
X2113483Y3723640D01*
X2121204Y3715867D01*
X2125065Y3712616D01*
X2130653Y3709365D01*
X2136698Y3707434D01*
X2143556Y3706672D01*
X2220163Y3706672D01*
X2224024Y3705910D01*
X2227326Y3703726D01*
X2229510Y3700424D01*
X2230323Y3696512D01*
X2229510Y3692651D01*
X2227326Y3689350D01*
X1085951Y2547975D01*
X1082649Y2545791D01*
X1078788Y2545029D01*
X1065682Y2545029D01*
X1061821Y2545740D01*
X1058570Y2547924D01*
X1056335Y2551125D01*
X1052576Y2559862D01*
X1045565Y2571343D01*
X1037082Y2581757D01*
X1027277Y2590901D01*
X1016304Y2598674D01*
X1004417Y2604820D01*
X991768Y2609342D01*
X978611Y2612085D01*
X965200Y2612999D01*
X951788Y2612085D01*
X938631Y2609342D01*
X925982Y2604820D01*
X914095Y2598674D01*
X903122Y2590901D01*
X893318Y2581757D01*
X884834Y2571343D01*
X877824Y2559862D01*
X872490Y2547569D01*
X868883Y2534615D01*
X867054Y2521305D01*
X867054Y2507894D01*
X868883Y2494584D01*
X872490Y2481630D01*
X877824Y2469337D01*
X884834Y2457856D01*
X893318Y2447442D01*
X903122Y2438298D01*
X914095Y2430526D01*
X925982Y2424379D01*
X938631Y2419858D01*
X951788Y2417114D01*
X965200Y2416200D01*
X978611Y2417114D01*
X991768Y2419858D01*
X1004417Y2424379D01*
X1016304Y2430526D01*
X1027277Y2438298D01*
X1037082Y2447442D01*
X1045565Y2457856D01*
X1052576Y2469337D01*
X1056335Y2478074D01*
X1058570Y2481275D01*
X1061821Y2483459D01*
X1065682Y2484170D01*
X1095197Y2484170D01*
X1100175Y2484577D01*
X1106474Y2486253D01*
X1112113Y2489149D01*
X1117447Y2493467D01*
X2526588Y3902608D01*
X2529890Y3904843D01*
X2533802Y3905605D01*
X2538069Y3905605D01*
X2541625Y3906265D01*
X2545892Y3906164D01*
X2549753Y3904284D01*
X2552496Y3901033D01*
X2553665Y3896918D01*
X2553004Y3892702D01*
X2550718Y3889095D01*
X1014882Y2353259D01*
X1011732Y2351125D01*
X1008024Y2350312D01*
X1004265Y2350871D01*
X991768Y2355342D01*
X978611Y2358085D01*
X965200Y2358999D01*
X951788Y2358085D01*
X938631Y2355342D01*
X925982Y2350820D01*
X914095Y2344674D01*
X903122Y2336901D01*
X893318Y2327757D01*
X884834Y2317343D01*
X877824Y2305862D01*
X872490Y2293569D01*
X868883Y2280615D01*
X867054Y2267305D01*
X867054Y2253894D01*
X868883Y2240584D01*
X872490Y2227630D01*
X877824Y2215337D01*
X884834Y2203856D01*
X893318Y2193442D01*
X903122Y2184298D01*
X914095Y2176526D01*
X925982Y2170379D01*
X938631Y2165858D01*
X951788Y2163114D01*
X965200Y2162200D01*
X978611Y2163114D01*
X991768Y2165858D01*
X1004417Y2170379D01*
X1016304Y2176526D01*
X1027277Y2184298D01*
X1037082Y2193442D01*
X1045565Y2203856D01*
X1052576Y2215337D01*
X1057910Y2227630D01*
X1061516Y2240584D01*
X1063345Y2253894D01*
X1063345Y2267305D01*
X1061516Y2280615D01*
X1057910Y2293569D01*
X1055573Y2298903D01*
X1054760Y2302814D01*
X1055471Y2306777D01*
X1057706Y2310130D01*
X2015083Y3267506D01*
X2018284Y3269640D01*
X2022043Y3270453D01*
X2025853Y3269792D01*
X2029104Y3267811D01*
X2032152Y3265017D01*
X2039772Y3260344D01*
X2048052Y3257092D01*
X2056841Y3255467D01*
X2065782Y3255467D01*
X2074570Y3257092D01*
X2082850Y3260344D01*
X2090470Y3265017D01*
X2097074Y3271062D01*
X2102459Y3278174D01*
X2106422Y3286150D01*
X2108860Y3294735D01*
X2109673Y3303625D01*
X2108860Y3312515D01*
X2106422Y3321100D01*
X2102459Y3329076D01*
X2096668Y3336696D01*
X2095042Y3339947D01*
X2094636Y3343503D01*
X2095550Y3347008D01*
X2097633Y3350006D01*
X2616555Y3868928D01*
X2619806Y3872788D01*
X2623058Y3878376D01*
X2624988Y3884422D01*
X2625750Y3891229D01*
X2625750Y3912209D01*
X2626614Y3916273D01*
X2629052Y3919677D01*
X2631084Y3921556D01*
X2634234Y3925722D01*
X2637028Y3928262D01*
X2640482Y3929583D01*
X2644241Y3929583D01*
X2647696Y3928262D01*
X2650439Y3925722D01*
X2653842Y3921251D01*
X2655874Y3919372D01*
X2658313Y3915968D01*
X2659176Y3911904D01*
X2659176Y3747820D01*
X2658414Y3743909D01*
X2656230Y3740607D01*
X1014882Y2099259D01*
X1011732Y2097125D01*
X1008024Y2096312D01*
X1004265Y2096871D01*
X991768Y2101342D01*
X978611Y2104085D01*
X965200Y2104999D01*
X951788Y2104085D01*
X938631Y2101342D01*
X925982Y2096820D01*
X914095Y2090674D01*
X903122Y2082901D01*
X893318Y2073757D01*
X884834Y2063343D01*
X877824Y2051862D01*
X872490Y2039569D01*
X868883Y2026615D01*
X867054Y2013305D01*
X867054Y1999894D01*
X868883Y1986584D01*
X872490Y1973630D01*
X877824Y1961337D01*
X884834Y1949856D01*
X893318Y1939442D01*
X903122Y1930298D01*
X914095Y1922525D01*
X925982Y1916379D01*
X938631Y1911857D01*
X951788Y1909114D01*
G37*
G36*
X3185718Y2205482D02*
G01*
X3342081Y2205482D01*
X3348380Y2206193D01*
X3353866Y2208123D01*
X3358743Y2211171D01*
X3362858Y2215286D01*
X3365906Y2220163D01*
X3367836Y2225649D01*
X3368548Y2231948D01*
X3368548Y2390851D01*
X3367836Y2397150D01*
X3365906Y2402636D01*
X3362858Y2407513D01*
X3358743Y2411628D01*
X3353866Y2414676D01*
X3348380Y2416606D01*
X3342081Y2417318D01*
X3304489Y2417318D01*
X3300577Y2418080D01*
X3297275Y2420264D01*
X3295091Y2423566D01*
X3294329Y2427478D01*
X3294329Y2830626D01*
X3293922Y2835656D01*
X3292246Y2841904D01*
X3289350Y2847543D01*
X3285032Y2852928D01*
X3262020Y2875940D01*
X3259785Y2879242D01*
X3259023Y2883103D01*
X3259785Y2887014D01*
X3262020Y2890316D01*
X3265271Y2892501D01*
X3269183Y2893263D01*
X3786886Y2893263D01*
X3791915Y2893669D01*
X3798163Y2895346D01*
X3803802Y2898241D01*
X3809187Y2902559D01*
X4230217Y3323640D01*
X4233367Y3325774D01*
X4237075Y3326587D01*
X4240834Y3326028D01*
X4253331Y3321558D01*
X4266488Y3318814D01*
X4279900Y3317900D01*
X4293311Y3318814D01*
X4306468Y3321558D01*
X4319117Y3326079D01*
X4331004Y3332226D01*
X4341977Y3339998D01*
X4351782Y3349142D01*
X4360265Y3359556D01*
X4367276Y3371037D01*
X4372610Y3383330D01*
X4376216Y3396284D01*
X4378045Y3409594D01*
X4378045Y3423005D01*
X4376216Y3436315D01*
X4372610Y3449269D01*
X4367276Y3461562D01*
X4360265Y3473043D01*
X4351782Y3483457D01*
X4341977Y3492601D01*
X4331004Y3500374D01*
X4319117Y3506520D01*
X4306468Y3511042D01*
X4293311Y3513785D01*
X4279900Y3514699D01*
X4266488Y3513785D01*
X4253331Y3511042D01*
X4240682Y3506520D01*
X4228795Y3500374D01*
X4217822Y3492601D01*
X4208018Y3483457D01*
X4199534Y3473043D01*
X4192524Y3461562D01*
X4187190Y3449269D01*
X4183583Y3436315D01*
X4181754Y3423005D01*
X4181754Y3409594D01*
X4183583Y3396284D01*
X4187190Y3383330D01*
X4189526Y3377996D01*
X4190339Y3374085D01*
X4189628Y3370122D01*
X4187393Y3366770D01*
X3777691Y2957068D01*
X3774389Y2954883D01*
X3770477Y2954121D01*
X3265220Y2954121D01*
X3261512Y2954782D01*
X3258362Y2956763D01*
X3252266Y2962300D01*
X3244697Y2966974D01*
X3236366Y2970225D01*
X3227578Y2971850D01*
X3218688Y2971850D01*
X3209899Y2970225D01*
X3201568Y2966974D01*
X3193999Y2962300D01*
X3191560Y2960065D01*
X3188258Y2958084D01*
X3184499Y2957423D01*
X3180740Y2958236D01*
X3177540Y2960420D01*
X3074568Y3063392D01*
X3072180Y3067100D01*
X3070809Y3080562D01*
X3068370Y3089148D01*
X3064408Y3097123D01*
X3059023Y3104235D01*
X3052419Y3110280D01*
X3044799Y3114954D01*
X3036519Y3118205D01*
X3027730Y3119831D01*
X3018790Y3119831D01*
X3010001Y3118205D01*
X3001721Y3114954D01*
X2994101Y3110280D01*
X2987497Y3104235D01*
X2982163Y3097123D01*
X2978150Y3089148D01*
X2975711Y3080562D01*
X2974898Y3071672D01*
X2975711Y3062782D01*
X2978150Y3054197D01*
X2982163Y3046222D01*
X2987497Y3039110D01*
X2994101Y3033064D01*
X3001721Y3028391D01*
X3010001Y3025140D01*
X3018790Y3023514D01*
X3024225Y3023514D01*
X3028086Y3022752D01*
X3031388Y3020517D01*
X3230524Y2821432D01*
X3232708Y2818130D01*
X3233470Y2814218D01*
X3233470Y2427478D01*
X3232708Y2423566D01*
X3230524Y2420264D01*
X3227222Y2418080D01*
X3223310Y2417318D01*
X3185718Y2417318D01*
X3179419Y2416606D01*
X3173933Y2414676D01*
X3169056Y2411628D01*
X3164941Y2407513D01*
X3161893Y2402636D01*
X3159963Y2397150D01*
X3159252Y2390851D01*
X3159252Y2231948D01*
X3159963Y2225649D01*
X3161893Y2220163D01*
X3164941Y2215286D01*
X3169056Y2211171D01*
X3173933Y2208123D01*
X3179419Y2206193D01*
G37*
G36*
X3517900Y2205532D02*
G01*
X3531717Y2206396D01*
X3545281Y2209139D01*
X3558438Y2213559D01*
X3570833Y2219706D01*
X3582365Y2227376D01*
X3592779Y2236520D01*
X3601923Y2246934D01*
X3609594Y2258466D01*
X3615740Y2270861D01*
X3620160Y2284018D01*
X3622903Y2297582D01*
X3623767Y2311400D01*
X3622903Y2325217D01*
X3620160Y2338781D01*
X3615740Y2351938D01*
X3609594Y2364333D01*
X3601923Y2375865D01*
X3592779Y2386279D01*
X3582365Y2395423D01*
X3570833Y2403094D01*
X3558438Y2409240D01*
X3545281Y2413660D01*
X3531717Y2416403D01*
X3517900Y2417267D01*
X3504082Y2416403D01*
X3490518Y2413660D01*
X3477361Y2409240D01*
X3464966Y2403094D01*
X3453434Y2395423D01*
X3443020Y2386279D01*
X3433876Y2375865D01*
X3426206Y2364333D01*
X3420059Y2351938D01*
X3415639Y2338781D01*
X3412896Y2325217D01*
X3412032Y2311400D01*
X3412896Y2297582D01*
X3415639Y2284018D01*
X3420059Y2270861D01*
X3426206Y2258466D01*
X3433876Y2246934D01*
X3443020Y2236520D01*
X3453434Y2227376D01*
X3464966Y2219706D01*
X3477361Y2213559D01*
X3490518Y2209139D01*
X3504082Y2206396D01*
G37*
G36*
X3725570Y2216454D02*
G01*
X3725570Y2265070D01*
X3676954Y2265070D01*
X3680206Y2258466D01*
X3687876Y2246934D01*
X3697020Y2236520D01*
X3707434Y2227376D01*
X3718966Y2219706D01*
G37*
G36*
X3818229Y2216454D02*
G01*
X3824833Y2219706D01*
X3836365Y2227376D01*
X3846779Y2236520D01*
X3855923Y2246934D01*
X3863594Y2258466D01*
X3866845Y2265070D01*
X3818229Y2265070D01*
G37*
G36*
X3676954Y2357729D02*
G01*
X3725570Y2357729D01*
X3725570Y2406345D01*
X3718966Y2403094D01*
X3707434Y2395423D01*
X3697020Y2386279D01*
X3687876Y2375865D01*
X3680206Y2364333D01*
G37*
G36*
X3818229Y2357729D02*
G01*
X3866845Y2357729D01*
X3863594Y2364333D01*
X3855923Y2375865D01*
X3846779Y2386279D01*
X3836365Y2395423D01*
X3824833Y2403094D01*
X3818229Y2406345D01*
G37*
G36*
X6385712Y2588615D02*
G01*
X6394602Y2588615D01*
X6403390Y2590292D01*
X6411722Y2593492D01*
X6419291Y2598216D01*
X6425895Y2604211D01*
X6431280Y2611323D01*
X6435242Y2619349D01*
X6437680Y2627934D01*
X6438544Y2636774D01*
X6437680Y2645664D01*
X6435242Y2654249D01*
X6431280Y2662275D01*
X6425895Y2669387D01*
X6419291Y2675382D01*
X6411722Y2680106D01*
X6403390Y2683306D01*
X6394602Y2684983D01*
X6389217Y2684983D01*
X6385306Y2685745D01*
X6382004Y2687929D01*
X6356096Y2713888D01*
X6353860Y2717190D01*
X6353098Y2721051D01*
X6353098Y2844038D01*
X6353860Y2847949D01*
X6356096Y2851251D01*
X6359398Y2853436D01*
X6372758Y2855874D01*
X6381038Y2859074D01*
X6388658Y2863799D01*
X6395262Y2869793D01*
X6400647Y2876905D01*
X6404610Y2884932D01*
X6407048Y2893517D01*
X6408420Y2906928D01*
X6410807Y2910687D01*
X7612278Y4112158D01*
X7615580Y4116019D01*
X7618780Y4121607D01*
X7620762Y4127652D01*
X7621473Y4134459D01*
X7621473Y4810658D01*
X7622336Y4814773D01*
X7624775Y4818176D01*
X7626807Y4820005D01*
X7632192Y4827117D01*
X7636154Y4835144D01*
X7638592Y4843729D01*
X7639456Y4852568D01*
X7638592Y4861458D01*
X7636154Y4870043D01*
X7632192Y4878070D01*
X7626807Y4885182D01*
X7620203Y4891176D01*
X7612634Y4895900D01*
X7604302Y4899101D01*
X7595514Y4900777D01*
X7586624Y4900777D01*
X7577836Y4899101D01*
X7569504Y4895900D01*
X7561935Y4891176D01*
X7555331Y4885182D01*
X7549946Y4878070D01*
X7545984Y4870043D01*
X7543546Y4861458D01*
X7542885Y4854448D01*
X7541869Y4850841D01*
X7539583Y4847844D01*
X7536434Y4845913D01*
X7533081Y4844592D01*
X7525512Y4839919D01*
X7518908Y4833874D01*
X7513523Y4826762D01*
X7509560Y4818786D01*
X7507122Y4810201D01*
X7505750Y4796739D01*
X7503363Y4793030D01*
X6138265Y3427933D01*
X6135014Y3424123D01*
X6131763Y3418484D01*
X6129832Y3412490D01*
X6129070Y3405632D01*
X6129070Y3255010D01*
X6128207Y3250946D01*
X6125768Y3247542D01*
X6123736Y3245662D01*
X6118402Y3238550D01*
X6114389Y3230575D01*
X6111951Y3221990D01*
X6110579Y3208528D01*
X6108192Y3204819D01*
X5899962Y2996590D01*
X5896660Y2994355D01*
X5892800Y2993593D01*
X5879896Y2993593D01*
X5876239Y2994304D01*
X5873038Y2996234D01*
X5866993Y3001772D01*
X5859373Y3006496D01*
X5851093Y3009696D01*
X5842304Y3011373D01*
X5833364Y3011373D01*
X5824575Y3009696D01*
X5816295Y3006496D01*
X5808675Y3001772D01*
X5802071Y2995777D01*
X5796737Y2988665D01*
X5792724Y2980639D01*
X5790285Y2972054D01*
X5789472Y2963164D01*
X5790285Y2954324D01*
X5792724Y2945739D01*
X5796737Y2937713D01*
X5802071Y2930601D01*
X5808675Y2924606D01*
X5816295Y2919882D01*
X5824575Y2916682D01*
X5833364Y2915005D01*
X5842304Y2915005D01*
X5851093Y2916682D01*
X5859373Y2919882D01*
X5866993Y2924606D01*
X5873038Y2930144D01*
X5876239Y2932074D01*
X5879896Y2932785D01*
X5909208Y2932785D01*
X5914186Y2933192D01*
X5920486Y2934868D01*
X5926124Y2937713D01*
X5931458Y2942082D01*
X6151372Y3161944D01*
X6154674Y3164179D01*
X6158534Y3164941D01*
X6163970Y3164941D01*
X6172758Y3166567D01*
X6174232Y3167126D01*
X6178245Y3167837D01*
X6182258Y3166872D01*
X6185509Y3164382D01*
X6187541Y3160826D01*
X6187998Y3156762D01*
X6187338Y3149600D01*
X6188151Y3140710D01*
X6190589Y3132124D01*
X6194602Y3124149D01*
X6199936Y3117037D01*
X6206540Y3110992D01*
X6214160Y3106318D01*
X6222441Y3103067D01*
X6231229Y3101441D01*
X6240170Y3101441D01*
X6248958Y3103067D01*
X6257239Y3106318D01*
X6264859Y3110992D01*
X6271463Y3117037D01*
X6274003Y3120440D01*
X6277203Y3123184D01*
X6281216Y3124454D01*
X6285382Y3123946D01*
X6288989Y3121812D01*
X6291427Y3118408D01*
X6292291Y3114294D01*
X6292291Y2704642D01*
X6292697Y2699664D01*
X6294374Y2693365D01*
X6297218Y2687726D01*
X6301587Y2682392D01*
X6338874Y2645105D01*
X6341262Y2641346D01*
X6342634Y2627934D01*
X6345072Y2619349D01*
X6349034Y2611323D01*
X6354419Y2604211D01*
X6361023Y2598216D01*
X6368592Y2593492D01*
X6376924Y2590292D01*
G37*
G36*
X893267Y2670200D02*
G01*
X1037132Y2670200D01*
X1043432Y2670911D01*
X1048918Y2672791D01*
X1053795Y2675890D01*
X1057910Y2680004D01*
X1061008Y2684881D01*
X1062888Y2690368D01*
X1063599Y2696667D01*
X1063599Y2840532D01*
X1062888Y2846832D01*
X1061008Y2852318D01*
X1057910Y2857195D01*
X1053795Y2861310D01*
X1048918Y2864408D01*
X1039621Y2867456D01*
X1036675Y2869793D01*
X1034796Y2873044D01*
X1034237Y2876804D01*
X1035050Y2880461D01*
X1037183Y2883611D01*
X1858670Y3705047D01*
X1861921Y3708908D01*
X1865172Y3714496D01*
X1867103Y3720541D01*
X1867865Y3727348D01*
X1867865Y3743096D01*
X1868728Y3747160D01*
X1871167Y3750564D01*
X1873199Y3752443D01*
X1878584Y3759555D01*
X1882546Y3767531D01*
X1884984Y3776116D01*
X1885797Y3785006D01*
X1884984Y3793896D01*
X1882546Y3802481D01*
X1878584Y3810457D01*
X1873199Y3817569D01*
X1866595Y3823614D01*
X1858975Y3828287D01*
X1850694Y3831539D01*
X1841906Y3833164D01*
X1832965Y3833164D01*
X1824177Y3831539D01*
X1815896Y3828287D01*
X1808276Y3823614D01*
X1801672Y3817569D01*
X1796338Y3810457D01*
X1792325Y3802481D01*
X1789887Y3793896D01*
X1789074Y3785006D01*
X1789887Y3776116D01*
X1792325Y3767531D01*
X1796338Y3759555D01*
X1801672Y3752443D01*
X1803400Y3750868D01*
X1805838Y3747566D01*
X1806752Y3743604D01*
X1805990Y3739540D01*
X1803755Y3736136D01*
X944067Y2876499D01*
X939444Y2870758D01*
X935939Y2868015D01*
X931570Y2866999D01*
X893267Y2866999D01*
X886968Y2866288D01*
X881481Y2864408D01*
X876604Y2861310D01*
X872490Y2857195D01*
X869391Y2852318D01*
X867511Y2846832D01*
X866800Y2840532D01*
X866800Y2696667D01*
X867511Y2690368D01*
X869391Y2684881D01*
X872490Y2680004D01*
X876604Y2675890D01*
X881481Y2672791D01*
X886968Y2670911D01*
G37*
G36*
X4986223Y2693670D02*
G01*
X4995164Y2693670D01*
X5003952Y2695295D01*
X5012232Y2698546D01*
X5019852Y2703220D01*
X5026456Y2709265D01*
X5031841Y2716377D01*
X5035804Y2724353D01*
X5038242Y2732938D01*
X5039055Y2741828D01*
X5038242Y2750718D01*
X5035804Y2759303D01*
X5031841Y2767279D01*
X5026456Y2774391D01*
X5024424Y2776220D01*
X5021986Y2779623D01*
X5021122Y2783738D01*
X5021122Y2955544D01*
X5021884Y2959404D01*
X5024120Y2962706D01*
X5846927Y3785514D01*
X5850229Y3787749D01*
X5854090Y3788511D01*
X5887059Y3788511D01*
X5890717Y3787800D01*
X5893917Y3785870D01*
X5899962Y3780332D01*
X5907582Y3775608D01*
X5915863Y3772408D01*
X5924651Y3770731D01*
X5933592Y3770731D01*
X5942380Y3772408D01*
X5950661Y3775608D01*
X5958281Y3780332D01*
X5964885Y3786327D01*
X5970270Y3793439D01*
X5974232Y3801465D01*
X5976670Y3810050D01*
X5977483Y3818890D01*
X5976670Y3827779D01*
X5974232Y3836365D01*
X5970270Y3844391D01*
X5964885Y3851503D01*
X5960262Y3855720D01*
X5957824Y3859123D01*
X5956960Y3863187D01*
X5957824Y3867302D01*
X5960262Y3870706D01*
X5963920Y3874058D01*
X5969304Y3881170D01*
X5973267Y3889146D01*
X5975705Y3897731D01*
X5976518Y3906621D01*
X5975705Y3915511D01*
X5973267Y3924096D01*
X5969304Y3932072D01*
X5963920Y3939184D01*
X5957316Y3945229D01*
X5949696Y3949903D01*
X5941415Y3953154D01*
X5932627Y3954779D01*
X5923686Y3954779D01*
X5914898Y3953154D01*
X5906617Y3949903D01*
X5898997Y3945229D01*
X5892393Y3939184D01*
X5891326Y3937762D01*
X5887923Y3934866D01*
X5882589Y3932123D01*
X5877204Y3927754D01*
X5843676Y3894226D01*
X5840526Y3892092D01*
X5836716Y3891279D01*
X5832957Y3891889D01*
X5829655Y3893921D01*
X5827166Y3896207D01*
X5819546Y3900881D01*
X5811266Y3904132D01*
X5802477Y3905758D01*
X5793536Y3905758D01*
X5784748Y3904132D01*
X5776468Y3900881D01*
X5768848Y3896207D01*
X5762802Y3890670D01*
X5759602Y3888689D01*
X5755944Y3888028D01*
X5672632Y3888028D01*
X5667654Y3887622D01*
X5661355Y3885946D01*
X5655716Y3883050D01*
X5650382Y3878732D01*
X5647080Y3875430D01*
X5643676Y3873195D01*
X5639663Y3872433D01*
X5635701Y3873347D01*
X5632399Y3875684D01*
X5630316Y3879189D01*
X5629757Y3883202D01*
X5630773Y3887114D01*
X5634482Y3894582D01*
X5636920Y3903167D01*
X5637784Y3912057D01*
X5636920Y3920947D01*
X5634482Y3929532D01*
X5630519Y3937508D01*
X5625134Y3944620D01*
X5623102Y3946499D01*
X5620664Y3949903D01*
X5619800Y3953967D01*
X5619800Y4300372D01*
X5620562Y4304284D01*
X5622798Y4307535D01*
X5626100Y4309770D01*
X5629960Y4310532D01*
X5631942Y4310532D01*
X5640730Y4312158D01*
X5649010Y4315409D01*
X5656630Y4320082D01*
X5663234Y4326128D01*
X5668619Y4333240D01*
X5672582Y4341215D01*
X5675020Y4349800D01*
X5675833Y4358690D01*
X5675020Y4367580D01*
X5672582Y4376166D01*
X5668619Y4384141D01*
X5663234Y4391253D01*
X5656630Y4397298D01*
X5649010Y4401972D01*
X5640730Y4405223D01*
X5631942Y4406849D01*
X5623001Y4406849D01*
X5614212Y4405223D01*
X5605932Y4401972D01*
X5598312Y4397298D01*
X5591708Y4391253D01*
X5586374Y4384141D01*
X5582361Y4376166D01*
X5579922Y4367580D01*
X5578551Y4354118D01*
X5576214Y4350410D01*
X5568188Y4342384D01*
X5564936Y4338574D01*
X5561685Y4332986D01*
X5559704Y4326940D01*
X5558993Y4320082D01*
X5558993Y3953967D01*
X5558129Y3949903D01*
X5555691Y3946499D01*
X5553659Y3944620D01*
X5548274Y3937508D01*
X5544312Y3929532D01*
X5541873Y3920947D01*
X5541010Y3912057D01*
X5541873Y3903167D01*
X5544312Y3894582D01*
X5548274Y3886606D01*
X5553659Y3879494D01*
X5560263Y3873449D01*
X5567832Y3868775D01*
X5576163Y3865524D01*
X5584952Y3863898D01*
X5593842Y3863898D01*
X5602630Y3865524D01*
X5610961Y3868775D01*
X5613857Y3870553D01*
X5617768Y3871976D01*
X5621985Y3871671D01*
X5625693Y3869740D01*
X5628284Y3866438D01*
X5629351Y3862374D01*
X5628690Y3858260D01*
X5626354Y3854704D01*
X4806492Y3034842D01*
X4803190Y3032658D01*
X4799330Y3031896D01*
X4793894Y3031896D01*
X4785106Y3030220D01*
X4776825Y3027019D01*
X4769205Y3022295D01*
X4762601Y3016300D01*
X4757267Y3009188D01*
X4753254Y3001162D01*
X4750816Y2992577D01*
X4750003Y2983687D01*
X4750816Y2974848D01*
X4753254Y2966262D01*
X4757267Y2958236D01*
X4762601Y2951124D01*
X4769205Y2945130D01*
X4773980Y2942183D01*
X4776978Y2939338D01*
X4778603Y2935579D01*
X4778603Y2931464D01*
X4776978Y2927705D01*
X4773980Y2924911D01*
X4769815Y2922320D01*
X4763211Y2916275D01*
X4757826Y2909163D01*
X4753864Y2901188D01*
X4751425Y2892602D01*
X4750562Y2883712D01*
X4751425Y2874822D01*
X4753864Y2866237D01*
X4757826Y2858262D01*
X4763211Y2851150D01*
X4769815Y2845104D01*
X4777384Y2840431D01*
X4785715Y2837180D01*
X4794504Y2835554D01*
X4803394Y2835554D01*
X4816043Y2837840D01*
X4819853Y2836976D01*
X4823053Y2834792D01*
X4825187Y2831490D01*
X4825898Y2827680D01*
X4825898Y2789834D01*
X4825034Y2785770D01*
X4822596Y2782366D01*
X4820564Y2780487D01*
X4815230Y2773375D01*
X4811217Y2765399D01*
X4808778Y2756814D01*
X4807966Y2747924D01*
X4808778Y2739034D01*
X4811217Y2730449D01*
X4815230Y2722473D01*
X4820564Y2715361D01*
X4827168Y2709316D01*
X4834788Y2704642D01*
X4843068Y2701391D01*
X4851857Y2699766D01*
X4860798Y2699766D01*
X4869586Y2701391D01*
X4877866Y2704642D01*
X4885486Y2709316D01*
X4892090Y2715361D01*
X4897475Y2722473D01*
X4901438Y2730449D01*
X4903876Y2739034D01*
X4904689Y2747924D01*
X4903876Y2756814D01*
X4901438Y2765399D01*
X4897475Y2773375D01*
X4892090Y2780487D01*
X4890058Y2782366D01*
X4887620Y2785770D01*
X4886756Y2789834D01*
X4886756Y2847086D01*
X4887518Y2850946D01*
X4889703Y2854248D01*
X4942992Y2907487D01*
X4946243Y2909722D01*
X4950155Y2910484D01*
X4954066Y2909722D01*
X4957318Y2907487D01*
X4959553Y2904236D01*
X4960315Y2900324D01*
X4960315Y2783789D01*
X4959451Y2779674D01*
X4957013Y2776270D01*
X4954930Y2774391D01*
X4949596Y2767279D01*
X4945583Y2759303D01*
X4943144Y2750718D01*
X4942332Y2741828D01*
X4943144Y2732938D01*
X4945583Y2724353D01*
X4949596Y2716377D01*
X4954930Y2709265D01*
X4961534Y2703220D01*
X4969154Y2698546D01*
X4977434Y2695295D01*
G37*
G36*
X4279900Y2809900D02*
G01*
X4293311Y2810814D01*
X4306468Y2813558D01*
X4319117Y2818079D01*
X4331004Y2824226D01*
X4341977Y2831998D01*
X4351782Y2841142D01*
X4360265Y2851556D01*
X4367276Y2863037D01*
X4372610Y2875330D01*
X4376216Y2888284D01*
X4378045Y2901594D01*
X4378045Y2915005D01*
X4376216Y2928315D01*
X4372610Y2941269D01*
X4367276Y2953562D01*
X4360265Y2965043D01*
X4351782Y2975457D01*
X4341977Y2984601D01*
X4331004Y2992374D01*
X4319117Y2998520D01*
X4306468Y3003042D01*
X4293311Y3005785D01*
X4279900Y3006699D01*
X4266488Y3005785D01*
X4253331Y3003042D01*
X4240682Y2998520D01*
X4228795Y2992374D01*
X4217822Y2984601D01*
X4208018Y2975457D01*
X4199534Y2965043D01*
X4192524Y2953562D01*
X4187190Y2941269D01*
X4183583Y2928315D01*
X4181754Y2915005D01*
X4181754Y2901594D01*
X4183583Y2888284D01*
X4187190Y2875330D01*
X4192524Y2863037D01*
X4199534Y2851556D01*
X4208018Y2841142D01*
X4217822Y2831998D01*
X4228795Y2824226D01*
X4240682Y2818079D01*
X4253331Y2813558D01*
X4266488Y2810814D01*
G37*
G36*
X952500Y3051200D02*
G01*
X965911Y3052114D01*
X979068Y3054858D01*
X991717Y3059379D01*
X1003604Y3065526D01*
X1014577Y3073298D01*
X1024382Y3082442D01*
X1032865Y3092856D01*
X1039876Y3104337D01*
X1045210Y3116630D01*
X1048816Y3129584D01*
X1050645Y3142894D01*
X1050645Y3156305D01*
X1048816Y3169615D01*
X1045210Y3182569D01*
X1039876Y3194862D01*
X1032865Y3206343D01*
X1024382Y3216757D01*
X1014577Y3225901D01*
X1003604Y3233674D01*
X991717Y3239820D01*
X979068Y3244342D01*
X965911Y3247085D01*
X952500Y3247999D01*
X939088Y3247085D01*
X925931Y3244342D01*
X913282Y3239820D01*
X901395Y3233674D01*
X890422Y3225901D01*
X880618Y3216757D01*
X872134Y3206343D01*
X865124Y3194862D01*
X859790Y3182569D01*
X856183Y3169615D01*
X854354Y3156305D01*
X854354Y3142894D01*
X856183Y3129584D01*
X859790Y3116630D01*
X865124Y3104337D01*
X872134Y3092856D01*
X880618Y3082442D01*
X890422Y3073298D01*
X901395Y3065526D01*
X913282Y3059379D01*
X925931Y3054858D01*
X939088Y3052114D01*
G37*
G36*
X4279900Y3063900D02*
G01*
X4293311Y3064814D01*
X4306468Y3067558D01*
X4319117Y3072079D01*
X4331004Y3078226D01*
X4341977Y3085998D01*
X4351782Y3095142D01*
X4360265Y3105556D01*
X4367276Y3117037D01*
X4372610Y3129330D01*
X4376216Y3142284D01*
X4378045Y3155594D01*
X4378045Y3169005D01*
X4376216Y3182315D01*
X4372610Y3195269D01*
X4367276Y3207562D01*
X4360265Y3219043D01*
X4351782Y3229457D01*
X4341977Y3238601D01*
X4331004Y3246374D01*
X4319117Y3252520D01*
X4306468Y3257042D01*
X4293311Y3259785D01*
X4279900Y3260699D01*
X4266488Y3259785D01*
X4253331Y3257042D01*
X4240682Y3252520D01*
X4228795Y3246374D01*
X4217822Y3238601D01*
X4208018Y3229457D01*
X4199534Y3219043D01*
X4192524Y3207562D01*
X4187190Y3195269D01*
X4183583Y3182315D01*
X4181754Y3169005D01*
X4181754Y3155594D01*
X4183583Y3142284D01*
X4187190Y3129330D01*
X4192524Y3117037D01*
X4199534Y3105556D01*
X4208018Y3095142D01*
X4217822Y3085998D01*
X4228795Y3078226D01*
X4240682Y3072079D01*
X4253331Y3067558D01*
X4266488Y3064814D01*
G37*
G36*
X3187242Y3220516D02*
G01*
X3196183Y3220516D01*
X3204972Y3222193D01*
X3213252Y3225393D01*
X3220872Y3230118D01*
X3226917Y3235655D01*
X3230118Y3237585D01*
X3233775Y3238296D01*
X3623919Y3238296D01*
X3628898Y3238703D01*
X3635197Y3240379D01*
X3640836Y3243224D01*
X3646170Y3247593D01*
X4230217Y3831640D01*
X4233367Y3833774D01*
X4237075Y3834587D01*
X4240834Y3834028D01*
X4253331Y3829558D01*
X4266488Y3826814D01*
X4279900Y3825900D01*
X4293311Y3826814D01*
X4306468Y3829558D01*
X4319117Y3834079D01*
X4331004Y3840226D01*
X4341977Y3847998D01*
X4351782Y3857142D01*
X4360265Y3867556D01*
X4367276Y3879037D01*
X4372610Y3891330D01*
X4376216Y3904284D01*
X4378045Y3917594D01*
X4378045Y3931005D01*
X4376216Y3944315D01*
X4372610Y3957269D01*
X4367276Y3969562D01*
X4360265Y3981043D01*
X4351782Y3991457D01*
X4341977Y4000601D01*
X4331004Y4008374D01*
X4319117Y4014520D01*
X4306468Y4019042D01*
X4293311Y4021785D01*
X4279900Y4022699D01*
X4266488Y4021785D01*
X4253331Y4019042D01*
X4240682Y4014520D01*
X4228795Y4008374D01*
X4217822Y4000601D01*
X4208018Y3991457D01*
X4199534Y3981043D01*
X4192524Y3969562D01*
X4187190Y3957269D01*
X4183583Y3944315D01*
X4181754Y3931005D01*
X4181754Y3917594D01*
X4183583Y3904284D01*
X4187190Y3891330D01*
X4189526Y3885996D01*
X4190339Y3882085D01*
X4189628Y3878122D01*
X4187393Y3874770D01*
X3614674Y3302101D01*
X3611372Y3299866D01*
X3607511Y3299104D01*
X3468217Y3299104D01*
X3464356Y3299866D01*
X3461054Y3302101D01*
X3458870Y3305403D01*
X3458057Y3309264D01*
X3458870Y3313176D01*
X3461054Y3316427D01*
X4230217Y4085640D01*
X4233367Y4087774D01*
X4237075Y4088587D01*
X4240834Y4088028D01*
X4253331Y4083558D01*
X4266488Y4080814D01*
X4279900Y4079900D01*
X4293311Y4080814D01*
X4306468Y4083558D01*
X4319117Y4088079D01*
X4331004Y4094226D01*
X4341977Y4101998D01*
X4351782Y4111142D01*
X4360265Y4121556D01*
X4367276Y4133037D01*
X4372610Y4145330D01*
X4376216Y4158284D01*
X4378045Y4171594D01*
X4378045Y4185005D01*
X4376216Y4198315D01*
X4372610Y4211269D01*
X4367276Y4223562D01*
X4360265Y4235043D01*
X4351782Y4245457D01*
X4341977Y4254601D01*
X4331004Y4262374D01*
X4319117Y4268520D01*
X4306468Y4273042D01*
X4293311Y4275785D01*
X4279900Y4276699D01*
X4266488Y4275785D01*
X4253331Y4273042D01*
X4240682Y4268520D01*
X4228795Y4262374D01*
X4217822Y4254601D01*
X4208018Y4245457D01*
X4199534Y4235043D01*
X4192524Y4223562D01*
X4187190Y4211269D01*
X4183583Y4198315D01*
X4181754Y4185005D01*
X4181754Y4171594D01*
X4183583Y4158284D01*
X4187190Y4145330D01*
X4189526Y4139996D01*
X4190339Y4136085D01*
X4189628Y4132122D01*
X4187393Y4128770D01*
X3405733Y3347161D01*
X3402431Y3344926D01*
X3398570Y3344164D01*
X3275228Y3344164D01*
X3271570Y3344875D01*
X3268370Y3346805D01*
X3266135Y3349802D01*
X3265119Y3353409D01*
X3265474Y3357118D01*
X3266236Y3359810D01*
X3267049Y3368700D01*
X3266846Y3371037D01*
X3267405Y3375456D01*
X3269792Y3379165D01*
X4230217Y4339640D01*
X4233367Y4341774D01*
X4237075Y4342587D01*
X4240834Y4342028D01*
X4253331Y4337558D01*
X4266488Y4334814D01*
X4279900Y4333900D01*
X4293311Y4334814D01*
X4306468Y4337558D01*
X4319117Y4342079D01*
X4331004Y4348226D01*
X4341977Y4355998D01*
X4351782Y4365142D01*
X4360265Y4375556D01*
X4367276Y4387037D01*
X4372610Y4399330D01*
X4376216Y4412284D01*
X4378045Y4425594D01*
X4378045Y4439005D01*
X4376216Y4452315D01*
X4372610Y4465269D01*
X4367276Y4477562D01*
X4360265Y4489043D01*
X4351782Y4499457D01*
X4341977Y4508601D01*
X4331004Y4516374D01*
X4319117Y4522520D01*
X4306468Y4527042D01*
X4293311Y4529785D01*
X4279900Y4530699D01*
X4266488Y4529785D01*
X4253331Y4527042D01*
X4240682Y4522520D01*
X4228795Y4516374D01*
X4217822Y4508601D01*
X4208018Y4499457D01*
X4199534Y4489043D01*
X4192524Y4477562D01*
X4187190Y4465269D01*
X4183583Y4452315D01*
X4181754Y4439005D01*
X4181754Y4425594D01*
X4183583Y4412284D01*
X4187190Y4399330D01*
X4189526Y4393996D01*
X4190339Y4390085D01*
X4189628Y4386122D01*
X4187393Y4382770D01*
X3224428Y3419856D01*
X3221126Y3417620D01*
X3217265Y3416858D01*
X3214217Y3416858D01*
X3205429Y3415233D01*
X3197148Y3411982D01*
X3189528Y3407308D01*
X3182924Y3401263D01*
X3177590Y3394151D01*
X3173577Y3386175D01*
X3171139Y3377590D01*
X3170326Y3368700D01*
X3171139Y3359810D01*
X3173577Y3351225D01*
X3177590Y3343249D01*
X3182772Y3336340D01*
X3184245Y3333648D01*
X3184804Y3330651D01*
X3184448Y3327603D01*
X3182772Y3321354D01*
X3181502Y3318459D01*
X3179368Y3316122D01*
X3176625Y3314496D01*
X3170174Y3312007D01*
X3162554Y3307283D01*
X3155950Y3301288D01*
X3150616Y3294176D01*
X3146602Y3286150D01*
X3144164Y3277565D01*
X3143351Y3268675D01*
X3144164Y3259836D01*
X3146602Y3251250D01*
X3150616Y3243224D01*
X3155950Y3236112D01*
X3162554Y3230118D01*
X3170174Y3225393D01*
X3178454Y3222193D01*
G37*
G36*
X5850229Y3241141D02*
G01*
X5859170Y3241141D01*
X5867958Y3242767D01*
X5876239Y3246018D01*
X5883859Y3250692D01*
X5890463Y3256737D01*
X5895797Y3263849D01*
X5899810Y3271824D01*
X5902248Y3280410D01*
X5903061Y3289300D01*
X5902248Y3298190D01*
X5899810Y3306775D01*
X5895797Y3314750D01*
X5890463Y3321862D01*
X5883859Y3327908D01*
X5876239Y3332581D01*
X5867958Y3335832D01*
X5859170Y3337458D01*
X5850229Y3337458D01*
X5841441Y3335832D01*
X5833160Y3332581D01*
X5825540Y3327908D01*
X5818936Y3321862D01*
X5813602Y3314750D01*
X5809589Y3306775D01*
X5807151Y3298190D01*
X5806338Y3289300D01*
X5807151Y3280410D01*
X5809589Y3271824D01*
X5813602Y3263849D01*
X5818936Y3256737D01*
X5825540Y3250692D01*
X5833160Y3246018D01*
X5841441Y3242767D01*
G37*
G36*
X952500Y3305200D02*
G01*
X965911Y3306114D01*
X979068Y3308858D01*
X991717Y3313379D01*
X1003604Y3319526D01*
X1014577Y3327298D01*
X1024382Y3336442D01*
X1032865Y3346856D01*
X1039876Y3358337D01*
X1045210Y3370630D01*
X1048816Y3383584D01*
X1050645Y3396894D01*
X1050645Y3410305D01*
X1048816Y3423615D01*
X1045210Y3436569D01*
X1039876Y3448862D01*
X1032865Y3460343D01*
X1024382Y3470757D01*
X1014577Y3479901D01*
X1003604Y3487674D01*
X991717Y3493820D01*
X979068Y3498342D01*
X965911Y3501085D01*
X952500Y3501999D01*
X939088Y3501085D01*
X925931Y3498342D01*
X913282Y3493820D01*
X901395Y3487674D01*
X890422Y3479901D01*
X880618Y3470757D01*
X872134Y3460343D01*
X865124Y3448862D01*
X859790Y3436569D01*
X856183Y3423615D01*
X854354Y3410305D01*
X854354Y3396894D01*
X856183Y3383584D01*
X859790Y3370630D01*
X865124Y3358337D01*
X872134Y3346856D01*
X880618Y3336442D01*
X890422Y3327298D01*
X901395Y3319526D01*
X913282Y3313379D01*
X925931Y3308858D01*
X939088Y3306114D01*
G37*
G36*
X5738774Y3384956D02*
G01*
X5747664Y3384956D01*
X5756452Y3386582D01*
X5764784Y3389833D01*
X5772353Y3394506D01*
X5778957Y3400551D01*
X5784342Y3407664D01*
X5788304Y3415639D01*
X5790742Y3424224D01*
X5791606Y3433114D01*
X5790742Y3442004D01*
X5788304Y3450590D01*
X5784342Y3458565D01*
X5780887Y3463137D01*
X5779160Y3466744D01*
X5778957Y3470097D01*
X5776620Y3469995D01*
X5772861Y3471418D01*
X5764784Y3476396D01*
X5756452Y3479647D01*
X5747664Y3481273D01*
X5738774Y3481273D01*
X5729986Y3479647D01*
X5721654Y3476396D01*
X5714085Y3471722D01*
X5707481Y3465677D01*
X5702096Y3458565D01*
X5698134Y3450590D01*
X5695696Y3442004D01*
X5694832Y3433114D01*
X5695696Y3424224D01*
X5698134Y3415639D01*
X5702096Y3407664D01*
X5707481Y3400551D01*
X5714085Y3394506D01*
X5721654Y3389833D01*
X5729986Y3386582D01*
G37*
G36*
X5913729Y3406241D02*
G01*
X5922670Y3406241D01*
X5931458Y3407867D01*
X5939739Y3411118D01*
X5947359Y3415792D01*
X5953963Y3421837D01*
X5959297Y3428949D01*
X5963310Y3436924D01*
X5965748Y3445510D01*
X5966561Y3454400D01*
X5965748Y3463290D01*
X5963310Y3471875D01*
X5959297Y3479850D01*
X5953963Y3486962D01*
X5947359Y3493008D01*
X5939739Y3497681D01*
X5931458Y3500932D01*
X5922670Y3502558D01*
X5913729Y3502558D01*
X5904941Y3500932D01*
X5896660Y3497681D01*
X5889040Y3493008D01*
X5886297Y3490468D01*
X5882538Y3488283D01*
X5878220Y3487877D01*
X5874105Y3489350D01*
X5870956Y3492347D01*
X5869432Y3496411D01*
X5869686Y3500780D01*
X5871514Y3507333D01*
X5872378Y3516172D01*
X5871514Y3525062D01*
X5869076Y3533648D01*
X5865114Y3541674D01*
X5859729Y3548786D01*
X5853125Y3554780D01*
X5845556Y3559505D01*
X5837224Y3562705D01*
X5828436Y3564382D01*
X5819546Y3564382D01*
X5810758Y3562705D01*
X5802426Y3559505D01*
X5794857Y3554780D01*
X5788253Y3548786D01*
X5782868Y3541674D01*
X5778906Y3533648D01*
X5776468Y3525062D01*
X5775604Y3516172D01*
X5776468Y3507333D01*
X5778906Y3498748D01*
X5782868Y3490722D01*
X5786323Y3486150D01*
X5788050Y3482543D01*
X5788253Y3479190D01*
X5790590Y3479292D01*
X5794349Y3477920D01*
X5802426Y3472891D01*
X5810758Y3469690D01*
X5819546Y3468014D01*
X5828436Y3468014D01*
X5837224Y3469690D01*
X5845556Y3472891D01*
X5853125Y3477615D01*
X5855919Y3480104D01*
X5859678Y3482289D01*
X5863996Y3482695D01*
X5868111Y3481273D01*
X5871210Y3478225D01*
X5872784Y3474161D01*
X5872530Y3469843D01*
X5870651Y3463290D01*
X5869838Y3454400D01*
X5870651Y3445510D01*
X5873089Y3436924D01*
X5877102Y3428949D01*
X5882436Y3421837D01*
X5889040Y3415792D01*
X5896660Y3411118D01*
X5904941Y3407867D01*
G37*
G36*
X952500Y3559200D02*
G01*
X965911Y3560114D01*
X979068Y3562858D01*
X991717Y3567379D01*
X1003604Y3573526D01*
X1014577Y3581298D01*
X1024382Y3590442D01*
X1032865Y3600856D01*
X1039876Y3612337D01*
X1045210Y3624630D01*
X1048816Y3637584D01*
X1050645Y3650894D01*
X1050645Y3664305D01*
X1048816Y3677615D01*
X1045210Y3690569D01*
X1039876Y3702862D01*
X1032865Y3714343D01*
X1024382Y3724757D01*
X1014577Y3733901D01*
X1003604Y3741674D01*
X991717Y3747820D01*
X979068Y3752342D01*
X965911Y3755085D01*
X952500Y3755999D01*
X939088Y3755085D01*
X925931Y3752342D01*
X913282Y3747820D01*
X901395Y3741674D01*
X890422Y3733901D01*
X880618Y3724757D01*
X872134Y3714343D01*
X865124Y3702862D01*
X859790Y3690569D01*
X856183Y3677615D01*
X854354Y3664305D01*
X854354Y3650894D01*
X856183Y3637584D01*
X859790Y3624630D01*
X865124Y3612337D01*
X872134Y3600856D01*
X880618Y3590442D01*
X890422Y3581298D01*
X901395Y3573526D01*
X913282Y3567379D01*
X925931Y3562858D01*
X939088Y3560114D01*
G37*
G36*
X4279900Y3571900D02*
G01*
X4293311Y3572814D01*
X4306468Y3575558D01*
X4319117Y3580079D01*
X4331004Y3586226D01*
X4341977Y3593998D01*
X4351782Y3603142D01*
X4360265Y3613556D01*
X4367276Y3625037D01*
X4372610Y3637330D01*
X4376216Y3650284D01*
X4378045Y3663594D01*
X4378045Y3677005D01*
X4376216Y3690315D01*
X4372610Y3703269D01*
X4367276Y3715562D01*
X4360265Y3727043D01*
X4351782Y3737457D01*
X4341977Y3746601D01*
X4331004Y3754374D01*
X4319117Y3760520D01*
X4306468Y3765042D01*
X4293311Y3767785D01*
X4279900Y3768699D01*
X4266488Y3767785D01*
X4253331Y3765042D01*
X4240682Y3760520D01*
X4228795Y3754374D01*
X4217822Y3746601D01*
X4208018Y3737457D01*
X4199534Y3727043D01*
X4192524Y3715562D01*
X4187190Y3703269D01*
X4183583Y3690315D01*
X4181754Y3677005D01*
X4181754Y3663594D01*
X4183583Y3650284D01*
X4187190Y3637330D01*
X4192524Y3625037D01*
X4199534Y3613556D01*
X4208018Y3603142D01*
X4217822Y3593998D01*
X4228795Y3586226D01*
X4240682Y3580079D01*
X4253331Y3575558D01*
X4266488Y3572814D01*
G37*
G36*
X3185820Y3641140D02*
G01*
X3194710Y3641140D01*
X3203498Y3642817D01*
X3211830Y3646017D01*
X3219399Y3650742D01*
X3226003Y3656736D01*
X3231388Y3663848D01*
X3235350Y3671874D01*
X3237788Y3680460D01*
X3238652Y3689299D01*
X3237788Y3698189D01*
X3235350Y3706774D01*
X3234537Y3708450D01*
X3233521Y3712514D01*
X3234182Y3716629D01*
X3236468Y3720134D01*
X3292348Y3776014D01*
X3295954Y3778351D01*
X3300222Y3778961D01*
X3304336Y3777742D01*
X3314242Y3768902D01*
X3321862Y3764178D01*
X3330143Y3760978D01*
X3338931Y3759301D01*
X3347872Y3759301D01*
X3356660Y3760978D01*
X3364941Y3764178D01*
X3372561Y3768902D01*
X3379165Y3774897D01*
X3384550Y3782009D01*
X3388512Y3790035D01*
X3390950Y3798620D01*
X3391763Y3807460D01*
X3390950Y3816350D01*
X3388512Y3824935D01*
X3384550Y3832961D01*
X3379165Y3840073D01*
X3375101Y3843782D01*
X3372713Y3847033D01*
X3371799Y3851046D01*
X3372510Y3855059D01*
X3374745Y3858463D01*
X4169206Y4652924D01*
X4172508Y4655108D01*
X4176420Y4655870D01*
X4179417Y4655870D01*
X4183278Y4655159D01*
X4186529Y4652975D01*
X4188764Y4649774D01*
X4192524Y4641037D01*
X4199534Y4629556D01*
X4208018Y4619142D01*
X4217822Y4609998D01*
X4228795Y4602226D01*
X4240682Y4596079D01*
X4253331Y4591558D01*
X4266488Y4588814D01*
X4279900Y4587900D01*
X4293311Y4588814D01*
X4306468Y4591558D01*
X4319117Y4596079D01*
X4331004Y4602226D01*
X4341977Y4609998D01*
X4351782Y4619142D01*
X4360265Y4629556D01*
X4367276Y4641037D01*
X4372610Y4653330D01*
X4376216Y4666284D01*
X4378045Y4679594D01*
X4378045Y4693005D01*
X4376216Y4706315D01*
X4372610Y4719269D01*
X4367276Y4731562D01*
X4360265Y4743043D01*
X4351782Y4753457D01*
X4341977Y4762601D01*
X4331004Y4770374D01*
X4319117Y4776520D01*
X4306468Y4781042D01*
X4293311Y4783785D01*
X4279900Y4784699D01*
X4266488Y4783785D01*
X4253331Y4781042D01*
X4240682Y4776520D01*
X4228795Y4770374D01*
X4217822Y4762601D01*
X4208018Y4753457D01*
X4199534Y4743043D01*
X4192524Y4731562D01*
X4188764Y4722825D01*
X4186529Y4719624D01*
X4183278Y4717440D01*
X4179417Y4716729D01*
X4160012Y4716729D01*
X4154982Y4716322D01*
X4148734Y4714646D01*
X4143095Y4711750D01*
X4137710Y4707432D01*
X3169056Y3738727D01*
X3165805Y3734917D01*
X3163214Y3730498D01*
X3161284Y3728059D01*
X3154527Y3721912D01*
X3149142Y3714800D01*
X3145180Y3706774D01*
X3142742Y3698189D01*
X3141878Y3689299D01*
X3142742Y3680460D01*
X3145180Y3671874D01*
X3149142Y3663848D01*
X3154527Y3656736D01*
X3161131Y3650742D01*
X3168700Y3646017D01*
X3177032Y3642817D01*
G37*
G36*
X2827629Y3711041D02*
G01*
X2836570Y3711041D01*
X2845358Y3712667D01*
X2853639Y3715918D01*
X2861259Y3720592D01*
X2867863Y3726637D01*
X2873197Y3733749D01*
X2877210Y3741724D01*
X2879648Y3750310D01*
X2880461Y3759200D01*
X2879648Y3768090D01*
X2877210Y3776675D01*
X2873197Y3784650D01*
X2867863Y3791762D01*
X2861259Y3797808D01*
X2853639Y3802481D01*
X2845358Y3805732D01*
X2836570Y3807358D01*
X2827629Y3807358D01*
X2818841Y3805732D01*
X2810560Y3802481D01*
X2802940Y3797808D01*
X2796336Y3791762D01*
X2791002Y3784650D01*
X2786989Y3776675D01*
X2784551Y3768090D01*
X2783738Y3759200D01*
X2784551Y3750310D01*
X2786989Y3741724D01*
X2791002Y3733749D01*
X2796336Y3726637D01*
X2802940Y3720592D01*
X2810560Y3715918D01*
X2818841Y3712667D01*
G37*
G36*
X952500Y3813200D02*
G01*
X965911Y3814114D01*
X979068Y3816858D01*
X991717Y3821379D01*
X1003604Y3827526D01*
X1014577Y3835298D01*
X1024382Y3844442D01*
X1032865Y3854856D01*
X1039876Y3866337D01*
X1045210Y3878630D01*
X1048816Y3891584D01*
X1050645Y3904894D01*
X1050645Y3918305D01*
X1048816Y3931615D01*
X1045210Y3944569D01*
X1039876Y3956862D01*
X1032865Y3968343D01*
X1024382Y3978757D01*
X1014577Y3987901D01*
X1003604Y3995674D01*
X991717Y4001820D01*
X979068Y4006342D01*
X965911Y4009085D01*
X952500Y4009999D01*
X939088Y4009085D01*
X925931Y4006342D01*
X913282Y4001820D01*
X901395Y3995674D01*
X890422Y3987901D01*
X880618Y3978757D01*
X872134Y3968343D01*
X865124Y3956862D01*
X859790Y3944569D01*
X856183Y3931615D01*
X854354Y3918305D01*
X854354Y3904894D01*
X856183Y3891584D01*
X859790Y3878630D01*
X865124Y3866337D01*
X872134Y3854856D01*
X880618Y3844442D01*
X890422Y3835298D01*
X901395Y3827526D01*
X913282Y3821379D01*
X925931Y3816858D01*
X939088Y3814114D01*
G37*
G36*
X2971444Y3816045D02*
G01*
X2980385Y3816045D01*
X2989173Y3817670D01*
X2997454Y3820922D01*
X3005074Y3825595D01*
X3011678Y3831640D01*
X3017062Y3838752D01*
X3021025Y3846728D01*
X3023463Y3855313D01*
X3024276Y3864203D01*
X3023463Y3873093D01*
X3021025Y3881678D01*
X3017062Y3889654D01*
X3011678Y3896766D01*
X3005074Y3902811D01*
X2997454Y3907485D01*
X2989173Y3910736D01*
X2980385Y3912362D01*
X2971444Y3912362D01*
X2962656Y3910736D01*
X2954375Y3907485D01*
X2946755Y3902811D01*
X2940151Y3896766D01*
X2934817Y3889654D01*
X2930804Y3881678D01*
X2928366Y3873093D01*
X2927553Y3864203D01*
X2928366Y3855313D01*
X2930804Y3846728D01*
X2934817Y3838752D01*
X2940151Y3831640D01*
X2946755Y3825595D01*
X2954375Y3820922D01*
X2962656Y3817670D01*
G37*
G36*
X6133338Y3890721D02*
G01*
X6142278Y3890721D01*
X6151067Y3892397D01*
X6159347Y3895598D01*
X6166967Y3900322D01*
X6173571Y3906316D01*
X6178956Y3913428D01*
X6182918Y3921455D01*
X6185357Y3930040D01*
X6186170Y3938879D01*
X6185357Y3947769D01*
X6182918Y3956354D01*
X6178956Y3964381D01*
X6173571Y3971493D01*
X6171539Y3973322D01*
X6169101Y3976725D01*
X6168237Y3980840D01*
X6168237Y4552492D01*
X6167831Y4557522D01*
X6166154Y4563770D01*
X6163259Y4569409D01*
X6158941Y4574794D01*
X5677306Y5056428D01*
X5674918Y5060137D01*
X5673547Y5073599D01*
X5671108Y5082184D01*
X5667146Y5090160D01*
X5661761Y5097272D01*
X5655157Y5103317D01*
X5647537Y5107990D01*
X5639257Y5111242D01*
X5630468Y5112867D01*
X5621528Y5112867D01*
X5612739Y5111242D01*
X5604459Y5107990D01*
X5596839Y5103317D01*
X5590235Y5097272D01*
X5584901Y5090160D01*
X5580888Y5082184D01*
X5578449Y5073599D01*
X5577636Y5064709D01*
X5578449Y5055819D01*
X5580888Y5047234D01*
X5584901Y5039258D01*
X5590235Y5032146D01*
X5596839Y5026101D01*
X5604459Y5021427D01*
X5612739Y5018176D01*
X5621528Y5016550D01*
X5626963Y5016550D01*
X5630824Y5015788D01*
X5634126Y5013553D01*
X6104432Y4543298D01*
X6106617Y4539996D01*
X6107379Y4536084D01*
X6107379Y3980840D01*
X6106515Y3976725D01*
X6104077Y3973322D01*
X6102045Y3971493D01*
X6096711Y3964381D01*
X6092698Y3956354D01*
X6090259Y3947769D01*
X6089446Y3938879D01*
X6090259Y3930040D01*
X6092698Y3921455D01*
X6096711Y3913428D01*
X6102045Y3906316D01*
X6108649Y3900322D01*
X6116269Y3895598D01*
X6124549Y3892397D01*
G37*
G36*
X2836062Y3905961D02*
G01*
X2844952Y3905961D01*
X2853740Y3907637D01*
X2862072Y3910837D01*
X2869641Y3915562D01*
X2876245Y3921556D01*
X2882392Y3929786D01*
X2885084Y3932631D01*
X2888691Y3934256D01*
X2892602Y3934358D01*
X2896311Y3932986D01*
X2904693Y3927805D01*
X2913024Y3924554D01*
X2921812Y3922928D01*
X2930702Y3922928D01*
X2939491Y3924554D01*
X2947822Y3927805D01*
X2955391Y3932478D01*
X2961995Y3938524D01*
X2967380Y3945636D01*
X2971342Y3953611D01*
X2973781Y3962196D01*
X2974644Y3971086D01*
X2973781Y3979976D01*
X2971342Y3988562D01*
X2967380Y3996537D01*
X2961995Y4003649D01*
X2955391Y4009694D01*
X2947822Y4014368D01*
X2939491Y4017619D01*
X2935884Y4018279D01*
X2932074Y4019854D01*
X2929178Y4022750D01*
X2927705Y4026611D01*
X2927858Y4030675D01*
X2929636Y4034383D01*
X2930702Y4035856D01*
X2934716Y4043832D01*
X2937154Y4052417D01*
X2937967Y4061307D01*
X2937154Y4070197D01*
X2934716Y4078782D01*
X2930702Y4086758D01*
X2925368Y4093921D01*
X2918764Y4099915D01*
X2911144Y4104589D01*
X2902864Y4107840D01*
X2894076Y4109465D01*
X2885135Y4109465D01*
X2876346Y4107840D01*
X2868066Y4104589D01*
X2860446Y4099915D01*
X2853842Y4093921D01*
X2848508Y4086758D01*
X2844495Y4078782D01*
X2842056Y4070197D01*
X2841244Y4061307D01*
X2842056Y4052417D01*
X2844495Y4043832D01*
X2848508Y4035856D01*
X2853842Y4028744D01*
X2860446Y4022750D01*
X2868066Y4018026D01*
X2876346Y4014825D01*
X2880004Y4014114D01*
X2883763Y4012590D01*
X2886608Y4009745D01*
X2888132Y4005986D01*
X2888030Y4001922D01*
X2886405Y3998214D01*
X2884068Y3994962D01*
X2881325Y3992372D01*
X2877820Y3990898D01*
X2874010Y3990898D01*
X2870454Y3992270D01*
X2862072Y3997451D01*
X2853740Y4000652D01*
X2844952Y4002328D01*
X2836062Y4002328D01*
X2827274Y4000652D01*
X2818942Y3997451D01*
X2811373Y3992727D01*
X2804769Y3986733D01*
X2799384Y3979621D01*
X2795422Y3971594D01*
X2792984Y3963009D01*
X2792120Y3954119D01*
X2792984Y3945280D01*
X2795422Y3936695D01*
X2799384Y3928668D01*
X2804769Y3921556D01*
X2811373Y3915562D01*
X2818942Y3910837D01*
X2827274Y3907637D01*
G37*
G36*
X6591198Y4043273D02*
G01*
X6600088Y4043273D01*
X6608876Y4044899D01*
X6617208Y4048150D01*
X6624777Y4052824D01*
X6631381Y4058869D01*
X6636766Y4065981D01*
X6640728Y4073956D01*
X6643166Y4082542D01*
X6644538Y4096004D01*
X6646925Y4099712D01*
X6852158Y4304944D01*
X6855409Y4308754D01*
X6858660Y4314342D01*
X6860590Y4320387D01*
X6861352Y4327245D01*
X6861352Y4683912D01*
X6862216Y4688027D01*
X6864654Y4691430D01*
X6866686Y4693259D01*
X6872071Y4700371D01*
X6876034Y4708398D01*
X6878472Y4716983D01*
X6879285Y4725822D01*
X6878472Y4734712D01*
X6876034Y4743297D01*
X6872071Y4751324D01*
X6866686Y4758436D01*
X6860082Y4764430D01*
X6852462Y4769154D01*
X6844182Y4772355D01*
X6835394Y4774031D01*
X6826453Y4774031D01*
X6817664Y4772355D01*
X6809384Y4769154D01*
X6801764Y4764430D01*
X6795160Y4758436D01*
X6789826Y4751324D01*
X6785813Y4743297D01*
X6783374Y4734712D01*
X6782562Y4725822D01*
X6783374Y4716983D01*
X6785813Y4708398D01*
X6789826Y4700371D01*
X6795160Y4693259D01*
X6797192Y4691430D01*
X6799630Y4688027D01*
X6800494Y4683912D01*
X6800494Y4343501D01*
X6799732Y4339640D01*
X6797548Y4336338D01*
X6603796Y4142587D01*
X6600494Y4140352D01*
X6596583Y4139590D01*
X6591198Y4139590D01*
X6582409Y4137964D01*
X6574078Y4134713D01*
X6566509Y4130040D01*
X6559905Y4123994D01*
X6554520Y4116882D01*
X6550558Y4108907D01*
X6548120Y4100322D01*
X6547256Y4091432D01*
X6548120Y4082542D01*
X6550558Y4073956D01*
X6554520Y4065981D01*
X6559905Y4058869D01*
X6566509Y4052824D01*
X6574078Y4048150D01*
X6582409Y4044899D01*
G37*
G36*
X1542897Y4066895D02*
G01*
X1552448Y4068114D01*
X1561693Y4070959D01*
X1570278Y4075277D01*
X1578051Y4081018D01*
X1584706Y4087977D01*
X1590141Y4096004D01*
X1594104Y4104792D01*
X1596542Y4114088D01*
X1597355Y4123740D01*
X1596542Y4133342D01*
X1594104Y4142689D01*
X1590141Y4151477D01*
X1584706Y4159453D01*
X1578051Y4166412D01*
X1570278Y4172153D01*
X1561693Y4176471D01*
X1552448Y4179315D01*
X1542897Y4180535D01*
X1533245Y4180128D01*
X1523847Y4178096D01*
X1514856Y4174490D01*
X1506677Y4169460D01*
X1499412Y4163060D01*
X1493367Y4155592D01*
X1488643Y4147159D01*
X1485442Y4138066D01*
X1483817Y4128566D01*
X1483817Y4118914D01*
X1485442Y4109415D01*
X1488643Y4100271D01*
X1493367Y4091889D01*
X1499412Y4084370D01*
X1506677Y4078020D01*
X1514856Y4072940D01*
X1523847Y4069334D01*
X1533245Y4067301D01*
G37*
G36*
X952500Y4067200D02*
G01*
X965911Y4068114D01*
X979068Y4070858D01*
X991717Y4075379D01*
X1003604Y4081526D01*
X1014577Y4089298D01*
X1024382Y4098442D01*
X1032865Y4108856D01*
X1039876Y4120337D01*
X1045210Y4132630D01*
X1048816Y4145584D01*
X1050645Y4158894D01*
X1050645Y4172305D01*
X1048816Y4185615D01*
X1045210Y4198569D01*
X1039876Y4210862D01*
X1032865Y4222343D01*
X1024382Y4232757D01*
X1014577Y4241901D01*
X1003604Y4249674D01*
X991717Y4255820D01*
X979068Y4260342D01*
X965911Y4263085D01*
X952500Y4263999D01*
X939088Y4263085D01*
X925931Y4260342D01*
X913282Y4255820D01*
X901395Y4249674D01*
X890422Y4241901D01*
X880618Y4232757D01*
X872134Y4222343D01*
X865124Y4210862D01*
X859790Y4198569D01*
X856183Y4185615D01*
X854354Y4172305D01*
X854354Y4158894D01*
X856183Y4145584D01*
X859790Y4132630D01*
X865124Y4120337D01*
X872134Y4108856D01*
X880618Y4098442D01*
X890422Y4089298D01*
X901395Y4081526D01*
X913282Y4075379D01*
X925931Y4070858D01*
X939088Y4068114D01*
G37*
G36*
X2954629Y4168241D02*
G01*
X2963570Y4168241D01*
X2972358Y4169867D01*
X2980639Y4173118D01*
X2988259Y4177792D01*
X2994863Y4183837D01*
X3000197Y4190949D01*
X3004210Y4198924D01*
X3006648Y4207510D01*
X3007461Y4216400D01*
X3006648Y4225290D01*
X3004210Y4233875D01*
X3000197Y4241850D01*
X2994863Y4248962D01*
X2988259Y4255008D01*
X2980639Y4259681D01*
X2972358Y4262932D01*
X2963570Y4264558D01*
X2954629Y4264558D01*
X2945841Y4262932D01*
X2937560Y4259681D01*
X2929940Y4255008D01*
X2923336Y4248962D01*
X2918002Y4241850D01*
X2913989Y4233875D01*
X2911551Y4225290D01*
X2910738Y4216400D01*
X2911551Y4207510D01*
X2913989Y4198924D01*
X2918002Y4190949D01*
X2923336Y4183837D01*
X2929940Y4177792D01*
X2937560Y4173118D01*
X2945841Y4169867D01*
G37*
G36*
X2809138Y4223054D02*
G01*
X2818688Y4224324D01*
X2827883Y4227118D01*
X2836519Y4231487D01*
X2844292Y4237228D01*
X2850946Y4244187D01*
X2856331Y4252163D01*
X2860344Y4260951D01*
X2862732Y4270298D01*
X2863596Y4279900D01*
X2862732Y4289501D01*
X2860344Y4298848D01*
X2856331Y4307636D01*
X2850946Y4315612D01*
X2844292Y4322572D01*
X2836519Y4328312D01*
X2827883Y4332681D01*
X2818688Y4335475D01*
X2809138Y4336745D01*
X2799486Y4336288D01*
X2790037Y4334256D01*
X2781096Y4330700D01*
X2772867Y4325620D01*
X2765653Y4319270D01*
X2759557Y4311751D01*
X2754884Y4303318D01*
X2751683Y4294225D01*
X2750058Y4284726D01*
X2750058Y4275074D01*
X2751683Y4265574D01*
X2754884Y4256481D01*
X2759557Y4248048D01*
X2765653Y4240530D01*
X2772867Y4234180D01*
X2781096Y4229100D01*
X2790037Y4225544D01*
X2799486Y4223512D01*
G37*
G36*
X952500Y4321200D02*
G01*
X965911Y4322114D01*
X979068Y4324858D01*
X991717Y4329379D01*
X1003604Y4335526D01*
X1014577Y4343298D01*
X1024382Y4352442D01*
X1032865Y4362856D01*
X1039876Y4374337D01*
X1045210Y4386630D01*
X1048816Y4399584D01*
X1050645Y4412894D01*
X1050645Y4426305D01*
X1048816Y4439615D01*
X1045210Y4452569D01*
X1039876Y4464862D01*
X1032865Y4476343D01*
X1024382Y4486757D01*
X1014577Y4495901D01*
X1003604Y4503674D01*
X991717Y4509820D01*
X979068Y4514342D01*
X965911Y4517085D01*
X952500Y4517999D01*
X939088Y4517085D01*
X925931Y4514342D01*
X913282Y4509820D01*
X901395Y4503674D01*
X890422Y4495901D01*
X880618Y4486757D01*
X872134Y4476343D01*
X865124Y4464862D01*
X859790Y4452569D01*
X856183Y4439615D01*
X854354Y4426305D01*
X854354Y4412894D01*
X856183Y4399584D01*
X859790Y4386630D01*
X865124Y4374337D01*
X872134Y4362856D01*
X880618Y4352442D01*
X890422Y4343298D01*
X901395Y4335526D01*
X913282Y4329379D01*
X925931Y4324858D01*
X939088Y4322114D01*
G37*
G36*
X6548729Y4382566D02*
G01*
X6557670Y4382566D01*
X6566458Y4384243D01*
X6574739Y4387443D01*
X6582359Y4392168D01*
X6588963Y4398162D01*
X6594348Y4405274D01*
X6598310Y4413300D01*
X6600748Y4421886D01*
X6601561Y4430725D01*
X6600748Y4439615D01*
X6598310Y4448200D01*
X6594348Y4456226D01*
X6588963Y4463338D01*
X6586931Y4465167D01*
X6584492Y4468571D01*
X6583629Y4472686D01*
X6583629Y5406898D01*
X6584289Y5410504D01*
X6586169Y5413654D01*
X6589064Y5415889D01*
X6592570Y5417007D01*
X6596227Y5416753D01*
X6602120Y5415280D01*
X6614718Y5413959D01*
X6627418Y5414416D01*
X6639864Y5416600D01*
X6651955Y5420512D01*
X6663334Y5426100D01*
X6673850Y5433161D01*
X6683298Y5441645D01*
X6691426Y5451398D01*
X6698132Y5462117D01*
X6703314Y5473700D01*
X6706819Y5485892D01*
X6708546Y5498439D01*
X6708546Y5511139D01*
X6706819Y5523687D01*
X6703314Y5535879D01*
X6698132Y5547461D01*
X6691426Y5558231D01*
X6683298Y5567934D01*
X6673850Y5576417D01*
X6663334Y5583529D01*
X6653987Y5588050D01*
X6650990Y5590286D01*
X6649008Y5593486D01*
X6648297Y5597194D01*
X6648297Y5636006D01*
X6649059Y5639917D01*
X6651294Y5643219D01*
X6677456Y5669381D01*
X6681216Y5671769D01*
X6685686Y5672277D01*
X6689902Y5670854D01*
X6696100Y5667095D01*
X6707479Y5662168D01*
X6719417Y5658815D01*
X6731711Y5657138D01*
X6744106Y5657138D01*
X6756400Y5658815D01*
X6768338Y5662168D01*
X6779717Y5667095D01*
X6790334Y5673547D01*
X6799935Y5681370D01*
X6808419Y5690463D01*
X6815531Y5700572D01*
X6821271Y5711596D01*
X6825437Y5723280D01*
X6827926Y5735421D01*
X6828790Y5748172D01*
X6828790Y5797448D01*
X6827926Y5810199D01*
X6825437Y5822340D01*
X6821271Y5834024D01*
X6815531Y5845048D01*
X6808419Y5855157D01*
X6799935Y5864250D01*
X6790334Y5872073D01*
X6779717Y5878474D01*
X6768338Y5883452D01*
X6756400Y5886805D01*
X6744106Y5888482D01*
X6731711Y5888482D01*
X6719417Y5886805D01*
X6707479Y5883452D01*
X6696100Y5878474D01*
X6685483Y5872073D01*
X6675881Y5864250D01*
X6667398Y5855157D01*
X6660235Y5845048D01*
X6654546Y5834024D01*
X6650380Y5822340D01*
X6647840Y5810199D01*
X6646976Y5797448D01*
X6646976Y5748172D01*
X6647840Y5735421D01*
X6648399Y5732830D01*
X6648551Y5729478D01*
X6647586Y5726277D01*
X6645656Y5723585D01*
X6596684Y5674614D01*
X6593433Y5670753D01*
X6590182Y5665165D01*
X6588201Y5659120D01*
X6587490Y5652312D01*
X6587490Y5597144D01*
X6586728Y5593232D01*
X6584492Y5589930D01*
X6581140Y5587746D01*
X6578041Y5586476D01*
X6567068Y5580126D01*
X6557111Y5572353D01*
X6548272Y5563209D01*
X6540804Y5552948D01*
X6534861Y5541772D01*
X6530543Y5529834D01*
X6527901Y5517438D01*
X6527038Y5504789D01*
X6527901Y5492140D01*
X6530543Y5479745D01*
X6533489Y5471566D01*
X6534099Y5468061D01*
X6533489Y5464556D01*
X6531660Y5461457D01*
X6528714Y5458053D01*
X6525463Y5452465D01*
X6523532Y5446420D01*
X6522770Y5439562D01*
X6522770Y4472686D01*
X6521907Y4468571D01*
X6519468Y4465167D01*
X6517436Y4463338D01*
X6512102Y4456226D01*
X6508089Y4448200D01*
X6505651Y4439615D01*
X6504838Y4430725D01*
X6505651Y4421886D01*
X6508089Y4413300D01*
X6512102Y4405274D01*
X6517436Y4398162D01*
X6524040Y4392168D01*
X6531660Y4387443D01*
X6539941Y4384243D01*
G37*
G36*
X2674315Y4449267D02*
G01*
X2683256Y4449267D01*
X2692044Y4450892D01*
X2700324Y4454144D01*
X2707944Y4458817D01*
X2714548Y4464862D01*
X2719933Y4471974D01*
X2723896Y4479950D01*
X2726334Y4488535D01*
X2727706Y4501997D01*
X2730093Y4505706D01*
X3704234Y5479846D01*
X3707485Y5483707D01*
X3710736Y5489295D01*
X3712667Y5495340D01*
X3713429Y5502148D01*
X3713429Y5703417D01*
X3714140Y5707278D01*
X3716324Y5710529D01*
X3719525Y5712764D01*
X3728262Y5716524D01*
X3739743Y5723534D01*
X3750157Y5732018D01*
X3759301Y5741822D01*
X3767074Y5752795D01*
X3773220Y5764682D01*
X3777742Y5777331D01*
X3780485Y5790488D01*
X3781399Y5803900D01*
X3780485Y5817311D01*
X3777742Y5830468D01*
X3773220Y5843117D01*
X3767074Y5855004D01*
X3759301Y5865977D01*
X3750157Y5875782D01*
X3739743Y5884265D01*
X3728262Y5891276D01*
X3715969Y5896610D01*
X3703015Y5900216D01*
X3689705Y5902045D01*
X3676294Y5902045D01*
X3662984Y5900216D01*
X3650030Y5896610D01*
X3637737Y5891276D01*
X3626256Y5884265D01*
X3615842Y5875782D01*
X3606698Y5865977D01*
X3598926Y5855004D01*
X3592779Y5843117D01*
X3588258Y5830468D01*
X3585514Y5817311D01*
X3584600Y5803900D01*
X3585514Y5790488D01*
X3588258Y5777331D01*
X3592779Y5764682D01*
X3598926Y5752795D01*
X3606698Y5741822D01*
X3615842Y5732018D01*
X3626256Y5723534D01*
X3637737Y5716524D01*
X3646474Y5712764D01*
X3649675Y5710529D01*
X3651859Y5707278D01*
X3652570Y5703417D01*
X3652570Y5518454D01*
X3651808Y5514543D01*
X3649624Y5511241D01*
X2686913Y4548581D01*
X2683611Y4546346D01*
X2679750Y4545584D01*
X2674315Y4545584D01*
X2665526Y4543958D01*
X2657246Y4540707D01*
X2649626Y4536033D01*
X2643022Y4529988D01*
X2637688Y4522876D01*
X2633675Y4514900D01*
X2631236Y4506315D01*
X2630424Y4497425D01*
X2631236Y4488535D01*
X2633675Y4479950D01*
X2637688Y4471974D01*
X2643022Y4464862D01*
X2649626Y4458817D01*
X2657246Y4454144D01*
X2665526Y4450892D01*
G37*
G36*
X952500Y4575200D02*
G01*
X965911Y4576114D01*
X979068Y4578858D01*
X991717Y4583379D01*
X1003604Y4589526D01*
X1014577Y4597298D01*
X1024382Y4606442D01*
X1032865Y4616856D01*
X1039876Y4628337D01*
X1045210Y4640630D01*
X1048816Y4653584D01*
X1050645Y4666894D01*
X1050645Y4680305D01*
X1048816Y4693615D01*
X1045210Y4706569D01*
X1039876Y4718862D01*
X1032865Y4730343D01*
X1024382Y4740757D01*
X1014577Y4749901D01*
X1003604Y4757674D01*
X991717Y4763820D01*
X979068Y4768342D01*
X965911Y4771085D01*
X952500Y4771999D01*
X939088Y4771085D01*
X925931Y4768342D01*
X913282Y4763820D01*
X901395Y4757674D01*
X890422Y4749901D01*
X880618Y4740757D01*
X872134Y4730343D01*
X865124Y4718862D01*
X859790Y4706569D01*
X856183Y4693615D01*
X854354Y4680305D01*
X854354Y4666894D01*
X856183Y4653584D01*
X859790Y4640630D01*
X865124Y4628337D01*
X872134Y4616856D01*
X880618Y4606442D01*
X890422Y4597298D01*
X901395Y4589526D01*
X913282Y4583379D01*
X925931Y4578858D01*
X939088Y4576114D01*
G37*
G36*
X4279900Y4841900D02*
G01*
X4293311Y4842814D01*
X4306468Y4845558D01*
X4319117Y4850079D01*
X4331004Y4856226D01*
X4341977Y4863998D01*
X4351782Y4873142D01*
X4360265Y4883556D01*
X4367276Y4895037D01*
X4372610Y4907330D01*
X4376216Y4920284D01*
X4378045Y4933594D01*
X4378045Y4947005D01*
X4376216Y4960315D01*
X4372610Y4973269D01*
X4367276Y4985562D01*
X4360265Y4997043D01*
X4351782Y5007457D01*
X4341977Y5016601D01*
X4331004Y5024374D01*
X4319117Y5030520D01*
X4306468Y5035042D01*
X4293311Y5037785D01*
X4279900Y5038699D01*
X4266488Y5037785D01*
X4253331Y5035042D01*
X4240682Y5030520D01*
X4228795Y5024374D01*
X4217822Y5016601D01*
X4208018Y5007457D01*
X4199534Y4997043D01*
X4192524Y4985562D01*
X4187190Y4973269D01*
X4183583Y4960315D01*
X4181754Y4947005D01*
X4181754Y4933594D01*
X4183583Y4920284D01*
X4187190Y4907330D01*
X4192524Y4895037D01*
X4199534Y4883556D01*
X4208018Y4873142D01*
X4217822Y4863998D01*
X4228795Y4856226D01*
X4240682Y4850079D01*
X4253331Y4845558D01*
X4266488Y4842814D01*
G37*
G36*
X4207967Y5095900D02*
G01*
X4351832Y5095900D01*
X4358132Y5096611D01*
X4363618Y5098491D01*
X4368495Y5101590D01*
X4372610Y5105704D01*
X4375708Y5110581D01*
X4377588Y5116068D01*
X4378299Y5122367D01*
X4378299Y5266232D01*
X4377588Y5272532D01*
X4375708Y5278018D01*
X4372610Y5282895D01*
X4368495Y5287010D01*
X4363618Y5290108D01*
X4358132Y5291988D01*
X4351832Y5292699D01*
X4207967Y5292699D01*
X4201668Y5291988D01*
X4196181Y5290108D01*
X4191304Y5287010D01*
X4187190Y5282895D01*
X4184091Y5278018D01*
X4182211Y5272532D01*
X4181500Y5266232D01*
X4181500Y5122367D01*
X4182211Y5116068D01*
X4184091Y5110581D01*
X4187190Y5105704D01*
X4191304Y5101590D01*
X4196181Y5098491D01*
X4201668Y5096611D01*
G37*
G36*
X4973929Y5326938D02*
G01*
X4982870Y5326938D01*
X4991658Y5328615D01*
X4999939Y5331815D01*
X5007559Y5336540D01*
X5012131Y5340705D01*
X5015331Y5342686D01*
X5018989Y5343347D01*
X5022646Y5342686D01*
X5030165Y5339791D01*
X5038953Y5338114D01*
X5047843Y5338114D01*
X5056632Y5339791D01*
X5064963Y5342991D01*
X5072532Y5347716D01*
X5079136Y5353710D01*
X5084521Y5360822D01*
X5088483Y5368848D01*
X5090922Y5377434D01*
X5091785Y5386273D01*
X5090922Y5395163D01*
X5088483Y5403748D01*
X5084521Y5411774D01*
X5079136Y5418886D01*
X5072532Y5424881D01*
X5064963Y5429605D01*
X5056632Y5432806D01*
X5047843Y5434482D01*
X5038953Y5434482D01*
X5030165Y5432806D01*
X5021834Y5429605D01*
X5014264Y5424881D01*
X5009642Y5420715D01*
X5006492Y5418734D01*
X5002834Y5418074D01*
X4999126Y5418734D01*
X4991658Y5421630D01*
X4982870Y5423306D01*
X4973929Y5423306D01*
X4965141Y5421630D01*
X4956860Y5418429D01*
X4949240Y5413705D01*
X4942636Y5407710D01*
X4937302Y5400598D01*
X4933289Y5392572D01*
X4930851Y5383987D01*
X4930038Y5375097D01*
X4930851Y5366258D01*
X4933289Y5357672D01*
X4937302Y5349646D01*
X4942636Y5342534D01*
X4949240Y5336540D01*
X4956860Y5331815D01*
X4965141Y5328615D01*
G37*
G36*
X6129731Y5413959D02*
G01*
X6142380Y5414416D01*
X6154877Y5416600D01*
X6166967Y5420512D01*
X6178346Y5426100D01*
X6188862Y5433161D01*
X6198260Y5441645D01*
X6206439Y5451398D01*
X6213144Y5462117D01*
X6218326Y5473700D01*
X6221780Y5485892D01*
X6223558Y5498439D01*
X6223558Y5511139D01*
X6221780Y5523687D01*
X6218326Y5535879D01*
X6213144Y5547461D01*
X6206439Y5558231D01*
X6198260Y5567934D01*
X6188862Y5576417D01*
X6178346Y5583478D01*
X6168999Y5588050D01*
X6166002Y5590286D01*
X6164021Y5593486D01*
X6163310Y5597194D01*
X6163310Y5652414D01*
X6162903Y5657443D01*
X6161227Y5663692D01*
X6158382Y5669330D01*
X6154013Y5674715D01*
X6105144Y5723585D01*
X6103213Y5726277D01*
X6102248Y5729478D01*
X6102400Y5732830D01*
X6102959Y5735421D01*
X6103823Y5748172D01*
X6103823Y5797448D01*
X6102959Y5810199D01*
X6100419Y5822340D01*
X6096254Y5834024D01*
X6090564Y5845048D01*
X6083401Y5855157D01*
X6074918Y5864250D01*
X6065316Y5872073D01*
X6054699Y5878474D01*
X6043320Y5883452D01*
X6031382Y5886805D01*
X6019088Y5888482D01*
X6006693Y5888482D01*
X5994400Y5886805D01*
X5982462Y5883452D01*
X5971082Y5878474D01*
X5960465Y5872073D01*
X5950864Y5864250D01*
X5942380Y5855157D01*
X5935268Y5845048D01*
X5929528Y5834024D01*
X5925362Y5822340D01*
X5922873Y5810199D01*
X5922010Y5797448D01*
X5922010Y5748172D01*
X5922873Y5735421D01*
X5925362Y5723280D01*
X5929528Y5711596D01*
X5935268Y5700572D01*
X5942380Y5690463D01*
X5950864Y5681370D01*
X5960465Y5673547D01*
X5971082Y5667095D01*
X5982462Y5662168D01*
X5994400Y5658815D01*
X6006693Y5657138D01*
X6019088Y5657138D01*
X6031382Y5658815D01*
X6043320Y5662168D01*
X6054699Y5667095D01*
X6060897Y5670854D01*
X6065113Y5672277D01*
X6069584Y5671769D01*
X6073343Y5669381D01*
X6099505Y5643219D01*
X6101740Y5639917D01*
X6102502Y5636006D01*
X6102502Y5597144D01*
X6101740Y5593232D01*
X6099505Y5589930D01*
X6096152Y5587746D01*
X6093053Y5586476D01*
X6082080Y5580126D01*
X6072073Y5572353D01*
X6063284Y5563209D01*
X6055817Y5552948D01*
X6049873Y5541772D01*
X6045555Y5529834D01*
X6042914Y5517438D01*
X6041999Y5504789D01*
X6042914Y5492140D01*
X6045555Y5479745D01*
X6049873Y5467807D01*
X6055817Y5456631D01*
X6063284Y5446369D01*
X6072073Y5437276D01*
X6082080Y5429453D01*
X6093053Y5423103D01*
X6104839Y5418378D01*
X6117132Y5415280D01*
G37*
G36*
X4732731Y5426659D02*
G01*
X4745380Y5427116D01*
X4757877Y5429300D01*
X4769967Y5433212D01*
X4781346Y5438800D01*
X4791862Y5445861D01*
X4801260Y5454345D01*
X4809439Y5464098D01*
X4816144Y5474817D01*
X4821326Y5486400D01*
X4824780Y5498592D01*
X4826558Y5511139D01*
X4826558Y5523839D01*
X4824780Y5536387D01*
X4821326Y5548579D01*
X4816144Y5560161D01*
X4809439Y5570931D01*
X4801260Y5580634D01*
X4791862Y5589117D01*
X4781346Y5596178D01*
X4771999Y5600750D01*
X4769002Y5602986D01*
X4767021Y5606186D01*
X4766310Y5609894D01*
X4766310Y5665114D01*
X4765903Y5670143D01*
X4764227Y5676392D01*
X4761382Y5682030D01*
X4757013Y5687415D01*
X4708144Y5736285D01*
X4706213Y5738977D01*
X4705248Y5742178D01*
X4705400Y5745530D01*
X4705959Y5748121D01*
X4706823Y5760872D01*
X4706823Y5810148D01*
X4705959Y5822899D01*
X4703419Y5835040D01*
X4699254Y5846724D01*
X4693564Y5857748D01*
X4686401Y5867857D01*
X4677918Y5876950D01*
X4668316Y5884773D01*
X4657699Y5891174D01*
X4646320Y5896152D01*
X4634382Y5899505D01*
X4622088Y5901182D01*
X4609693Y5901182D01*
X4597400Y5899505D01*
X4585462Y5896152D01*
X4574082Y5891174D01*
X4563465Y5884773D01*
X4553864Y5876950D01*
X4545380Y5867857D01*
X4538268Y5857748D01*
X4532528Y5846724D01*
X4528362Y5835040D01*
X4525873Y5822899D01*
X4525010Y5810148D01*
X4525010Y5760872D01*
X4525873Y5748121D01*
X4528362Y5735980D01*
X4532528Y5724296D01*
X4538268Y5713272D01*
X4545380Y5703163D01*
X4553864Y5694070D01*
X4563465Y5686247D01*
X4574082Y5679795D01*
X4585462Y5674868D01*
X4597400Y5671515D01*
X4609693Y5669838D01*
X4622088Y5669838D01*
X4634382Y5671515D01*
X4646320Y5674868D01*
X4657699Y5679795D01*
X4663897Y5683554D01*
X4668113Y5684977D01*
X4672584Y5684469D01*
X4676343Y5682081D01*
X4702505Y5655919D01*
X4704740Y5652617D01*
X4705502Y5648706D01*
X4705502Y5609844D01*
X4704740Y5605932D01*
X4702505Y5602630D01*
X4699152Y5600446D01*
X4696053Y5599176D01*
X4685080Y5592826D01*
X4675073Y5585053D01*
X4666284Y5575909D01*
X4658817Y5565648D01*
X4652873Y5554472D01*
X4648555Y5542534D01*
X4645914Y5530138D01*
X4644999Y5517489D01*
X4645914Y5504840D01*
X4648555Y5492445D01*
X4652873Y5480507D01*
X4658817Y5469331D01*
X4666284Y5459069D01*
X4675073Y5449976D01*
X4685080Y5442153D01*
X4696053Y5435803D01*
X4707839Y5431078D01*
X4720132Y5427980D01*
G37*
G36*
X5217718Y5426659D02*
G01*
X5230418Y5427116D01*
X5242864Y5429300D01*
X5254955Y5433212D01*
X5266334Y5438800D01*
X5276850Y5445861D01*
X5286298Y5454345D01*
X5294426Y5464098D01*
X5301132Y5474817D01*
X5306314Y5486400D01*
X5309819Y5498592D01*
X5311546Y5511139D01*
X5311546Y5523839D01*
X5309819Y5536387D01*
X5306314Y5548579D01*
X5301132Y5560161D01*
X5294426Y5570931D01*
X5286298Y5580634D01*
X5276850Y5589117D01*
X5266334Y5596229D01*
X5256987Y5600750D01*
X5253990Y5602986D01*
X5252008Y5606186D01*
X5251297Y5609894D01*
X5251297Y5648706D01*
X5252059Y5652617D01*
X5254294Y5655919D01*
X5280456Y5682081D01*
X5284216Y5684469D01*
X5288686Y5684977D01*
X5292902Y5683554D01*
X5299100Y5679795D01*
X5310479Y5674868D01*
X5322417Y5671515D01*
X5334711Y5669838D01*
X5347106Y5669838D01*
X5359400Y5671515D01*
X5371338Y5674868D01*
X5382717Y5679795D01*
X5393334Y5686247D01*
X5402935Y5694070D01*
X5411419Y5703163D01*
X5418531Y5713272D01*
X5424271Y5724296D01*
X5428437Y5735980D01*
X5430926Y5748121D01*
X5431790Y5760872D01*
X5431790Y5810148D01*
X5430926Y5822899D01*
X5428437Y5835040D01*
X5424271Y5846724D01*
X5418531Y5857748D01*
X5411419Y5867857D01*
X5402935Y5876950D01*
X5393334Y5884773D01*
X5382717Y5891174D01*
X5371338Y5896152D01*
X5359400Y5899505D01*
X5347106Y5901182D01*
X5334711Y5901182D01*
X5322417Y5899505D01*
X5310479Y5896152D01*
X5299100Y5891174D01*
X5288483Y5884773D01*
X5278882Y5876950D01*
X5270398Y5867857D01*
X5263235Y5857748D01*
X5257546Y5846724D01*
X5253380Y5835040D01*
X5250840Y5822899D01*
X5249976Y5810148D01*
X5249976Y5760872D01*
X5250840Y5748121D01*
X5251399Y5745530D01*
X5251551Y5742178D01*
X5250586Y5738977D01*
X5248656Y5736285D01*
X5199684Y5687314D01*
X5196433Y5683453D01*
X5193182Y5677865D01*
X5191201Y5671820D01*
X5190490Y5665012D01*
X5190490Y5609844D01*
X5189728Y5605932D01*
X5187492Y5602630D01*
X5184140Y5600446D01*
X5181041Y5599176D01*
X5170068Y5592826D01*
X5160111Y5585053D01*
X5151272Y5575909D01*
X5143804Y5565648D01*
X5137861Y5554472D01*
X5133543Y5542534D01*
X5130901Y5530138D01*
X5130038Y5517489D01*
X5130901Y5504840D01*
X5133543Y5492445D01*
X5137861Y5480558D01*
X5143804Y5469331D01*
X5151272Y5459069D01*
X5160111Y5449976D01*
X5170068Y5442153D01*
X5181041Y5435803D01*
X5192826Y5431078D01*
X5205120Y5427980D01*
G37*
G36*
X1325067Y5705500D02*
G01*
X1468932Y5705500D01*
X1475232Y5706211D01*
X1480718Y5708091D01*
X1485595Y5711190D01*
X1489710Y5715304D01*
X1492808Y5720181D01*
X1494688Y5725668D01*
X1495399Y5731967D01*
X1495399Y5875832D01*
X1494688Y5882132D01*
X1492808Y5887618D01*
X1489710Y5892495D01*
X1485595Y5896610D01*
X1480718Y5899708D01*
X1475232Y5901588D01*
X1468932Y5902299D01*
X1325067Y5902299D01*
X1318768Y5901588D01*
X1313281Y5899708D01*
X1308404Y5896610D01*
X1304290Y5892495D01*
X1301191Y5887618D01*
X1299311Y5882132D01*
X1298600Y5875832D01*
X1298600Y5731967D01*
X1299311Y5725668D01*
X1301191Y5720181D01*
X1304290Y5715304D01*
X1308404Y5711190D01*
X1313281Y5708091D01*
X1318768Y5706211D01*
G37*
G36*
X3422294Y5705754D02*
G01*
X3435705Y5705754D01*
X3449015Y5707583D01*
X3461969Y5711190D01*
X3474262Y5716524D01*
X3485743Y5723534D01*
X3496157Y5732018D01*
X3505301Y5741822D01*
X3513074Y5752795D01*
X3519220Y5764682D01*
X3523742Y5777331D01*
X3526485Y5790488D01*
X3527399Y5803900D01*
X3526485Y5817311D01*
X3523742Y5830468D01*
X3519220Y5843117D01*
X3513074Y5855004D01*
X3505301Y5865977D01*
X3496157Y5875782D01*
X3485743Y5884265D01*
X3474262Y5891276D01*
X3461969Y5896610D01*
X3449015Y5900216D01*
X3435705Y5902045D01*
X3422294Y5902045D01*
X3408984Y5900216D01*
X3396030Y5896610D01*
X3383737Y5891276D01*
X3372256Y5884265D01*
X3361842Y5875782D01*
X3352698Y5865977D01*
X3344926Y5855004D01*
X3338779Y5843117D01*
X3334258Y5830468D01*
X3331514Y5817311D01*
X3330600Y5803900D01*
X3331514Y5790488D01*
X3334258Y5777331D01*
X3338779Y5764682D01*
X3344926Y5752795D01*
X3352698Y5741822D01*
X3361842Y5732018D01*
X3372256Y5723534D01*
X3383737Y5716524D01*
X3396030Y5711190D01*
X3408984Y5707583D01*
G37*
G36*
X3168294Y5705754D02*
G01*
X3181705Y5705754D01*
X3195015Y5707583D01*
X3207969Y5711190D01*
X3220262Y5716524D01*
X3231743Y5723534D01*
X3242157Y5732018D01*
X3251301Y5741822D01*
X3259074Y5752795D01*
X3265220Y5764682D01*
X3269742Y5777331D01*
X3272485Y5790488D01*
X3273399Y5803900D01*
X3272485Y5817311D01*
X3269742Y5830468D01*
X3265220Y5843117D01*
X3259074Y5855004D01*
X3251301Y5865977D01*
X3242157Y5875782D01*
X3231743Y5884265D01*
X3220262Y5891276D01*
X3207969Y5896610D01*
X3195015Y5900216D01*
X3181705Y5902045D01*
X3168294Y5902045D01*
X3154984Y5900216D01*
X3142030Y5896610D01*
X3129737Y5891276D01*
X3118256Y5884265D01*
X3107842Y5875782D01*
X3098698Y5865977D01*
X3090926Y5855004D01*
X3084779Y5843117D01*
X3080258Y5830468D01*
X3077514Y5817311D01*
X3076600Y5803900D01*
X3077514Y5790488D01*
X3080258Y5777331D01*
X3084779Y5764682D01*
X3090926Y5752795D01*
X3098698Y5741822D01*
X3107842Y5732018D01*
X3118256Y5723534D01*
X3129737Y5716524D01*
X3142030Y5711190D01*
X3154984Y5707583D01*
G37*
G36*
X1644294Y5705754D02*
G01*
X1657705Y5705754D01*
X1671015Y5707583D01*
X1683969Y5711190D01*
X1696262Y5716524D01*
X1707743Y5723534D01*
X1718157Y5732018D01*
X1727301Y5741822D01*
X1735074Y5752795D01*
X1741220Y5764682D01*
X1745742Y5777331D01*
X1748485Y5790488D01*
X1749399Y5803900D01*
X1748485Y5817311D01*
X1745742Y5830468D01*
X1741220Y5843117D01*
X1735074Y5855004D01*
X1727301Y5865977D01*
X1718157Y5875782D01*
X1707743Y5884265D01*
X1696262Y5891276D01*
X1683969Y5896610D01*
X1671015Y5900216D01*
X1657705Y5902045D01*
X1644294Y5902045D01*
X1630984Y5900216D01*
X1618030Y5896610D01*
X1605737Y5891276D01*
X1594256Y5884265D01*
X1583842Y5875782D01*
X1574698Y5865977D01*
X1566926Y5855004D01*
X1560779Y5843117D01*
X1556258Y5830468D01*
X1553514Y5817311D01*
X1552600Y5803900D01*
X1553514Y5790488D01*
X1556258Y5777331D01*
X1560779Y5764682D01*
X1566926Y5752795D01*
X1574698Y5741822D01*
X1583842Y5732018D01*
X1594256Y5723534D01*
X1605737Y5716524D01*
X1618030Y5711190D01*
X1630984Y5707583D01*
G37*

%LPD*%
D10*
X6359502Y2902381D02*
G01*
X7591071Y4133951D01*
X7591071Y4852593D01*
X965202Y482600D02*
G01*
X868682Y579120D01*
X868682Y762736D01*
X2489608Y2383662D01*
X2489608Y2749397D01*
X965202Y736600D02*
G01*
X2539596Y2310993D01*
X2539596Y2780436D01*
X965202Y990600D02*
G01*
X868682Y1087120D01*
X868682Y1523974D01*
X2348359Y3003651D01*
X2418133Y3003651D01*
X2449248Y3034766D01*
X2594790Y2816885D02*
G01*
X2504925Y2816885D01*
X965202Y1277162D01*
X965202Y1244600D01*
X2950898Y3468700D02*
G01*
X2935302Y3468700D01*
X965202Y1498600D01*
X2978025Y3518687D02*
G01*
X2731289Y3518687D01*
X965202Y1752600D01*
X965202Y2006600D02*
G01*
X2689608Y3731005D01*
X2689608Y3953814D01*
X965202Y2260600D02*
G01*
X2595323Y3890721D01*
X2595323Y3954119D01*
X965202Y2514600D02*
G01*
X1095580Y2514600D01*
X2533627Y3952646D01*
X2533627Y3953763D01*
X965202Y2854604D02*
G01*
X1837438Y3726840D01*
X1837438Y3785006D01*
X965202Y2768600D02*
G01*
X965202Y2854604D01*
X952502Y4927600D02*
G01*
X2143000Y3737102D01*
X2292403Y3737102D01*
X2346251Y3790950D01*
X2346251Y3816527D01*
X2277417Y3773271D02*
G01*
X2168679Y3773271D01*
X1120320Y4821631D01*
X1120320Y5181777D01*
X952502Y5349595D01*
X952502Y5435600D02*
G01*
X952502Y5349595D01*
X2678788Y4497425D02*
G01*
X3683002Y5501639D01*
X3683002Y5803900D01*
X2921002Y5803900D02*
G01*
X2824507Y5900394D01*
X2387094Y5900394D01*
X2285291Y5798591D01*
X2285291Y4213809D01*
X2239596Y4168114D01*
X2413002Y5803900D02*
G01*
X2413002Y4051528D01*
X2182548Y3821074D01*
X4279902Y3416300D02*
G01*
X3787294Y2923692D01*
X3223135Y2923692D01*
X4279902Y3924300D02*
G01*
X3624303Y3268700D01*
X3191715Y3268700D01*
X3230603Y3313760D02*
G01*
X3415362Y3313760D01*
X4279902Y4178300D01*
X4279902Y4432300D02*
G01*
X3218690Y3371087D01*
X3218690Y3368700D01*
X4279902Y4686300D02*
G01*
X4159608Y4686300D01*
X3190267Y3716959D01*
X3190267Y3689324D01*
X5396715Y991387D02*
G01*
X5396715Y1091387D01*
X5296715Y991387D02*
G01*
X5296715Y1091387D01*
X4856330Y2747924D02*
G01*
X4856330Y2863875D01*
X5899076Y3906621D01*
X5928159Y3906621D01*
X4798367Y2983712D02*
G01*
X5672254Y3857599D01*
X5798009Y3857599D01*
X4990696Y2741828D02*
G01*
X4990721Y2741828D01*
X4990721Y2972333D01*
X5837303Y3818915D01*
X5929124Y3818915D01*
X4798951Y2883712D02*
G01*
X5707738Y3792499D01*
X5733341Y3792499D01*
X6159500Y3213100D02*
G01*
X5909586Y2963186D01*
X5837831Y2963186D01*
X6159500Y3213100D02*
G01*
X6159500Y3406160D01*
X7554650Y4801313D01*
X6137810Y3938904D02*
G01*
X6137810Y4552899D01*
X5626000Y5064709D01*
X6390159Y2636799D02*
G01*
X6322697Y2704261D01*
X6322697Y3223260D01*
X6830926Y4725847D02*
G01*
X6830926Y4326712D01*
X6595645Y4091431D01*
D11*
X5225417Y3148076D02*
G01*
X5521886Y3148076D01*
X6553202Y4179392D01*
X6553202Y4186123D01*
D10*
X4615919Y5785510D02*
G01*
X4735908Y5665520D01*
X4735908Y5517489D01*
X5340885Y5785510D02*
G01*
X5220896Y5665520D01*
X5220896Y5517489D01*
X6012919Y5772810D02*
G01*
X6132908Y5652820D01*
X6132908Y5504789D01*
X2213790Y546100D02*
G01*
X2213790Y1616887D01*
X2908302Y2311400D01*
X6737885Y5772810D02*
G01*
X6617896Y5652820D01*
X6617896Y5504789D01*
X1905002Y5803900D02*
G01*
X2224534Y5484368D01*
X2224534Y4466564D01*
X3263902Y2311400D02*
G01*
X3263902Y2404922D01*
X3263902Y2404922D02*
G01*
X3263902Y2831033D01*
X3023262Y3071672D01*
X5627474Y4358690D02*
G01*
X5589399Y4320616D01*
X5589399Y3912057D01*
X6617896Y5504789D02*
G01*
X6553202Y5440095D01*
X6553202Y4430750D01*
D12*
G01*
X3771900Y2311400D03*
G01*
X3517900Y2311400D03*
D13*
G01*
X3263900Y2311400D03*
D14*
G01*
X2654300Y2311400D03*
D15*
G01*
X2908300Y2311400D03*
D17*
G01*
X2213800Y546100D03*
G01*
X2713799Y546100D03*
D18*
G01*
X4279900Y5194300D03*
D19*
G01*
X4279900Y4940300D03*
G01*
X4279900Y4686300D03*
G01*
X4279900Y4432300D03*
G01*
X4279900Y4178300D03*
G01*
X4279900Y3924300D03*
G01*
X4279900Y3670300D03*
G01*
X4279900Y3416300D03*
G01*
X4279900Y3162300D03*
G01*
X4279900Y2908300D03*
D18*
G01*
X1397000Y5803900D03*
D19*
G01*
X1651000Y5803900D03*
G01*
X1905000Y5803900D03*
G01*
X2159000Y5803900D03*
G01*
X2413000Y5803900D03*
G01*
X2667000Y5803900D03*
G01*
X2921000Y5803900D03*
G01*
X3175000Y5803900D03*
G01*
X3429000Y5803900D03*
G01*
X3683000Y5803900D03*
D18*
G01*
X952500Y5435600D03*
D19*
G01*
X952500Y5181600D03*
G01*
X952500Y4927600D03*
G01*
X952500Y4673600D03*
G01*
X952500Y4419600D03*
G01*
X952500Y4165600D03*
G01*
X952500Y3911600D03*
G01*
X952500Y3657600D03*
G01*
X952500Y3403600D03*
G01*
X952500Y3149600D03*
D18*
G01*
X965200Y2768600D03*
D19*
G01*
X965200Y2514600D03*
G01*
X965200Y2260600D03*
G01*
X965200Y2006600D03*
G01*
X965200Y1752600D03*
G01*
X965200Y1498600D03*
G01*
X965200Y1244600D03*
G01*
X965200Y990600D03*
G01*
X965200Y736600D03*
G01*
X965200Y482600D03*
D20*
G01*
X6132898Y5504794D03*
G01*
X6617886Y5504794D03*
D21*
G01*
X6737875Y5772815D03*
G01*
X6012908Y5772815D03*
D20*
G01*
X4735898Y5517494D03*
G01*
X5220886Y5517494D03*
D21*
G01*
X5340875Y5785515D03*
G01*
X4615908Y5785515D03*
D22*
G01*
X5296712Y1091387D03*
G01*
X5396712Y1091387D03*
G01*
X5296712Y991387D03*
G01*
X5396712Y991387D03*
D23*
G01*
X5589399Y3912057D03*
G01*
X5627474Y4358690D03*
G01*
X3023262Y3071672D03*
G01*
X2224534Y4466564D03*
G01*
X6553202Y4430750D03*
D24*
G01*
X6553202Y4186123D03*
G01*
X5225417Y3148076D03*
D23*
G01*
X3343404Y3807485D03*
G01*
X2975917Y3864203D03*
G01*
X2091997Y1785823D03*
G01*
X2188644Y2201011D03*
G01*
X2350442Y3039821D03*
G01*
X2061314Y3303625D03*
G01*
X6830926Y4725847D03*
G01*
X6595645Y4091431D03*
G01*
X6390159Y2636799D03*
G01*
X6322697Y3223260D03*
G01*
X6137810Y3938904D03*
G01*
X5626000Y5064709D03*
G01*
X6562702Y3377336D03*
G01*
X7309512Y4165396D03*
G01*
X7554648Y4801311D03*
G01*
X6159500Y3213100D03*
G01*
X5837836Y2963189D03*
G01*
X5743221Y3433114D03*
G01*
X2926260Y3971086D03*
G01*
X5823993Y3516198D03*
G01*
X2840509Y3954145D03*
G01*
X4798951Y2883712D03*
G01*
X5733341Y3792499D03*
G01*
X5929124Y3818915D03*
G01*
X4990696Y2741828D03*
G01*
X4798367Y2983712D03*
G01*
X5798009Y3857599D03*
G01*
X5928159Y3906621D03*
G01*
X4856330Y2747924D03*
G01*
X3190267Y3689324D03*
G01*
X3218690Y3368700D03*
G01*
X3230603Y3313760D03*
G01*
X3191715Y3268700D03*
G01*
X3223135Y2923692D03*
G01*
X2182548Y3821074D03*
G01*
X2239596Y4168114D03*
G01*
X2678788Y4497425D03*
G01*
X2277417Y3773271D03*
G01*
X2346251Y3816527D03*
G01*
X1837438Y3785006D03*
G01*
X2533627Y3953763D03*
G01*
X2595323Y3954119D03*
G01*
X2689608Y3953814D03*
G01*
X2978025Y3518687D03*
G01*
X2950898Y3468700D03*
G01*
X2594790Y2816885D03*
G01*
X2449248Y3034766D03*
G01*
X2539596Y2780436D03*
G01*
X2489608Y2749397D03*
G01*
X7591071Y4852593D03*
G01*
X6359502Y2902381D03*
G01*
X2052043Y3664788D03*
G01*
X4978402Y5375122D03*
G01*
X2051839Y3737914D03*
G01*
X5043401Y5386298D03*
D25*
G01*
X1540479Y4123720D03*
G01*
X2806700Y4279900D03*
D26*
G01*
X2889605Y4061320D03*
G01*
X5918200Y3454400D03*
G01*
X6235700Y3149600D03*
G01*
X2832100Y3759200D03*
G01*
X2959100Y4216400D03*
G01*
X5854700Y3289300D03*
M02*
