G04 Layer: BottomSolderMaskLayer*
G04 EasyEDA v6.5.57, 2026-07-28 14:03:07*
G04 bed29976969240aea55511dc6b9926ae,c5fbdd24a08247c7b54e1019145e24f9,10*
G04 Gerber Generator version 0.2*
G04 Scale: 100 percent, Rotated: No, Reflected: No *
G04 Dimensions in millimeters *
G04 leading zeros omitted , absolute positions ,4 integer and 5 decimal *
%FSLAX45Y45*%
%MOMM*%

%AMMACRO1*4,1,8,-0.8085,-0.8508,-0.8382,-0.821,-0.8382,0.8211,-0.8085,0.8508,0.8084,0.8508,0.8382,0.8211,0.8382,-0.821,0.8084,-0.8508,-0.8085,-0.8508,0*%
%AMMACRO2*4,1,8,-1.0211,-1.0508,-1.0508,-1.021,-1.0508,1.0211,-1.0211,1.0508,1.021,1.0508,1.0508,1.0211,1.0508,-1.021,1.021,-1.0508,-1.0211,-1.0508,0*%
%AMMACRO3*4,1,8,-0.746,-0.7758,-0.7758,-0.746,-0.7758,0.746,-0.746,0.7758,0.746,0.7758,0.7758,0.746,0.7758,-0.746,0.746,-0.7758,-0.746,-0.7758,0*%
%ADD10C,1.7016*%
%ADD11MACRO1*%
%ADD12MACRO2*%
%ADD13C,2.1016*%
%ADD14C,2.3000*%
%ADD15MACRO3*%
%ADD16C,1.5516*%
%ADD17C,1.4020*%
%ADD18C,1.4016*%
%ADD19C,0.0145*%
%ADD20O,1.401597X1.901596*%

%LPD*%
D10*
G01*
X3771900Y2311400D03*
G01*
X3517900Y2311400D03*
D11*
G01*
X3263900Y2311400D03*
D12*
G01*
X2654300Y2311400D03*
D13*
G01*
X2908300Y2311400D03*
D14*
G01*
X2213800Y546100D03*
G01*
X2713799Y546100D03*
D15*
G01*
X4279900Y5194300D03*
D16*
G01*
X4279900Y4940300D03*
G01*
X4279900Y4686300D03*
G01*
X4279900Y4432300D03*
G01*
X4279900Y4178300D03*
G01*
X4279900Y3924300D03*
G01*
X4279900Y3670300D03*
G01*
X4279900Y3416300D03*
G01*
X4279900Y3162300D03*
G01*
X4279900Y2908300D03*
D15*
G01*
X1397000Y5803900D03*
D16*
G01*
X1651000Y5803900D03*
G01*
X1905000Y5803900D03*
G01*
X2159000Y5803900D03*
G01*
X2413000Y5803900D03*
G01*
X2667000Y5803900D03*
G01*
X2921000Y5803900D03*
G01*
X3175000Y5803900D03*
G01*
X3429000Y5803900D03*
G01*
X3683000Y5803900D03*
D15*
G01*
X952500Y5435600D03*
D16*
G01*
X952500Y5181600D03*
G01*
X952500Y4927600D03*
G01*
X952500Y4673600D03*
G01*
X952500Y4419600D03*
G01*
X952500Y4165600D03*
G01*
X952500Y3911600D03*
G01*
X952500Y3657600D03*
G01*
X952500Y3403600D03*
G01*
X952500Y3149600D03*
D15*
G01*
X965200Y2768600D03*
D16*
G01*
X965200Y2514600D03*
G01*
X965200Y2260600D03*
G01*
X965200Y2006600D03*
G01*
X965200Y1752600D03*
G01*
X965200Y1498600D03*
G01*
X965200Y1244600D03*
G01*
X965200Y990600D03*
G01*
X965200Y736600D03*
G01*
X965200Y482600D03*
D17*
G01*
X6132898Y5504794D03*
D18*
G01*
X6617886Y5504794D03*
D20*
G01*
X6737875Y5772815D03*
G01*
X6012908Y5772815D03*
D17*
G01*
X4735898Y5517494D03*
D18*
G01*
X5220886Y5517494D03*
D20*
G01*
X5340875Y5785515D03*
G01*
X4615908Y5785515D03*
M02*
