G04 Layer: TopSolderMaskLayer*
G04 EasyEDA v6.5.57, 2026-07-28 14:03:07*
G04 bed29976969240aea55511dc6b9926ae,c5fbdd24a08247c7b54e1019145e24f9,10*
G04 Gerber Generator version 0.2*
G04 Scale: 100 percent, Rotated: No, Reflected: No *
G04 Dimensions in millimeters *
G04 leading zeros omitted , absolute positions ,4 integer and 5 decimal *
%FSLAX45Y45*%
%MOMM*%

%AMMACRO1*4,1,8,-2.2711,-0.8758,-2.3008,-0.846,-2.3008,0.846,-2.2711,0.8758,2.271,0.8758,2.3008,0.846,2.3008,-0.846,2.271,-0.8758,-2.2711,-0.8758,0*%
%AMMACRO2*4,1,8,-0.7261,-0.7258,-0.7558,-0.696,-0.7558,0.6961,-0.7261,0.7258,0.726,0.7258,0.7558,0.6961,0.7558,-0.696,0.726,-0.7258,-0.7261,-0.7258,0*%
%AMMACRO3*4,1,8,-0.2711,-0.3208,-0.3008,-0.291,-0.3008,0.2911,-0.2711,0.3208,0.271,0.3208,0.3008,0.2911,0.3008,-0.291,0.271,-0.3208,-0.2711,-0.3208,0*%
%AMMACRO4*4,1,8,-0.2911,-0.3008,-0.3208,-0.271,-0.3208,0.2711,-0.2911,0.3008,0.291,0.3008,0.3208,0.2711,0.3208,-0.271,0.291,-0.3008,-0.2911,-0.3008,0*%
%AMMACRO5*4,1,8,-1.0261,-2.7508,-1.0558,-2.721,-1.0558,2.7211,-1.0261,2.7508,1.026,2.7508,1.0558,2.7211,1.0558,-2.721,1.026,-2.7508,-1.0261,-2.7508,0*%
%AMMACRO6*4,1,8,-1.8113,-0.8508,-1.8411,-0.821,-1.8411,0.8211,-1.8113,0.8508,1.8113,0.8508,1.8411,0.8211,1.8411,-0.821,1.8113,-0.8508,-1.8113,-0.8508,0*%
%AMMACRO7*4,1,8,-4.0973,-5.2352,-4.1271,-5.2054,-4.1271,5.2055,-4.0973,5.2352,4.0973,5.2352,4.1271,5.2055,4.1271,-5.2054,4.0973,-5.2352,-4.0973,-5.2352,0*%
%AMMACRO8*4,1,8,-0.8085,-0.8508,-0.8382,-0.821,-0.8382,0.8211,-0.8085,0.8508,0.8084,0.8508,0.8382,0.8211,0.8382,-0.821,0.8084,-0.8508,-0.8085,-0.8508,0*%
%AMMACRO9*4,1,8,-1.0211,-1.0508,-1.0508,-1.021,-1.0508,1.0211,-1.0211,1.0508,1.021,1.0508,1.0508,1.0211,1.0508,-1.021,1.021,-1.0508,-1.0211,-1.0508,0*%
%AMMACRO10*4,1,8,-1.7711,-2.7508,-1.8008,-2.721,-1.8008,2.7211,-1.7711,2.7508,1.771,2.7508,1.8008,2.7211,1.8008,-2.721,1.771,-2.7508,-1.7711,-2.7508,0*%
%AMMACRO11*4,1,8,-0.5207,-0.85,-0.55,-0.8207,-0.55,0.8207,-0.5207,0.85,0.5207,0.85,0.55,0.8207,0.55,-0.8207,0.5207,-0.85,-0.5207,-0.85,0*%
%AMMACRO12*4,1,8,-0.2911,-0.3336,-0.3208,-0.3038,-0.3208,0.3039,-0.2911,0.3336,0.291,0.3336,0.3208,0.3039,0.3208,-0.3038,0.291,-0.3336,-0.2911,-0.3336,0*%
%AMMACRO13*4,1,8,-0.3039,-0.3208,-0.3336,-0.291,-0.3336,0.2911,-0.3039,0.3208,0.3038,0.3208,0.3336,0.2911,0.3336,-0.291,0.3038,-0.3208,-0.3039,-0.3208,0*%
%AMMACRO14*4,1,8,-0.4243,-0.4828,-0.454,-0.453,-0.454,0.4531,-0.4243,0.4828,0.4243,0.4828,0.454,0.4531,0.454,-0.453,0.4243,-0.4828,-0.4243,-0.4828,0*%
%AMMACRO15*4,1,8,-0.4531,-0.454,-0.4828,-0.4243,-0.4828,0.4243,-0.4531,0.454,0.453,0.454,0.4828,0.4243,0.4828,-0.4243,0.453,-0.454,-0.4531,-0.454,0*%
%AMMACRO16*4,1,8,-0.9511,-0.6658,-0.9808,-0.636,-0.9808,0.6361,-0.9511,0.6658,0.951,0.6658,0.9808,0.6361,0.9808,-0.636,0.951,-0.6658,-0.9511,-0.6658,0*%
%AMMACRO17*4,1,8,-1.7211,-1.7508,-1.7508,-1.721,-1.7508,1.7211,-1.7211,1.7508,1.721,1.7508,1.7508,1.7211,1.7508,-1.721,1.721,-1.7508,-1.7211,-1.7508,0*%
%AMMACRO18*4,1,8,-0.1211,-0.4883,-0.1508,-0.4585,-0.1508,0.4585,-0.1211,0.4883,0.121,0.4883,0.1508,0.4585,0.1508,-0.4585,0.121,-0.4883,-0.1211,-0.4883,0*%
%AMMACRO19*4,1,8,-0.4585,-0.1508,-0.4883,-0.121,-0.4883,0.1211,-0.4585,0.1508,0.4585,0.1508,0.4883,0.1211,0.4883,-0.121,0.4585,-0.1508,-0.4585,-0.1508,0*%
%AMMACRO20*4,1,8,-1.5701,-1.2558,-1.5998,-1.226,-1.5998,1.2261,-1.5701,1.2558,1.57,1.2558,1.5998,1.2261,1.5998,-1.226,1.57,-1.2558,-1.5701,-1.2558,0*%
%AMMACRO21*4,1,8,-1.1711,-0.8258,-1.2008,-0.796,-1.2008,0.7961,-1.1711,0.8258,1.171,0.8258,1.2008,0.7961,1.2008,-0.796,1.171,-0.8258,-1.1711,-0.8258,0*%
%AMMACRO22*4,1,8,-0.7211,-0.6508,-0.7508,-0.621,-0.7508,0.6211,-0.7211,0.6508,0.721,0.6508,0.7508,0.6211,0.7508,-0.621,0.721,-0.6508,-0.7211,-0.6508,0*%
%AMMACRO23*4,1,8,-0.1611,-0.3883,-0.1908,-0.3585,-0.1908,0.3585,-0.1611,0.3883,0.161,0.3883,0.1908,0.3585,0.1908,-0.3585,0.161,-0.3883,-0.1611,-0.3883,0*%
%AMMACRO24*4,1,8,-0.3585,-0.1908,-0.3883,-0.161,-0.3883,0.1611,-0.3585,0.1908,0.3585,0.1908,0.3883,0.1611,0.3883,-0.161,0.3585,-0.1908,-0.3585,-0.1908,0*%
%AMMACRO25*4,1,8,-0.746,-0.7758,-0.7758,-0.746,-0.7758,0.746,-0.746,0.7758,0.746,0.7758,0.7758,0.746,0.7758,-0.746,0.746,-0.7758,-0.746,-0.7758,0*%
%AMMACRO26*4,1,8,-0.9207,-0.4,-0.95,-0.3707,-0.95,0.3707,-0.9207,0.4,0.9207,0.4,0.95,0.3707,0.95,-0.3707,0.9207,-0.4,-0.9207,-0.4,0*%
%AMMACRO27*4,1,8,-0.246,-0.1758,-0.2758,-0.146,-0.2758,0.1461,-0.246,0.1758,0.246,0.1758,0.2758,0.1461,0.2758,-0.146,0.246,-0.1758,-0.246,-0.1758,0*%
%AMMACRO28*4,1,8,-0.1461,-0.2758,-0.1758,-0.246,-0.1758,0.246,-0.1461,0.2758,0.146,0.2758,0.1758,0.246,0.1758,-0.246,0.146,-0.2758,-0.1461,-0.2758,0*%
%AMMACRO29*4,1,8,-0.3211,-0.2508,-0.3508,-0.221,-0.3508,0.2211,-0.3211,0.2508,0.321,0.2508,0.3508,0.2211,0.3508,-0.221,0.321,-0.2508,-0.3211,-0.2508,0*%
%AMMACRO30*4,1,8,-0.2211,-1.051,-0.251,-1.0211,-0.251,1.0211,-0.2211,1.051,0.2211,1.051,0.251,1.0211,0.251,-1.0211,0.2211,-1.051,-0.2211,-1.051,0*%
%ADD10MACRO1*%
%ADD11MACRO2*%
%ADD12MACRO3*%
%ADD13MACRO4*%
%ADD14MACRO5*%
%ADD15MACRO6*%
%ADD16MACRO7*%
%ADD17C,1.7016*%
%ADD18C,0.0107*%
%ADD19MACRO8*%
%ADD20MACRO9*%
%ADD21C,2.1016*%
%ADD22MACRO10*%
%ADD23MACRO11*%
%ADD24MACRO12*%
%ADD25MACRO13*%
%ADD26MACRO14*%
%ADD27MACRO15*%
%ADD28MACRO16*%
%ADD29MACRO17*%
%ADD30MACRO18*%
%ADD31MACRO19*%
%ADD32O,0.703605X2.042592*%
%ADD33MACRO20*%
%ADD34C,2.3000*%
%ADD35MACRO21*%
%ADD36O,0.591591X1.1716*%
%ADD37O,0.731596X2.351608*%
%ADD38MACRO22*%
%ADD39MACRO23*%
%ADD40MACRO24*%
%ADD41MACRO25*%
%ADD42C,1.5516*%
%ADD43MACRO26*%
%ADD44MACRO27*%
%ADD45MACRO28*%
%ADD46MACRO29*%
%ADD47MACRO30*%
%ADD48C,1.4020*%
%ADD49C,1.4016*%
%ADD50O,1.401597X1.901596*%
%ADD51O,0.401599X1.601597*%
%ADD52O,1.601597X0.401599*%

%LPD*%
D10*
G01*
X3512402Y609600D03*
G01*
X4412397Y609600D03*
D11*
G01*
X5357802Y355600D03*
G01*
X5157797Y355600D03*
D12*
G01*
X5630000Y1714500D03*
G01*
X5545999Y1714500D03*
D13*
G01*
X6540500Y4822099D03*
G01*
X6540500Y4906100D03*
G01*
X6731000Y4288699D03*
G01*
X6731000Y4372700D03*
G01*
X6553200Y4288699D03*
G01*
X6553200Y4372700D03*
G01*
X6654800Y3090000D03*
G01*
X6654800Y3005999D03*
D12*
G01*
X6976200Y3924300D03*
G01*
X6892199Y3924300D03*
G01*
X6252300Y3390900D03*
G01*
X6168299Y3390900D03*
G01*
X5647599Y3543300D03*
G01*
X5731600Y3543300D03*
G01*
X5647599Y3924300D03*
G01*
X5731600Y3924300D03*
D13*
G01*
X6311900Y4301399D03*
G01*
X6311900Y4385400D03*
G01*
X6184900Y4301399D03*
G01*
X6184900Y4385400D03*
D12*
G01*
X6976200Y3797300D03*
G01*
X6892199Y3797300D03*
G01*
X5731600Y3733800D03*
G01*
X5647599Y3733800D03*
D13*
G01*
X6362700Y3090000D03*
G01*
X6362700Y3005999D03*
D12*
G01*
X6976200Y3657600D03*
G01*
X6892199Y3657600D03*
G01*
X4817200Y5080000D03*
G01*
X4733199Y5080000D03*
G01*
X7027000Y2755900D03*
G01*
X6942999Y2755900D03*
G01*
X8030300Y2933700D03*
G01*
X7946299Y2933700D03*
G01*
X5045800Y3213100D03*
G01*
X4961799Y3213100D03*
G01*
X5190399Y3213100D03*
G01*
X5274400Y3213100D03*
G01*
X4931500Y2438400D03*
G01*
X4847499Y2438400D03*
G01*
X3166200Y4076700D03*
G01*
X3082199Y4076700D03*
G01*
X3483700Y3213100D03*
G01*
X3399699Y3213100D03*
D13*
G01*
X2146300Y2650399D03*
G01*
X2146300Y2734400D03*
D12*
G01*
X1583599Y3111500D03*
G01*
X1667600Y3111500D03*
D13*
G01*
X2755900Y2637699D03*
G01*
X2755900Y2721700D03*
G01*
X2019300Y4194900D03*
G01*
X2019300Y4110899D03*
D12*
G01*
X2277200Y4406900D03*
G01*
X2193199Y4406900D03*
G01*
X3496400Y3810000D03*
G01*
X3412399Y3810000D03*
G01*
X2607400Y2603500D03*
G01*
X2523399Y2603500D03*
G01*
X2086700Y1727200D03*
G01*
X2002699Y1727200D03*
G01*
X2353400Y2654300D03*
G01*
X2269399Y2654300D03*
G01*
X8360500Y5041900D03*
G01*
X8276499Y5041900D03*
D14*
G01*
X6595300Y2133600D03*
G01*
X6079299Y2133600D03*
G01*
X7547800Y2133600D03*
G01*
X7031799Y2133600D03*
G01*
X8728900Y2159000D03*
G01*
X8212899Y2159000D03*
D15*
G01*
X9043619Y609600D03*
G01*
X9043619Y1117600D03*
D16*
G01*
X7999774Y863600D03*
D17*
G01*
X3771900Y2311400D03*
G01*
X3517900Y2311400D03*
D19*
G01*
X3263900Y2311400D03*
D20*
G01*
X2654300Y2311400D03*
D21*
G01*
X2908300Y2311400D03*
D22*
G01*
X6132099Y889000D03*
G01*
X7152097Y889000D03*
D23*
G01*
X6707201Y4825998D03*
G01*
X6907201Y4825998D03*
D24*
G01*
X5727700Y449682D03*
G01*
X5727700Y363117D03*
D25*
G01*
X4958182Y4140200D03*
G01*
X4871617Y4140200D03*
G01*
X6329782Y2641600D03*
G01*
X6243217Y2641600D03*
D24*
G01*
X6413500Y4907382D03*
G01*
X6413500Y4820817D03*
G01*
X6286500Y4907382D03*
G01*
X6286500Y4820817D03*
D26*
G01*
X5701424Y1905000D03*
G01*
X5550775Y1905000D03*
G01*
X5180724Y1714500D03*
G01*
X5030075Y1714500D03*
D27*
G01*
X6921500Y4279024D03*
G01*
X6921500Y4128375D03*
D26*
G01*
X7187324Y5029200D03*
G01*
X7036675Y5029200D03*
D28*
G01*
X4965700Y3388310D03*
G01*
X4965700Y3825292D03*
D29*
G01*
X6362700Y3657587D03*
D30*
G01*
X6082715Y4015092D03*
G01*
X6122695Y4015092D03*
G01*
X6162700Y4015092D03*
G01*
X6202705Y4015092D03*
G01*
X6242710Y4015092D03*
G01*
X6282715Y4015092D03*
G01*
X6322694Y4015092D03*
G01*
X6362700Y4015092D03*
G01*
X6402705Y4015092D03*
G01*
X6442710Y4015092D03*
G01*
X6482714Y4015092D03*
G01*
X6522694Y4015092D03*
G01*
X6562699Y4015092D03*
G01*
X6602704Y4015092D03*
G01*
X6642709Y4015092D03*
D31*
G01*
X6720205Y3937596D03*
G01*
X6720205Y3897591D03*
G01*
X6720205Y3857561D03*
G01*
X6720205Y3817607D03*
G01*
X6720205Y3777602D03*
G01*
X6720205Y3737597D03*
G01*
X6720205Y3697592D03*
G01*
X6720205Y3657561D03*
G01*
X6720205Y3617607D03*
G01*
X6720205Y3577602D03*
G01*
X6720205Y3537597D03*
G01*
X6720205Y3497592D03*
G01*
X6720205Y3457562D03*
G01*
X6720205Y3417608D03*
G01*
X6720205Y3377603D03*
D30*
G01*
X6642709Y3300107D03*
G01*
X6602704Y3300107D03*
G01*
X6562699Y3300107D03*
G01*
X6522694Y3300107D03*
G01*
X6482714Y3300107D03*
G01*
X6442710Y3300107D03*
G01*
X6402705Y3300107D03*
G01*
X6362700Y3300107D03*
G01*
X6322694Y3300107D03*
G01*
X6282715Y3300107D03*
G01*
X6242710Y3300107D03*
G01*
X6202705Y3300107D03*
G01*
X6162700Y3300107D03*
G01*
X6122695Y3300107D03*
G01*
X6082715Y3300107D03*
D31*
G01*
X6005194Y3377603D03*
G01*
X6005194Y3417582D03*
G01*
X6005194Y3457587D03*
G01*
X6005194Y3497592D03*
G01*
X6005194Y3537597D03*
G01*
X6005194Y3577602D03*
G01*
X6005194Y3617607D03*
G01*
X6005194Y3657587D03*
G01*
X6005194Y3697592D03*
G01*
X6005194Y3737597D03*
G01*
X6005194Y3777602D03*
G01*
X6005194Y3817581D03*
G01*
X6005194Y3857586D03*
G01*
X6005194Y3897591D03*
G01*
X6005194Y3937596D03*
D32*
G01*
X5156200Y769340D03*
G01*
X5283200Y769340D03*
G01*
X5410200Y769340D03*
G01*
X5537200Y769340D03*
G01*
X5156200Y1313459D03*
G01*
X5283200Y1313459D03*
G01*
X5410200Y1313459D03*
G01*
X5537200Y1313459D03*
D33*
G01*
X5346700Y1041400D03*
D34*
G01*
X2213800Y546100D03*
G01*
X2713799Y546100D03*
D35*
G01*
X5524500Y2298700D03*
D36*
G01*
X5429511Y2458707D03*
G01*
X5524507Y2458707D03*
G01*
X5619503Y2458707D03*
G01*
X5619503Y2138692D03*
G01*
X5524507Y2138692D03*
G01*
X5429511Y2138692D03*
D37*
G01*
X5181600Y4358690D03*
G01*
X5308600Y4358690D03*
G01*
X5435600Y4358690D03*
G01*
X5562600Y4358690D03*
G01*
X5181600Y5064709D03*
G01*
X5308600Y5064709D03*
G01*
X5435600Y5064709D03*
G01*
X5562600Y5064709D03*
D38*
G01*
X7459200Y2759811D03*
G01*
X7679199Y2759811D03*
G01*
X7679199Y2929813D03*
G01*
X7459200Y2929813D03*
G01*
X2087100Y2201011D03*
G01*
X2307099Y2201011D03*
G01*
X2307099Y2371013D03*
G01*
X2087100Y2371013D03*
D39*
G01*
X4890693Y2807487D03*
G01*
X4940706Y2807487D03*
G01*
X4990693Y2807487D03*
G01*
X5040706Y2807487D03*
D40*
G01*
X5066954Y2883700D03*
G01*
X5066954Y2933687D03*
G01*
X5066954Y2983699D03*
D39*
G01*
X5040706Y3059887D03*
G01*
X4990693Y3059887D03*
G01*
X4940706Y3059887D03*
G01*
X4890693Y3059887D03*
D40*
G01*
X4864445Y2983699D03*
G01*
X4864445Y2933687D03*
G01*
X4864445Y2883700D03*
D41*
G01*
X4279900Y5194300D03*
D42*
G01*
X4279900Y4940300D03*
G01*
X4279900Y4686300D03*
G01*
X4279900Y4432300D03*
G01*
X4279900Y4178300D03*
G01*
X4279900Y3924300D03*
G01*
X4279900Y3670300D03*
G01*
X4279900Y3416300D03*
G01*
X4279900Y3162300D03*
G01*
X4279900Y2908300D03*
D41*
G01*
X1397000Y5803900D03*
D42*
G01*
X1651000Y5803900D03*
G01*
X1905000Y5803900D03*
G01*
X2159000Y5803900D03*
G01*
X2413000Y5803900D03*
G01*
X2667000Y5803900D03*
G01*
X2921000Y5803900D03*
G01*
X3175000Y5803900D03*
G01*
X3429000Y5803900D03*
G01*
X3683000Y5803900D03*
D41*
G01*
X952500Y5435600D03*
D42*
G01*
X952500Y5181600D03*
G01*
X952500Y4927600D03*
G01*
X952500Y4673600D03*
G01*
X952500Y4419600D03*
G01*
X952500Y4165600D03*
G01*
X952500Y3911600D03*
G01*
X952500Y3657600D03*
G01*
X952500Y3403600D03*
G01*
X952500Y3149600D03*
D41*
G01*
X965200Y2768600D03*
D42*
G01*
X965200Y2514600D03*
G01*
X965200Y2260600D03*
G01*
X965200Y2006600D03*
G01*
X965200Y1752600D03*
G01*
X965200Y1498600D03*
G01*
X965200Y1244600D03*
G01*
X965200Y990600D03*
G01*
X965200Y736600D03*
G01*
X965200Y482600D03*
D43*
G01*
X7432100Y4275399D03*
G01*
X7432098Y4165399D03*
G01*
X7432098Y4055399D03*
G01*
X7432098Y3945399D03*
G01*
X7432098Y3835400D03*
G01*
X7432098Y3725400D03*
G01*
X7432098Y3615400D03*
G01*
X7432098Y3505400D03*
G01*
X7432098Y3395400D03*
G01*
X8392101Y3395400D03*
G01*
X8392101Y3505400D03*
G01*
X8392101Y3615400D03*
G01*
X8392101Y3725400D03*
G01*
X8392101Y3835400D03*
G01*
X8392101Y3945399D03*
G01*
X8392101Y4055399D03*
G01*
X8392101Y4165399D03*
G01*
X8392099Y4275399D03*
D44*
G01*
X7646098Y4852579D03*
G01*
X7646098Y4902593D03*
G01*
X7646098Y4952579D03*
G01*
X7646098Y5002592D03*
D45*
G01*
X7697382Y5053901D03*
G01*
X7747394Y5053901D03*
G01*
X7797382Y5053901D03*
G01*
X7847394Y5053901D03*
D44*
G01*
X7898701Y5002617D03*
G01*
X7898701Y4952606D03*
G01*
X7898701Y4902617D03*
G01*
X7898701Y4852605D03*
D45*
G01*
X7847420Y4801298D03*
G01*
X7797407Y4801298D03*
G01*
X7747420Y4801298D03*
G01*
X7697407Y4801298D03*
D46*
G01*
X5629808Y2963189D03*
G01*
X5629808Y3028213D03*
G01*
X5629808Y3093186D03*
G01*
X5629808Y3158210D03*
G01*
X5774791Y2963189D03*
G01*
X5774791Y3028213D03*
G01*
X5774791Y3093186D03*
G01*
X5774791Y3158210D03*
D47*
G01*
X6245397Y5505577D03*
G01*
X6310396Y5505577D03*
G01*
X6375394Y5505577D03*
G01*
X6440393Y5505577D03*
G01*
X6505392Y5505577D03*
D48*
G01*
X6132898Y5504794D03*
D49*
G01*
X6617886Y5504794D03*
D50*
G01*
X6737875Y5772815D03*
G01*
X6012908Y5772815D03*
D47*
G01*
X4848397Y5518277D03*
G01*
X4913396Y5518277D03*
G01*
X4978394Y5518277D03*
G01*
X5043393Y5518277D03*
G01*
X5108392Y5518277D03*
D48*
G01*
X4735898Y5517494D03*
D49*
G01*
X5220886Y5517494D03*
D50*
G01*
X5340875Y5785515D03*
G01*
X4615908Y5785515D03*
D51*
G01*
X2139594Y2923679D03*
G01*
X2189606Y2923679D03*
G01*
X2239594Y2923679D03*
G01*
X2289606Y2923679D03*
G01*
X2339593Y2923679D03*
G01*
X2389606Y2923679D03*
G01*
X2439593Y2923679D03*
G01*
X2489606Y2923679D03*
G01*
X2539593Y2923679D03*
G01*
X2589606Y2923679D03*
G01*
X2639593Y2923679D03*
G01*
X2689606Y2923679D03*
G01*
X2739593Y2923679D03*
G01*
X2789605Y2923679D03*
G01*
X2839593Y2923679D03*
G01*
X2889605Y2923679D03*
D52*
G01*
X3084601Y3118675D03*
G01*
X3084601Y3168688D03*
G01*
X3084601Y3218675D03*
G01*
X3084601Y3268687D03*
G01*
X3084601Y3318675D03*
G01*
X3084601Y3368687D03*
G01*
X3084601Y3418674D03*
G01*
X3084601Y3468687D03*
G01*
X3084601Y3518674D03*
G01*
X3084601Y3568687D03*
G01*
X3084601Y3618674D03*
G01*
X3084601Y3668687D03*
G01*
X3084601Y3718674D03*
G01*
X3084601Y3768686D03*
G01*
X3084601Y3818674D03*
G01*
X3084601Y3868686D03*
D51*
G01*
X2889605Y4061320D03*
G01*
X2839593Y4061320D03*
G01*
X2789605Y4061320D03*
G01*
X2739593Y4061320D03*
G01*
X2689606Y4061320D03*
G01*
X2639593Y4061320D03*
G01*
X2589606Y4061320D03*
G01*
X2539593Y4061320D03*
G01*
X2489606Y4061320D03*
G01*
X2439593Y4061320D03*
G01*
X2389606Y4061320D03*
G01*
X2339593Y4061320D03*
G01*
X2289606Y4061320D03*
G01*
X2239594Y4061320D03*
G01*
X2189606Y4061320D03*
G01*
X2139594Y4061320D03*
D52*
G01*
X1944598Y3868686D03*
G01*
X1944598Y3818674D03*
G01*
X1944598Y3768686D03*
G01*
X1944598Y3718674D03*
G01*
X1944598Y3668687D03*
G01*
X1944598Y3618674D03*
G01*
X1944598Y3568687D03*
G01*
X1944598Y3518674D03*
G01*
X1944598Y3468687D03*
G01*
X1944598Y3418674D03*
G01*
X1944598Y3368687D03*
G01*
X1944598Y3318675D03*
G01*
X1944598Y3268687D03*
G01*
X1944598Y3218675D03*
G01*
X1944598Y3168688D03*
G01*
X1944598Y3118675D03*
M02*
